<svg version="1.1" xmlns="http://www.w3.org/2000/svg" viewBox="0 0 1205.2166748046875 881.8828125" width="2410.433349609375" height="1763.765625">
  <!-- svg-source:excalidraw -->
  
  <defs>
    <style class="style-fonts">
      @font-face {
        font-family: "Virgil";
        src: url("https://excalidraw.com/Virgil.woff2");
      }
      @font-face {
        font-family: "Cascadia";
        src: url("https://excalidraw.com/Cascadia.woff2");
      }
      @font-face {
        font-family: "Assistant";
        src: url("https://excalidraw.com/Assistant-Regular.woff2");
      }
    </style>
    
  </defs>
  <rect x="0" y="0" width="1205.2166748046875" height="881.8828125" fill="#ffffff"></rect><g stroke-linecap="round" transform="translate(95 27) rotate(0 186 25.5)"><path d="M12.75 0 C148.35 -1.2, 283.21 0.83, 359.25 0 M12.75 0 C108.24 -0.86, 203.62 -0.77, 359.25 0 M359.25 0 C368.34 0.62, 371.51 3.91, 372 12.75 M359.25 0 C366.52 -0.69, 372.41 3.86, 372 12.75 M372 12.75 C371.65 20.03, 371.52 27.57, 372 38.25 M372 12.75 C372.36 19.45, 371.49 28.44, 372 38.25 M372 38.25 C372.59 48.62, 366.09 52.59, 359.25 51 M372 38.25 C371.53 45.25, 368.08 51.45, 359.25 51 M359.25 51 C244.25 51.78, 129.09 52.33, 12.75 51 M359.25 51 C258.88 52.68, 158.13 52.48, 12.75 51 M12.75 51 C3.77 51.94, -0.96 47.46, 0 38.25 M12.75 51 C3.92 53.13, -1.09 48.81, 0 38.25 M0 38.25 C0.47 31.89, 0.86 23.65, 0 12.75 M0 38.25 C0.93 32.44, -0.57 26.29, 0 12.75 M0 12.75 C-0.76 2.26, 4.78 -0.53, 12.75 0 M0 12.75 C1.87 5.62, 5.16 1.97, 12.75 0" stroke="#1e1e1e" stroke-width="2" fill="none"></path></g><g transform="translate(211 40) rotate(0 59.20000076293945 12.5)"><text x="0" y="17.52" font-family="Virgil, Segoe UI Emoji" font-size="20px" fill="#1e1e1e" text-anchor="start" style="white-space: pre;" direction="ltr" dominant-baseline="alphabetic">SCHEDULER</text></g><g stroke-linecap="round" transform="translate(71 170) rotate(0 59 57)"><path d="M28.5 0 C50.6 -2.12, 71.87 0.78, 89.5 0 M28.5 0 C49.65 0.05, 72.99 0.53, 89.5 0 M89.5 0 C106.56 1.46, 118.32 8.23, 118 28.5 M89.5 0 C107.03 -1.91, 119.01 9.15, 118 28.5 M118 28.5 C119.47 44.73, 119.36 62.87, 118 85.5 M118 28.5 C117.25 40.07, 117.55 52.4, 118 85.5 M118 85.5 C118.32 103.85, 109.93 112.62, 89.5 114 M118 85.5 C116.25 103.95, 107.97 111.89, 89.5 114 M89.5 114 C73.72 115.66, 56.83 113.08, 28.5 114 M89.5 114 C70.12 112.9, 53.12 113.71, 28.5 114 M28.5 114 C9.41 112.97, -0.88 102.77, 0 85.5 M28.5 114 C11.46 116.2, -1.02 106.6, 0 85.5 M0 85.5 C0.77 64.57, 1.57 40.89, 0 28.5 M0 85.5 C0.54 70.89, -0.56 56.5, 0 28.5 M0 28.5 C0.14 11.04, 8.55 0.22, 28.5 0 M0 28.5 C0.1 9.17, 10.55 -1.24, 28.5 0" stroke="#2f9e44" stroke-width="2" fill="none"></path></g><g transform="translate(119.25 214.5) rotate(0 10.75 12.5)"><text x="10.75" y="17.52" font-family="Virgil, Segoe UI Emoji" font-size="20px" fill="#1e1e1e" text-anchor="middle" style="white-space: pre;" direction="ltr" dominant-baseline="alphabetic">T1</text></g><g stroke-linecap="round" transform="translate(342.5 168.5) rotate(0 57.5 57.5)"><path d="M28.75 0 C46.72 2.37, 67.63 0.31, 86.25 0 M28.75 0 C43.9 1.45, 56.91 1.41, 86.25 0 M86.25 0 C107.39 -1.65, 116.99 9.88, 115 28.75 M86.25 0 C107.47 1.26, 115.96 8.37, 115 28.75 M115 28.75 C114.24 49.27, 113.65 70.7, 115 86.25 M115 28.75 C114.77 50.29, 115.18 71.58, 115 86.25 M115 86.25 C114.01 103.92, 106.97 115.98, 86.25 115 M115 86.25 C114.2 104.11, 105.91 113.63, 86.25 115 M86.25 115 C66.52 113.96, 49.04 116.92, 28.75 115 M86.25 115 C64.89 114.58, 44.58 114.93, 28.75 115 M28.75 115 C7.68 115.23, -0.04 106.78, 0 86.25 M28.75 115 C8.25 113.99, -1.71 105.11, 0 86.25 M0 86.25 C0.3 71.3, -0.38 57.46, 0 28.75 M0 86.25 C-0.27 67.58, 1.12 48.45, 0 28.75 M0 28.75 C-1.28 8.05, 10.89 -0.56, 28.75 0 M0 28.75 C0.87 11.04, 8.83 1.02, 28.75 0" stroke="#e03131" stroke-width="2" fill="none"></path></g><g transform="translate(385.1499996185303 213.5) rotate(0 14.850000381469727 12.5)"><text x="14.850000381469727" y="17.52" font-family="Virgil, Segoe UI Emoji" font-size="20px" fill="#1e1e1e" text-anchor="middle" style="white-space: pre;" direction="ltr" dominant-baseline="alphabetic">T3</text></g><g stroke-linecap="round" transform="translate(475.5 164.5) rotate(0 60.5 60)"><path d="M30 0 C48.35 -1.41, 70.17 2.22, 91 0 M30 0 C44.76 0.39, 61.32 0.29, 91 0 M91 0 C112.1 0.84, 119.95 11.27, 121 30 M91 0 C112.02 2.08, 119.83 9.55, 121 30 M121 30 C120.09 43.4, 121.13 56.06, 121 90 M121 30 C119.93 51.51, 121.16 71.12, 121 90 M121 90 C119.87 110.43, 109.81 120.44, 91 120 M121 90 C122.96 110.03, 109.61 118.8, 91 120 M91 120 C73.64 118.4, 54.13 120.66, 30 120 M91 120 C74.26 119.4, 57.98 118.84, 30 120 M30 120 C9.13 118.52, -0.27 108.73, 0 90 M30 120 C11.18 121.19, 0.69 108.46, 0 90 M0 90 C-0.97 71.98, -0.89 54.13, 0 30 M0 90 C-0.26 68.41, 0.23 45.89, 0 30 M0 30 C1.27 9.35, 10.89 -0.09, 30 0 M0 30 C0.26 9.69, 8.07 0.46, 30 0" stroke="#f08c00" stroke-width="2" fill="none"></path></g><g transform="translate(521.5666666030884 212) rotate(0 14.433333396911621 12.5)"><text x="14.433333396911621" y="17.52" font-family="Virgil, Segoe UI Emoji" font-size="20px" fill="#1e1e1e" text-anchor="middle" style="white-space: pre;" direction="ltr" dominant-baseline="alphabetic">T4</text></g><g stroke-linecap="round" transform="translate(206.5 166.5) rotate(0 60 57.5)"><path d="M28.75 0 C54.64 2.25, 75.23 2.26, 91.25 0 M28.75 0 C48.84 -0.87, 68.74 0.1, 91.25 0 M91.25 0 C112.23 -1.02, 119.61 7.98, 120 28.75 M91.25 0 C110.57 1.77, 118.91 9.84, 120 28.75 M120 28.75 C118.83 45.26, 118.42 65.31, 120 86.25 M120 28.75 C120.02 48.21, 120.02 69.71, 120 86.25 M120 86.25 C120.03 104.21, 109.37 114.83, 91.25 115 M120 86.25 C122.2 106.8, 110.91 112.73, 91.25 115 M91.25 115 C77.53 112.95, 62.06 114.81, 28.75 115 M91.25 115 C67.49 114.59, 44.57 115.24, 28.75 115 M28.75 115 C10.62 115.6, -1.34 105.33, 0 86.25 M28.75 115 C7.76 115.49, -1.66 105.09, 0 86.25 M0 86.25 C-1.6 71.65, -1.42 60.91, 0 28.75 M0 86.25 C-0.54 71.07, -0.26 55.11, 0 28.75 M0 28.75 C-0.27 7.9, 9.98 -0.53, 28.75 0 M0 28.75 C1.95 11.13, 9 -1.04, 28.75 0" stroke="#1971c2" stroke-width="2" fill="none"></path></g><g transform="translate(251.35000038146973 211.5) rotate(0 15.149999618530273 12.5)"><text x="15.149999618530273" y="17.52" font-family="Virgil, Segoe UI Emoji" font-size="20px" fill="#1e1e1e" text-anchor="middle" style="white-space: pre;" direction="ltr" dominant-baseline="alphabetic">T2</text></g><g stroke-linecap="round" transform="translate(614.5 163.5) rotate(0 58 59)"><path d="M29 0 C46.23 -2.42, 67.53 1.41, 87 0 M29 0 C48.22 0.85, 69.16 -0.1, 87 0 M87 0 C108.18 -1.6, 115.44 7.96, 116 29 M87 0 C105.21 -1.91, 114.69 8.29, 116 29 M116 29 C115.5 49.71, 117.02 71.28, 116 89 M116 29 C116.17 40.88, 115.57 54.61, 116 89 M116 89 C116.32 109.92, 104.64 117.9, 87 118 M116 89 C114.6 106.17, 107.67 116.39, 87 118 M87 118 C65.45 117.89, 45.66 118.79, 29 118 M87 118 C75.31 116.94, 62.97 117.15, 29 118 M29 118 C9.96 117.24, 0.31 107.01, 0 89 M29 118 C11.82 118.34, 0.42 107.95, 0 89 M0 89 C0.3 68.77, -0.07 51.52, 0 29 M0 89 C-0.82 76.23, -0.08 64.52, 0 29 M0 29 C1.67 9.32, 9.05 -1.43, 29 0 M0 29 C-0.17 8.36, 11.19 0.49, 29 0" stroke="#1e1e1e" stroke-width="2" fill="none"></path></g><g transform="translate(658.2833337783813 210) rotate(0 14.216666221618652 12.5)"><text x="14.216666221618652" y="17.52" font-family="Virgil, Segoe UI Emoji" font-size="20px" fill="#1e1e1e" text-anchor="middle" style="white-space: pre;" direction="ltr" dominant-baseline="alphabetic">T5</text></g><g stroke-linecap="round" transform="translate(593 34) rotate(0 50 17.5)"><path d="M8.75 0 C36.94 -1.2, 62.79 -0.12, 91.25 0 M8.75 0 C30.82 0.02, 50.41 0.06, 91.25 0 M91.25 0 C96.44 1.95, 100.17 1.86, 100 8.75 M91.25 0 C98.3 1.54, 98.1 4.52, 100 8.75 M100 8.75 C98.88 13.02, 101.13 21.9, 100 26.25 M100 8.75 C99.52 14.51, 99.55 19.96, 100 26.25 M100 26.25 C98.08 30.21, 97.1 34.26, 91.25 35 M100 26.25 C98.43 32.82, 98.47 36.57, 91.25 35 M91.25 35 C62.97 35.51, 34.79 35.52, 8.75 35 M91.25 35 C72.14 34.61, 53.69 35.41, 8.75 35 M8.75 35 C2.9 36.47, -0.81 30.25, 0 26.25 M8.75 35 C2.72 34.69, -0.85 30.93, 0 26.25 M0 26.25 C-0.39 18.86, 1.33 12.36, 0 8.75 M0 26.25 C0 23.13, -0.4 18.23, 0 8.75 M0 8.75 C-1.35 1.08, 3.73 -0.4, 8.75 0 M0 8.75 C-0.35 2.85, 5.06 0.73, 8.75 0" stroke="#1e1e1e" stroke-width="2" fill="none"></path></g><g transform="translate(595 41.90241347852239) rotate(0 48.53333282470703 9.548793260738805)"><text x="0" y="13.383588634251511" font-family="Virgil, Segoe UI Emoji" font-size="15.27806921718209px" fill="#1e1e1e" text-anchor="start" style="white-space: pre;" direction="ltr" dominant-baseline="alphabetic">0X00FAFAFA</text></g><g transform="translate(598 10) rotate(0 20.516666412353516 12.5)"><text x="0" y="17.52" font-family="Virgil, Segoe UI Emoji" font-size="20px" fill="#1e1e1e" text-anchor="start" style="white-space: pre;" direction="ltr" dominant-baseline="alphabetic">EDX</text></g><g stroke-linecap="round" transform="translate(83 250.54999999999995) rotate(0 38.5 13.474999999999994)"><path d="M6.74 0 C33.06 -1.29, 58.63 1.38, 70.26 0 M6.74 0 C26.77 -0.74, 45.72 0.19, 70.26 0 M70.26 0 C76.01 -0.56, 77.34 3.16, 77 6.74 M70.26 0 C74.58 -1.19, 74.83 0.78, 77 6.74 M77 6.74 C78.14 8.55, 76.3 13.12, 77 20.21 M77 6.74 C77.27 11.88, 76.69 17.14, 77 20.21 M77 20.21 C76.88 23.38, 73.61 25.48, 70.26 26.95 M77 20.21 C75.32 26.72, 73.54 28.78, 70.26 26.95 M70.26 26.95 C58.46 26.41, 42.43 27.74, 6.74 26.95 M70.26 26.95 C45.91 27.37, 19.76 27.54, 6.74 26.95 M6.74 26.95 C1.74 28.72, -1.93 24.44, 0 20.21 M6.74 26.95 C2.27 26.28, -2.08 25.89, 0 20.21 M0 20.21 C-0.49 16.92, 1.4 10.26, 0 6.74 M0 20.21 C0.03 17.01, -0.43 13.39, 0 6.74 M0 6.74 C0.53 0.93, 2.95 -0.48, 6.74 0 M0 6.74 C-0.35 1.75, 0.31 1.03, 6.74 0" stroke="#1e1e1e" stroke-width="2" fill="none"></path></g><g transform="translate(84.53999999999996 256.63485837846224) rotate(0 37.370666275024405 7.352570810768896)"><text x="0" y="10.305363248373663" font-family="Virgil, Segoe UI Emoji" font-size="11.764113297230207px" fill="#1e1e1e" text-anchor="start" style="white-space: pre;" direction="ltr" dominant-baseline="alphabetic">0X00FAFAFA</text></g><g transform="translate(86.85000000000002 232.07) rotate(0 15.797833137512214 9.625)"><text x="0" y="13.490400000000001" font-family="Virgil, Segoe UI Emoji" font-size="15.4px" fill="#1e1e1e" text-anchor="start" style="white-space: pre;" direction="ltr" dominant-baseline="alphabetic">EDX</text></g><g stroke-linecap="round" transform="translate(618 240.5) rotate(0 50 17.5)"><path d="M8.75 0 C42.43 1.6, 71.39 0.61, 91.25 0 M8.75 0 C35.9 -0.02, 63.23 0.82, 91.25 0 M91.25 0 C98.52 -0.05, 98.47 2.16, 100 8.75 M91.25 0 C97.93 1.31, 100.11 0.98, 100 8.75 M100 8.75 C98.85 14.25, 98.66 17.68, 100 26.25 M100 8.75 C99.56 12.77, 99.66 15.81, 100 26.25 M100 26.25 C99.78 32.59, 97.45 33.22, 91.25 35 M100 26.25 C101.68 32.11, 97.37 36.22, 91.25 35 M91.25 35 C69.57 35.54, 50.42 36.27, 8.75 35 M91.25 35 C68.1 35.13, 45.09 34.93, 8.75 35 M8.75 35 C1.93 35.51, -0.65 32.53, 0 26.25 M8.75 35 C4.93 34.55, -0.16 30.36, 0 26.25 M0 26.25 C1.24 19.03, -0.18 12.55, 0 8.75 M0 26.25 C0.52 22.62, -0.16 18.45, 0 8.75 M0 8.75 C-1.76 2.35, 2.37 1.78, 8.75 0 M0 8.75 C1.08 2.66, 2.84 -2.12, 8.75 0" stroke="#1e1e1e" stroke-width="2" fill="none"></path></g><g transform="translate(620 248.40241347852236) rotate(0 48.53333282470703 9.548793260738819)"><text x="0" y="13.383588634251511" font-family="Virgil, Segoe UI Emoji" font-size="15.27806921718209px" fill="#1e1e1e" text-anchor="start" style="white-space: pre;" direction="ltr" dominant-baseline="alphabetic">0X00FAFAFA</text></g><g transform="translate(623 216.5) rotate(0 20.516666412353516 12.5)"><text x="0" y="17.52" font-family="Virgil, Segoe UI Emoji" font-size="20px" fill="#1e1e1e" text-anchor="start" style="white-space: pre;" direction="ltr" dominant-baseline="alphabetic">EDX</text></g><g transform="translate(10 326) rotate(0 422.1166687011719 62.5)"><text x="0" y="17.52" font-family="Virgil, Segoe UI Emoji" font-size="20px" fill="#1e1e1e" text-anchor="start" style="white-space: pre;" direction="ltr" dominant-baseline="alphabetic">La idea es tomar el SCHED_NEXT_TASK mirar en la tss el valor de EDX, </text><text x="0" y="42.519999999999996" font-family="Virgil, Segoe UI Emoji" font-size="20px" fill="#1e1e1e" text-anchor="start" style="white-space: pre;" direction="ltr" dominant-baseline="alphabetic">- requisito de la tarea es que este RUNNABLE</text><text x="0" y="67.52" font-family="Virgil, Segoe UI Emoji" font-size="20px" fill="#1e1e1e" text-anchor="start" style="white-space: pre;" direction="ltr" dominant-baseline="alphabetic">si este valor esta, es prioritaria</text><text x="0" y="92.52" font-family="Virgil, Segoe UI Emoji" font-size="20px" fill="#1e1e1e" text-anchor="start" style="white-space: pre;" direction="ltr" dominant-baseline="alphabetic">entonces recorre la lista, la primer prioritaria, la devuelve (respetamos round robin), </text><text x="0" y="117.52" font-family="Virgil, Segoe UI Emoji" font-size="20px" fill="#1e1e1e" text-anchor="start" style="white-space: pre;" direction="ltr" dominant-baseline="alphabetic">si no hay ninguna prioritaria, SCHED_NEXT_TASK comun</text></g><g transform="translate(458.546875 476.9375) rotate(0 215 12.5)"><text x="0" y="17.52" font-family="Virgil, Segoe UI Emoji" font-size="20px" fill="#1e1e1e" text-anchor="start" style="white-space: pre;" direction="ltr" dominant-baseline="alphabetic">Donde esta el edx de la tarea prioritaria?</text></g><g transform="translate(523.359375 530.28125) rotate(0 224.9166717529297 37.5)"><text x="0" y="17.52" font-family="Virgil, Segoe UI Emoji" font-size="20px" fill="#1e1e1e" text-anchor="start" style="white-space: pre;" direction="ltr" dominant-baseline="alphabetic">El valor de EDX de la tss es el actual?</text><text x="0" y="42.519999999999996" font-family="Virgil, Segoe UI Emoji" font-size="20px" fill="#1e1e1e" text-anchor="start" style="white-space: pre;" direction="ltr" dominant-baseline="alphabetic">Recordar que la tarea lo cambia este valor </text><text x="0" y="67.52" font-family="Virgil, Segoe UI Emoji" font-size="20px" fill="#1e1e1e" text-anchor="start" style="white-space: pre;" direction="ltr" dominant-baseline="alphabetic">cuando deja de ser prioritaria</text></g><g stroke-linecap="round" transform="translate(147.359375 526.8828125) rotate(0 172.5 172.5)"><path d="M32 0 C133.28 1.55, 233.25 1.11, 313 0 M32 0 C119.41 -2.54, 208.13 -2.15, 313 0 M313 0 C335.8 1.16, 344.05 11.19, 345 32 M313 0 C335.44 1.92, 347.13 12.18, 345 32 M345 32 C344.91 105.23, 343.71 176.87, 345 313 M345 32 C344.05 119.59, 344.03 207.88, 345 313 M345 313 C344.48 332.98, 334.33 343.88, 313 345 M345 313 C345.26 333.45, 335.77 344.72, 313 345 M313 345 C222.83 344.51, 132.13 342.8, 32 345 M313 345 C228.26 344.94, 144.29 344.9, 32 345 M32 345 C8.95 346.52, 0.81 334.22, 0 313 M32 345 C11.9 344.96, 1.99 334.41, 0 313 M0 313 C0.65 243.2, 1.77 171.42, 0 32 M0 313 C-0.96 235.2, -0.26 158.4, 0 32 M0 32 C1.13 9.25, 12.45 -1.42, 32 0 M0 32 C-0.9 11.61, 11.59 0.8, 32 0" stroke="#1e1e1e" stroke-width="2" fill="none"></path></g><g transform="translate(305.64270877838135 686.8828125) rotate(0 14.216666221618652 12.5)"><text x="14.216666221618652" y="17.52" font-family="Virgil, Segoe UI Emoji" font-size="20px" fill="#1e1e1e" text-anchor="middle" style="white-space: pre;" direction="ltr" dominant-baseline="alphabetic">T5</text></g><g stroke-linecap="round" transform="translate(163.359375 821.28125) rotate(0 152.5 17.5)"><path d="M8.75 0 C74.32 -2.54, 138.37 -1.45, 296.25 0 M8.75 0 C112.98 1.63, 217.34 2.26, 296.25 0 M296.25 0 C302.52 0.87, 305.09 2.18, 305 8.75 M296.25 0 C300.26 2.2, 306.04 4.32, 305 8.75 M305 8.75 C305.45 12.38, 305.37 20.06, 305 26.25 M305 8.75 C305.48 14.39, 305.52 20.5, 305 26.25 M305 26.25 C303.9 32.74, 302.86 35.33, 296.25 35 M305 26.25 C306.71 32.06, 301.63 33.54, 296.25 35 M296.25 35 C182.4 33.19, 70.69 34.61, 8.75 35 M296.25 35 C201.04 37.12, 104.57 36.64, 8.75 35 M8.75 35 C1.91 34.84, -0.75 31.08, 0 26.25 M8.75 35 C0.66 33, -2.16 30.21, 0 26.25 M0 26.25 C-0.53 22.33, -0.73 14.64, 0 8.75 M0 26.25 C-0.57 19.31, -0.24 13.87, 0 8.75 M0 8.75 C0.13 2.6, 4.53 -0.82, 8.75 0 M0 8.75 C-0.91 1.71, 1.81 0.24, 8.75 0" stroke="#1e1e1e" stroke-width="2" fill="none"></path></g><g transform="translate(166.359375 532.78125) rotate(0 20.200000762939453 12.5)"><text x="0" y="17.52" font-family="Virgil, Segoe UI Emoji" font-size="20px" fill="#1e1e1e" text-anchor="start" style="white-space: pre;" direction="ltr" dominant-baseline="alphabetic">TSS</text></g><g transform="translate(175.359375 790.78125) rotate(0 20.516666412353516 12.5)"><text x="0" y="17.52" font-family="Virgil, Segoe UI Emoji" font-size="20px" fill="#1e1e1e" text-anchor="start" style="white-space: pre;" direction="ltr" dominant-baseline="alphabetic">EDX</text></g><g transform="translate(337.82604217529297 830.2324567392612) rotate(0 48.53333282470703 9.548793260738819)"><text x="0" y="13.383588634251511" font-family="Virgil, Segoe UI Emoji" font-size="15.27806921718209px" fill="#1e1e1e" text-anchor="start" style="white-space: pre;" direction="ltr" dominant-baseline="alphabetic">0X00FAFAFA</text></g><g transform="translate(552.75 653.8046875) rotate(0 321.23333740234375 62.5)"><text x="0" y="17.52" font-family="Virgil, Segoe UI Emoji" font-size="20px" fill="#1e1e1e" text-anchor="start" style="white-space: pre;" direction="ltr" dominant-baseline="alphabetic">Recordar que todo los que pase antes del jmp far se carga en </text><text x="0" y="42.519999999999996" font-family="Virgil, Segoe UI Emoji" font-size="20px" fill="#1e1e1e" text-anchor="start" style="white-space: pre;" direction="ltr" dominant-baseline="alphabetic">la TSS =&gt; el dato de EDX podria sufrir una modificacion, </text><text x="0" y="67.52" font-family="Virgil, Segoe UI Emoji" font-size="20px" fill="#1e1e1e" text-anchor="start" style="white-space: pre;" direction="ltr" dominant-baseline="alphabetic">lo que podemos mirar es el valor de tss.ss0 en la pila y </text><text x="0" y="92.52" font-family="Virgil, Segoe UI Emoji" font-size="20px" fill="#1e1e1e" text-anchor="start" style="white-space: pre;" direction="ltr" dominant-baseline="alphabetic">buscar alli el EDX</text><text x="0" y="117.52" font-family="Virgil, Segoe UI Emoji" font-size="20px" fill="#1e1e1e" text-anchor="start" style="white-space: pre;" direction="ltr" dominant-baseline="alphabetic"></text></g></svg>