<svg version="1.1" xmlns="http://www.w3.org/2000/svg" viewBox="0 0 1840.6239624023438 510" width="3681.2479248046875" height="1020">
  <!-- svg-source:excalidraw -->
  
  <defs>
    <style class="style-fonts">
      @font-face {
        font-family: "Virgil";
        src: url("https://excalidraw.com/Virgil.woff2");
      }
      @font-face {
        font-family: "Cascadia";
        src: url("https://excalidraw.com/Cascadia.woff2");
      }
      @font-face {
        font-family: "Assistant";
        src: url("https://excalidraw.com/Assistant-Regular.woff2");
      }
    </style>
    
  </defs>
  <rect x="0" y="0" width="1840.6239624023438" height="510" fill="#ffffff"></rect><g stroke-linecap="round" transform="translate(10 45.410138248847915) rotate(0 79.67281105990781 208.29493087557603)"><path d="M32 0 C55.48 1.93, 79.66 -0.78, 127.35 0 M32 0 C62.47 0.18, 94.17 0.29, 127.35 0 M127.35 0 C146.96 -1.05, 161.12 12.55, 159.35 32 M127.35 0 C147.68 0.53, 157.17 11.8, 159.35 32 M159.35 32 C158.34 126.77, 158.57 220, 159.35 384.59 M159.35 32 C158.62 167.34, 158.81 302.96, 159.35 384.59 M159.35 384.59 C159.26 407.07, 149.06 416.29, 127.35 416.59 M159.35 384.59 C157.48 407.08, 150.74 414.81, 127.35 416.59 M127.35 416.59 C97.13 417.33, 68.91 418.03, 32 416.59 M127.35 416.59 C105.82 416.15, 86.55 415.84, 32 416.59 M32 416.59 C8.77 416.6, 0.9 406.6, 0 384.59 M32 416.59 C11.2 417.41, -0.44 405.61, 0 384.59 M0 384.59 C-1.77 292.2, -1.05 198.56, 0 32 M0 384.59 C0.82 304.8, 1.46 226.29, 0 32 M0 32 C0.69 9.08, 10.87 0.34, 32 0 M0 32 C-1.32 8.56, 12.19 0.94, 32 0" stroke="#1e1e1e" stroke-width="2" fill="none"></path></g><g stroke-linecap="round" transform="translate(16.248847926267274 81.86175115207374) rotate(0 73.94470046082947 29.16129032258064)"><path d="M14.58 0 C40.98 0.45, 65.4 -0.03, 133.31 0 M14.58 0 C52.87 1.5, 89.35 0.15, 133.31 0 M133.31 0 C142.94 0.85, 146.29 5.8, 147.89 14.58 M133.31 0 C144.4 -0.51, 149.29 3.98, 147.89 14.58 M147.89 14.58 C147.46 20.52, 149.16 31.96, 147.89 43.74 M147.89 14.58 C147.47 20.11, 147.46 28.37, 147.89 43.74 M147.89 43.74 C147.03 52.73, 143.97 57.24, 133.31 58.32 M147.89 43.74 C145.73 53.39, 142.38 58.55, 133.31 58.32 M133.31 58.32 C107.87 59.2, 80.57 58.7, 14.58 58.32 M133.31 58.32 C108.87 58.1, 83.17 58.23, 14.58 58.32 M14.58 58.32 C6.41 58.98, -0.5 54.73, 0 43.74 M14.58 58.32 C5.63 56.43, 0.64 53.76, 0 43.74 M0 43.74 C1.25 33.52, -1.35 24.99, 0 14.58 M0 43.74 C-0.6 33.29, -0.77 20.48, 0 14.58 M0 14.58 C1.8 4.06, 4.35 1.07, 14.58 0 M0 14.58 C0.75 6.24, 3 1.72, 14.58 0" stroke="#1e1e1e" stroke-width="2" fill="none"></path></g><g stroke-linecap="round" transform="translate(17.29032258064518 165.1797235023041) rotate(0 73.94470046082947 29.16129032258064)"><path d="M14.58 0 C42.99 1.08, 69.45 -0.31, 133.31 0 M14.58 0 C62.67 0.09, 108.71 1.02, 133.31 0 M133.31 0 C143.68 1.2, 146.28 6.35, 147.89 14.58 M133.31 0 C142.73 1.71, 147.4 3.09, 147.89 14.58 M147.89 14.58 C149.75 20.28, 148.65 27.1, 147.89 43.74 M147.89 14.58 C147.97 25.85, 147.8 37.45, 147.89 43.74 M147.89 43.74 C147.26 55.38, 143.15 57.47, 133.31 58.32 M147.89 43.74 C146.02 55.38, 141.56 56.26, 133.31 58.32 M133.31 58.32 C98.01 59.38, 62.16 60.44, 14.58 58.32 M133.31 58.32 C101.54 58.72, 68.02 58.55, 14.58 58.32 M14.58 58.32 C3.12 58.72, 0.97 54.5, 0 43.74 M14.58 58.32 C5.4 56.26, 2.23 52.56, 0 43.74 M0 43.74 C1.26 34.34, 0.53 23.67, 0 14.58 M0 43.74 C-0.85 35.3, -0.77 24.35, 0 14.58 M0 14.58 C1.52 3.19, 3.61 -1.1, 14.58 0 M0 14.58 C1.26 4.02, 6.25 0.52, 14.58 0" stroke="#1e1e1e" stroke-width="2" fill="none"></path></g><g stroke-linecap="round" transform="translate(16.248847926267274 238.08294930875576) rotate(0 73.94470046082947 29.16129032258064)"><path d="M14.58 0 C60.51 1.46, 104.47 1.77, 133.31 0 M14.58 0 C51.54 0.58, 89.46 -1.07, 133.31 0 M133.31 0 C144.55 -1.67, 146.64 3.76, 147.89 14.58 M133.31 0 C144.28 -0.84, 149.28 5.38, 147.89 14.58 M147.89 14.58 C147.57 22.15, 149.93 31.42, 147.89 43.74 M147.89 14.58 C147.15 21.49, 146.84 27.26, 147.89 43.74 M147.89 43.74 C146.6 52.06, 143.58 58.12, 133.31 58.32 M147.89 43.74 C148.44 51.7, 144.77 58.83, 133.31 58.32 M133.31 58.32 C103.01 59.24, 75.36 59.03, 14.58 58.32 M133.31 58.32 C102.68 57.57, 70.39 57.62, 14.58 58.32 M14.58 58.32 C4.28 58.96, 1.33 54.93, 0 43.74 M14.58 58.32 C3.24 56.26, -0.62 54.23, 0 43.74 M0 43.74 C1.94 35.39, 0.53 23.55, 0 14.58 M0 43.74 C-0.97 33.37, 0.22 23.43, 0 14.58 M0 14.58 C-0.17 4.68, 3.41 -0.3, 14.58 0 M0 14.58 C2.05 6.11, 7.07 1.01, 14.58 0" stroke="#1e1e1e" stroke-width="2" fill="none"></path></g><g transform="translate(20.41474654377879 10) rotate(0 33.84792626728111 13.018433179723502)"><text x="0" y="18.24663594470046" font-family="Virgil, Segoe UI Emoji" font-size="20.8294930875576px" fill="#1e1e1e" text-anchor="start" style="white-space: pre;" direction="ltr" dominant-baseline="alphabetic">syscall</text></g><g transform="translate(46.451612903225794 83.9447004608295) rotate(0 46.34562211981566 26.036866359447004)"><text x="0" y="18.24663594470046" font-family="Virgil, Segoe UI Emoji" font-size="20.8294930875576px" fill="#1e1e1e" text-anchor="start" style="white-space: pre;" direction="ltr" dominant-baseline="alphabetic">selector </text><text x="0" y="44.28350230414746" font-family="Virgil, Segoe UI Emoji" font-size="20.8294930875576px" fill="#1e1e1e" text-anchor="start" style="white-space: pre;" direction="ltr" dominant-baseline="alphabetic">espiada</text></g><g transform="translate(23.539170506912455 170.38709677419354) rotate(0 70.28217755155077 26.036866359447004)"><text x="0" y="18.24663594470046" font-family="Virgil, Segoe UI Emoji" font-size="20.8294930875576px" fill="#1e1e1e" text-anchor="start" style="white-space: pre;" direction="ltr" dominant-baseline="alphabetic">virt a leer </text><text x="0" y="44.28350230414746" font-family="Virgil, Segoe UI Emoji" font-size="20.8294930875576px" fill="#1e1e1e" text-anchor="start" style="white-space: pre;" direction="ltr" dominant-baseline="alphabetic">de la espiada</text></g><g transform="translate(20.952845489923845 243.29032258064512) rotate(0 76.02764976958522 26.036866359447004)"><text x="0" y="18.24663594470046" font-family="Virgil, Segoe UI Emoji" font-size="20.8294930875576px" fill="#1e1e1e" text-anchor="start" style="white-space: pre;" direction="ltr" dominant-baseline="alphabetic">virt a escribir </text><text x="0" y="44.28350230414746" font-family="Virgil, Segoe UI Emoji" font-size="20.8294930875576px" fill="#1e1e1e" text-anchor="start" style="white-space: pre;" direction="ltr" dominant-baseline="alphabetic">de la espia</text></g><g stroke-linecap="round"><g transform="translate(167 110) rotate(0 53.5 -3)"><path d="M0.49 -0.36 C18.36 -1.06, 90.42 -4.21, 108.1 -5.09 M-0.71 -1.59 C17.02 -2.54, 90.02 -5.71, 107.73 -6.73" stroke="#1e1e1e" stroke-width="2" fill="none"></path></g><g transform="translate(167 110) rotate(0 53.5 -3)"><path d="M84.69 2.97 C92.74 1.1, 103.43 -5.12, 107.73 -6.73 M84.69 2.97 C92.26 -0.88, 99.2 -3.19, 107.73 -6.73" stroke="#1e1e1e" stroke-width="2" fill="none"></path></g><g transform="translate(167 110) rotate(0 53.5 -3)"><path d="M83.84 -14.11 C92.08 -9.63, 103.09 -9.49, 107.73 -6.73 M83.84 -14.11 C91.63 -12.24, 98.85 -8.84, 107.73 -6.73" stroke="#1e1e1e" stroke-width="2" fill="none"></path></g></g><mask></mask><g stroke-linecap="round"><g transform="translate(170.30790778937285 272.5418814407801) rotate(0 53.5 -3)"><path d="M-0.4 0.43 C17.37 -0.54, 88.3 -4.41, 106.25 -5.68 M1.59 -0.39 C19.78 -1.75, 91.05 -6.62, 108.56 -7.63" stroke="#1e1e1e" stroke-width="2" fill="none"></path></g><g transform="translate(170.30790778937285 272.5418814407801) rotate(0 53.5 -3)"><path d="M85.66 2.4 C92.52 -1.47, 98.48 -2.43, 108.56 -7.63 M85.66 2.4 C90.02 -0.52, 95.55 -1.1, 108.56 -7.63" stroke="#1e1e1e" stroke-width="2" fill="none"></path></g><g transform="translate(170.30790778937285 272.5418814407801) rotate(0 53.5 -3)"><path d="M84.57 -14.66 C91.74 -13.95, 97.99 -10.33, 108.56 -7.63 M84.57 -14.66 C89.23 -14.11, 94.97 -11.2, 108.56 -7.63" stroke="#1e1e1e" stroke-width="2" fill="none"></path></g></g><mask></mask><g stroke-linecap="round"><g transform="translate(170.30790778937285 194.54188144078017) rotate(0 53.5 -3)"><path d="M-1.15 0.5 C16.82 -0.6, 90.24 -5.36, 108.13 -6.33 M0.45 -0.28 C18.33 -1.24, 89.74 -3.8, 107.78 -4.97" stroke="#1e1e1e" stroke-width="2" fill="none"></path></g><g transform="translate(170.30790778937285 194.54188144078017) rotate(0 53.5 -3)"><path d="M84.73 4.71 C93.07 3.65, 99.22 -2.71, 107.78 -4.97 M84.73 4.71 C92.04 0.15, 100.62 -3.37, 107.78 -4.97" stroke="#1e1e1e" stroke-width="2" fill="none"></path></g><g transform="translate(170.30790778937285 194.54188144078017) rotate(0 53.5 -3)"><path d="M83.9 -12.37 C92.55 -7.84, 98.97 -8.62, 107.78 -4.97 M83.9 -12.37 C91.64 -10.85, 100.52 -8.28, 107.78 -4.97" stroke="#1e1e1e" stroke-width="2" fill="none"></path></g></g><mask></mask><g transform="translate(288 87) rotate(0 19.28333282470703 12.5)"><text x="0" y="17.52" font-family="Virgil, Segoe UI Emoji" font-size="20px" fill="#1e1e1e" text-anchor="start" style="white-space: pre;" direction="ltr" dominant-baseline="alphabetic">EAX</text></g><g transform="translate(290.71666717529297 173.5) rotate(0 20.516666412353516 12.5)"><text x="0" y="17.52" font-family="Virgil, Segoe UI Emoji" font-size="20px" fill="#1e1e1e" text-anchor="start" style="white-space: pre;" direction="ltr" dominant-baseline="alphabetic">EDX</text></g><g transform="translate(291.71666717529297 251.5) rotate(0 19.149999618530273 12.5)"><text x="0" y="17.52" font-family="Virgil, Segoe UI Emoji" font-size="20px" fill="#1e1e1e" text-anchor="start" style="white-space: pre;" direction="ltr" dominant-baseline="alphabetic">ECX</text></g><g stroke-linecap="round"><g transform="translate(159 80) rotate(0 153 -30.5)"><path d="M-0.85 0.92 C17.93 -9.16, 61.78 -53.56, 112.86 -61.23 C163.94 -68.89, 273.29 -47.69, 305.63 -45.09 M0.91 0.36 C19.58 -9.47, 61.74 -51.92, 112.36 -59.81 C162.99 -67.69, 272.13 -49.54, 304.66 -46.95" stroke="#1e1e1e" stroke-width="2" fill="none"></path></g><g transform="translate(159 80) rotate(0 153 -30.5)"><path d="M280.34 -41.18 C289.61 -41.4, 295.4 -45.29, 304.66 -46.95 M280.34 -41.18 C289.05 -42.74, 298.13 -45.32, 304.66 -46.95" stroke="#1e1e1e" stroke-width="2" fill="none"></path></g><g transform="translate(159 80) rotate(0 153 -30.5)"><path d="M282.32 -58.17 C290.86 -53.02, 296.02 -51.53, 304.66 -46.95 M282.32 -58.17 C290.4 -53.33, 298.75 -49.52, 304.66 -46.95" stroke="#1e1e1e" stroke-width="2" fill="none"></path></g></g><mask></mask><g stroke-linecap="round" transform="translate(491 31) rotate(0 96 38)"><path d="M19 0 C63.98 0.44, 105.11 -1.01, 173 0 M19 0 C63.61 -0.18, 110.68 0.62, 173 0 M173 0 C185.74 -0.07, 190.35 4.94, 192 19 M173 0 C186.05 1.01, 191.59 5.48, 192 19 M192 19 C190.06 31.19, 193.04 42.79, 192 57 M192 19 C191.48 31.2, 192.99 45.06, 192 57 M192 57 C190.12 71.27, 184.82 74.81, 173 76 M192 57 C189.8 69.72, 185.84 73.74, 173 76 M173 76 C138.95 77, 106.91 78.1, 19 76 M173 76 C132.73 76.82, 94.18 77.13, 19 76 M19 76 C7.02 74.68, 0.65 68.54, 0 57 M19 76 C6.05 76.49, 2.22 68.72, 0 57 M0 57 C1.41 47.27, 0.55 35.23, 0 19 M0 57 C0.17 45.98, 0.73 35.16, 0 19 M0 19 C-0.12 6.87, 6.47 0.3, 19 0 M0 19 C-2.11 5.51, 6.02 -0.79, 19 0" stroke="#1e1e1e" stroke-width="2" fill="none"></path></g><g transform="translate(522 58) rotate(0 62.233333587646484 12.5)"><text x="0" y="17.52" font-family="Virgil, Segoe UI Emoji" font-size="20px" fill="#1e1e1e" text-anchor="start" style="white-space: pre;" direction="ltr" dominant-baseline="alphabetic">TSS espiada</text></g><g stroke-linecap="round"><g transform="translate(702 65) rotate(0 37 0.5)"><path d="M-1.19 -0.56 C11.02 -0.37, 60.95 0.23, 73.54 0.6 M0.39 1.77 C12.37 2.17, 60.12 2.27, 72.35 1.93" stroke="#1e1e1e" stroke-width="2" fill="none"></path></g><g transform="translate(702 65) rotate(0 37 0.5)"><path d="M48.95 10.72 C55.72 7.31, 63.63 5.82, 72.35 1.93 M48.95 10.72 C58.05 7.94, 65.16 4.15, 72.35 1.93" stroke="#1e1e1e" stroke-width="2" fill="none"></path></g><g transform="translate(702 65) rotate(0 37 0.5)"><path d="M48.77 -6.38 C55.52 -4.19, 63.5 -0.1, 72.35 1.93 M48.77 -6.38 C57.78 -3.04, 64.95 -0.71, 72.35 1.93" stroke="#1e1e1e" stroke-width="2" fill="none"></path></g></g><mask></mask><g transform="translate(784 40) rotate(0 161.1999969482422 25)"><text x="0" y="17.52" font-family="Virgil, Segoe UI Emoji" font-size="20px" fill="#1e1e1e" text-anchor="start" style="white-space: pre;" direction="ltr" dominant-baseline="alphabetic">CR3 de la espiada para ver su </text><text x="0" y="42.519999999999996" font-family="Virgil, Segoe UI Emoji" font-size="20px" fill="#1e1e1e" text-anchor="start" style="white-space: pre;" direction="ltr" dominant-baseline="alphabetic">PAGE DIRECTORY</text></g><g stroke-linecap="round"><g transform="translate(879 110) rotate(0 1.5 27)"><path d="M-0.04 0.54 C0.61 9.3, 3.3 44.32, 4 53.27 M-1.51 -0.22 C-0.95 8.62, 2.66 45.11, 3.57 54.43" stroke="#1e1e1e" stroke-width="2" fill="none"></path></g><g transform="translate(879 110) rotate(0 1.5 27)"><path d="M-7.22 31.88 C-2.84 40.52, -1.62 47.7, 3.57 54.43 M-7.22 31.88 C-2.71 39.53, 0.87 45.87, 3.57 54.43" stroke="#1e1e1e" stroke-width="2" fill="none"></path></g><g transform="translate(879 110) rotate(0 1.5 27)"><path d="M9.8 30.21 C8.92 39.36, 4.87 47.06, 3.57 54.43 M9.8 30.21 C8.89 38.41, 7.03 45.27, 3.57 54.43" stroke="#1e1e1e" stroke-width="2" fill="none"></path></g></g><mask></mask><g transform="translate(784 181) rotate(0 159.5833282470703 25)"><text x="0" y="17.52" font-family="Virgil, Segoe UI Emoji" font-size="20px" fill="#1e1e1e" text-anchor="start" style="white-space: pre;" direction="ltr" dominant-baseline="alphabetic">Como tengo la virtual a leer .. </text><text x="0" y="42.519999999999996" font-family="Virgil, Segoe UI Emoji" font-size="20px" fill="#1e1e1e" text-anchor="start" style="white-space: pre;" direction="ltr" dominant-baseline="alphabetic">golazo, me fijo si esta mapeada</text></g><g stroke-linecap="round"><g transform="translate(898 266) rotate(0 -26.5 37.5)"><path d="M-0.17 1.05 C-9.08 13.76, -45.49 63.77, -54.19 75.92 M-1.71 0.55 C-10.21 12.96, -43.58 61.91, -52.1 74.29" stroke="#1e1e1e" stroke-width="2" fill="none"></path></g><g transform="translate(898 266) rotate(0 -26.5 37.5)"><path d="M-45.89 50.07 C-45.7 53.91, -47.4 62.76, -52.1 74.29 M-45.89 50.07 C-48.19 54.68, -49.25 60.83, -52.1 74.29" stroke="#1e1e1e" stroke-width="2" fill="none"></path></g><g transform="translate(898 266) rotate(0 -26.5 37.5)"><path d="M-31.77 59.73 C-34.96 61.23, -40.05 67.75, -52.1 74.29 M-31.77 59.73 C-37.14 62.32, -41.26 66.38, -52.1 74.29" stroke="#1e1e1e" stroke-width="2" fill="none"></path></g></g><mask></mask><g stroke-linecap="round"><g transform="translate(932 265) rotate(0 50.5 37)"><path d="M-0.05 0.36 C16.61 12.75, 84.19 61.94, 100.96 74.27 M-1.53 -0.5 C14.88 11.51, 83.14 60.17, 99.98 72.3" stroke="#1e1e1e" stroke-width="2" fill="none"></path></g><g transform="translate(932 265) rotate(0 50.5 37)"><path d="M75.91 65.57 C85.68 68.07, 94.72 69.97, 99.98 72.3 M75.91 65.57 C84.61 67.33, 91.43 70.52, 99.98 72.3" stroke="#1e1e1e" stroke-width="2" fill="none"></path></g><g transform="translate(932 265) rotate(0 50.5 37)"><path d="M85.86 51.67 C91.84 59.46, 97.08 66.66, 99.98 72.3 M85.86 51.67 C91.16 57.99, 94.66 65.8, 99.98 72.3" stroke="#1e1e1e" stroke-width="2" fill="none"></path></g></g><mask></mask><g transform="translate(828 278) rotate(0 11.533333778381348 12.5)"><text x="0" y="17.52" font-family="Virgil, Segoe UI Emoji" font-size="20px" fill="#1e1e1e" text-anchor="start" style="white-space: pre;" direction="ltr" dominant-baseline="alphabetic">SI</text></g><g transform="translate(1000.4666662216187 267.5) rotate(0 13.699999809265137 12.5)"><text x="0" y="17.52" font-family="Virgil, Segoe UI Emoji" font-size="20px" fill="#1e1e1e" text-anchor="start" style="white-space: pre;" direction="ltr" dominant-baseline="alphabetic">NO</text></g><g transform="translate(749 358) rotate(0 97.44999694824219 12.5)"><text x="0" y="17.52" font-family="Virgil, Segoe UI Emoji" font-size="20px" fill="#1e1e1e" text-anchor="start" style="white-space: pre;" direction="ltr" dominant-baseline="alphabetic">HAGO LA LECTURA</text></g><g stroke-linecap="round"><g transform="translate(839 387) rotate(0 -57.5 32)"><path d="M-0.9 -0.86 C-6.12 4.91, -11.8 24.96, -30.68 35.68 C-49.57 46.4, -100.16 58.69, -114.21 63.45 M0.82 1.31 C-4.58 7.24, -12.23 23.39, -31.46 33.92 C-50.69 44.44, -100.68 59.21, -114.56 64.48" stroke="#1e1e1e" stroke-width="2" fill="none"></path></g><g transform="translate(839 387) rotate(0 -57.5 32)"><path d="M-95.06 48.83 C-103.2 54.72, -107.49 61, -114.56 64.48 M-95.06 48.83 C-99.53 53.65, -104.14 57.34, -114.56 64.48" stroke="#1e1e1e" stroke-width="2" fill="none"></path></g><g transform="translate(839 387) rotate(0 -57.5 32)"><path d="M-89.57 65.03 C-99.78 65.18, -106 65.77, -114.56 64.48 M-89.57 65.03 C-95.44 65.74, -101.44 65.31, -114.56 64.48" stroke="#1e1e1e" stroke-width="2" fill="none"></path></g></g><mask></mask><g transform="translate(275 350) rotate(0 179.3333282470703 75)"><text x="0" y="17.52" font-family="Virgil, Segoe UI Emoji" font-size="20px" fill="#1e1e1e" text-anchor="start" style="white-space: pre;" direction="ltr" dominant-baseline="alphabetic">La guardo en algun lado para poder</text><text x="0" y="42.519999999999996" font-family="Virgil, Segoe UI Emoji" font-size="20px" fill="#1e1e1e" text-anchor="start" style="white-space: pre;" direction="ltr" dominant-baseline="alphabetic">pasarsela a TAREA ESPIA </text><text x="0" y="67.52" font-family="Virgil, Segoe UI Emoji" font-size="20px" fill="#1e1e1e" text-anchor="start" style="white-space: pre;" direction="ltr" dominant-baseline="alphabetic">( ver bien tema contexto y eso ...)</text><text x="0" y="92.52" font-family="Virgil, Segoe UI Emoji" font-size="20px" fill="#1e1e1e" text-anchor="start" style="white-space: pre;" direction="ltr" dominant-baseline="alphabetic">MOV [ECX], (REG con la lectura)</text><text x="0" y="117.52" font-family="Virgil, Segoe UI Emoji" font-size="20px" fill="#1e1e1e" text-anchor="start" style="white-space: pre;" direction="ltr" dominant-baseline="alphabetic"></text><text x="0" y="142.52" font-family="Virgil, Segoe UI Emoji" font-size="20px" fill="#1e1e1e" text-anchor="start" style="white-space: pre;" direction="ltr" dominant-baseline="alphabetic">Return 0 (lectura valida)</text></g><g transform="translate(1044.53125 352) rotate(0 104.33333587646484 25)"><text x="0" y="17.52" font-family="Virgil, Segoe UI Emoji" font-size="20px" fill="#1e1e1e" text-anchor="start" style="white-space: pre;" direction="ltr" dominant-baseline="alphabetic">Al no estar mapeada</text><text x="0" y="42.519999999999996" font-family="Virgil, Segoe UI Emoji" font-size="20px" fill="#1e1e1e" text-anchor="start" style="white-space: pre;" direction="ltr" dominant-baseline="alphabetic">PONEMOS -1 EN EAX</text></g><g stroke-linecap="round"><g transform="translate(354.53125 188) rotate(0 195.5 9)"><path d="M-0.01 -0.16 C65.19 2.9, 325.64 15.04, 390.81 18.15 M-1.48 -1.28 C63.58 2, 324.47 16.81, 389.76 19.76" stroke="#1e1e1e" stroke-width="2" fill="none"></path></g><g transform="translate(354.53125 188) rotate(0 195.5 9)"><path d="M365.86 27.09 C371.99 24.81, 378.89 23.21, 389.76 19.76 M365.86 27.09 C373.24 23.7, 382.83 22.93, 389.76 19.76" stroke="#1e1e1e" stroke-width="2" fill="none"></path></g><g transform="translate(354.53125 188) rotate(0 195.5 9)"><path d="M366.74 10.01 C372.62 12.3, 379.28 15.26, 389.76 19.76 M366.74 10.01 C373.72 12.45, 383.01 17.51, 389.76 19.76" stroke="#1e1e1e" stroke-width="2" fill="none"></path></g></g><mask></mask><g stroke-linecap="round"><g transform="translate(303.59375 297.015625) rotate(0 -54.5 90.13691505767918)"><path d="M-0.92 1.17 C-18.9 16.67, -100.45 63.47, -108.56 93.46 C-116.67 123.45, -59.12 166.54, -49.56 181.11 M0.8 0.74 C-17.24 15.83, -100.79 61.84, -109.27 91.58 C-117.76 121.32, -59.72 164.7, -50.09 179.21" stroke="#1e1e1e" stroke-width="2" fill="none"></path></g><g transform="translate(303.59375 297.015625) rotate(0 -54.5 90.13691505767918)"><path d="M-72.44 168.01 C-64.94 171.68, -60.62 174.44, -50.09 179.21 M-72.44 168.01 C-64.92 173, -55.46 176, -50.09 179.21" stroke="#1e1e1e" stroke-width="2" fill="none"></path></g><g transform="translate(303.59375 297.015625) rotate(0 -54.5 90.13691505767918)"><path d="M-60.02 156.26 C-55.53 162.73, -54.27 168.38, -50.09 179.21 M-60.02 156.26 C-57.2 165.65, -52.34 173, -50.09 179.21" stroke="#1e1e1e" stroke-width="2" fill="none"></path></g></g><mask></mask><g stroke-linecap="round"><g transform="translate(1120.890625 179.3515625) rotate(0 86.5 -27.5)"><path d="M0.68 -1.04 C29.2 -10.27, 143.26 -46.49, 171.81 -55.44 M-0.43 1.03 C28.39 -8.03, 144.77 -45.08, 173.89 -54.13" stroke="#1e1e1e" stroke-width="2" fill="none"></path></g><g transform="translate(1120.890625 179.3515625) rotate(0 86.5 -27.5)"><path d="M154.05 -38.91 C159.33 -46.38, 167.34 -51.51, 173.89 -54.13 M154.05 -38.91 C161.34 -43.85, 167.74 -48.24, 173.89 -54.13" stroke="#1e1e1e" stroke-width="2" fill="none"></path></g><g transform="translate(1120.890625 179.3515625) rotate(0 86.5 -27.5)"><path d="M148.92 -55.22 C156 -56.97, 165.82 -56.33, 173.89 -54.13 M148.92 -55.22 C158.02 -54.86, 166.08 -53.96, 173.89 -54.13" stroke="#1e1e1e" stroke-width="2" fill="none"></path></g></g><mask></mask><g transform="translate(1186.890625 107.3515625) rotate(0 28.5 12.5)"><text x="0" y="17.52" font-family="Virgil, Segoe UI Emoji" font-size="20px" fill="#1e1e1e" text-anchor="start" style="white-space: pre;" direction="ltr" dominant-baseline="alphabetic">Como?</text></g><g transform="translate(1329.890625 104.3515625) rotate(0 250.36666870117188 50)"><text x="0" y="17.52" font-family="Virgil, Segoe UI Emoji" font-size="20px" fill="#1e1e1e" text-anchor="start" style="white-space: pre;" direction="ltr" dominant-baseline="alphabetic">Miramos en el directorio [offset_dir] </text><text x="0" y="42.519999999999996" font-family="Virgil, Segoe UI Emoji" font-size="20px" fill="#1e1e1e" text-anchor="start" style="white-space: pre;" direction="ltr" dominant-baseline="alphabetic">Luego en la Page_table[ offset_table]</text><text x="0" y="67.52" font-family="Virgil, Segoe UI Emoji" font-size="20px" fill="#1e1e1e" text-anchor="start" style="white-space: pre;" direction="ltr" dominant-baseline="alphabetic">Si encontramos esta entrada y tiene MMU_P == 1</text><text x="0" y="92.52" font-family="Virgil, Segoe UI Emoji" font-size="20px" fill="#1e1e1e" text-anchor="start" style="white-space: pre;" direction="ltr" dominant-baseline="alphabetic">=&gt; esta pagina esta mapeada</text></g><g stroke-linecap="round"><g transform="translate(1293.890625 212.3515625) rotate(0 -86 4.5)"><path d="M0.08 0.24 C-28.7 1.79, -143.51 7.5, -172.06 9 M-1.34 -0.67 C-30.33 1.11, -144.67 8.64, -173.04 10.54" stroke="#1e1e1e" stroke-width="2" fill="none"></path></g><g transform="translate(1293.890625 212.3515625) rotate(0 -86 4.5)"><path d="M-150.17 0.45 C-157.82 3.91, -166.26 8.89, -173.04 10.54 M-150.17 0.45 C-158.65 4.76, -164.23 7.41, -173.04 10.54" stroke="#1e1e1e" stroke-width="2" fill="none"></path></g><g transform="translate(1293.890625 212.3515625) rotate(0 -86 4.5)"><path d="M-149.03 17.52 C-157.04 14.98, -165.88 13.97, -173.04 10.54 M-149.03 17.52 C-157.72 16.31, -163.67 13.43, -173.04 10.54" stroke="#1e1e1e" stroke-width="2" fill="none"></path></g></g><mask></mask><g transform="translate(338.703125 89) rotate(0 45.766666412353516 12.5)"><text x="0" y="17.52" font-family="Virgil, Segoe UI Emoji" font-size="20px" fill="#1e1e1e" text-anchor="start" style="white-space: pre;" direction="ltr" dominant-baseline="alphabetic">(VALIDO)</text></g><g transform="translate(343.9364585876465 254.5) rotate(0 45.766666412353516 12.5)"><text x="0" y="17.52" font-family="Virgil, Segoe UI Emoji" font-size="20px" fill="#1e1e1e" text-anchor="start" style="white-space: pre;" direction="ltr" dominant-baseline="alphabetic">(VALIDO)</text></g></svg>