<svg version="1.1" xmlns="http://www.w3.org/2000/svg" viewBox="0 0 1931.4530346563313 1452.9883504539691" width="3862.9060693126626" height="2905.9767009079383">
  <!-- svg-source:excalidraw -->
  
  <defs>
    <style class="style-fonts">
      @font-face {
        font-family: "Virgil";
        src: url("https://excalidraw.com/Virgil.woff2");
      }
      @font-face {
        font-family: "Cascadia";
        src: url("https://excalidraw.com/Cascadia.woff2");
      }
      @font-face {
        font-family: "Assistant";
        src: url("https://excalidraw.com/Assistant-Regular.woff2");
      }
    </style>
    
  </defs>
  <rect x="0" y="0" width="1931.4530346563313" height="1452.9883504539691" fill="#ffffff"></rect><g stroke-linecap="round" transform="translate(117.80632613314253 58.747208338464134) rotate(0 230.6117932935051 121.86802084616136)"><path d="M32 0 C178.09 2.3, 323.98 1.37, 429.22 0 M32 0 C167.35 -1.57, 303.24 -0.57, 429.22 0 M429.22 0 C450.24 0.41, 463.09 8.73, 461.22 32 M429.22 0 C449.31 1.7, 463.07 9.29, 461.22 32 M461.22 32 C458.19 78.78, 460.13 125.21, 461.22 211.74 M461.22 32 C460.79 69.8, 459.11 106.09, 461.22 211.74 M461.22 211.74 C460.27 233.25, 450.44 242.99, 429.22 243.74 M461.22 211.74 C462.45 234.24, 452.85 244.47, 429.22 243.74 M429.22 243.74 C307.85 246.48, 185.18 245.28, 32 243.74 M429.22 243.74 C291.5 244.39, 153.71 244.89, 32 243.74 M32 243.74 C12.59 244.71, -1.24 232.25, 0 211.74 M32 243.74 C10.42 245.08, 1.07 232.26, 0 211.74 M0 211.74 C0.13 158.33, 2.44 107.66, 0 32 M0 211.74 C1.66 167.78, 0.43 123.49, 0 32 M0 32 C1.27 8.94, 9.4 0.21, 32 0 M0 32 C1.43 9.05, 11.95 1.22, 32 0" stroke="#f08c00" stroke-width="2" fill="none"></path></g><g transform="translate(144.05482293077773 90.62038302130645) rotate(0 188.5 17.5)"><text x="0" y="24.528" font-family="Virgil, Segoe UI Emoji" font-size="28px" fill="#f08c00" text-anchor="start" style="white-space: pre;" direction="ltr" dominant-baseline="alphabetic">#col_lado_largo (uint8_t)</text></g><g transform="translate(142.17048160179354 161.24033655622316) rotate(0 98 17.5)"><text x="0" y="24.528" font-family="Virgil, Segoe UI Emoji" font-size="28px" fill="#f08c00" text-anchor="start" style="white-space: pre;" direction="ltr" dominant-baseline="alphabetic">nombre (char*)</text></g><g transform="translate(146.79387102783073 230.61136380711514) rotate(0 191.1666717529297 17.5)"><text x="0" y="24.528" font-family="Virgil, Segoe UI Emoji" font-size="28px" fill="#f08c00" text-anchor="start" style="white-space: pre;" direction="ltr" dominant-baseline="alphabetic">#col_lado_corto (uint8_t)</text></g><g transform="translate(168.4284271000099 10) rotate(0 59.20000076293945 17.5)"><text x="0" y="24.528" font-family="Virgil, Segoe UI Emoji" font-size="28px" fill="#f08c00" text-anchor="start" style="white-space: pre;" direction="ltr" dominant-baseline="alphabetic">TEMPLO</text></g><g stroke-linecap="round" transform="translate(1255.8661515734505 122.493557704149) rotate(0 208.1130817526755 160.30331972841225)"><path d="M261.25 40.25 C296.78 67.47, 334.66 97.76, 363.98 120.75 M261.25 40.25 C287.15 60.72, 314.48 81.66, 363.98 120.75 M363.98 120.75 C416.33 160.58, 414.95 159.42, 363.98 201.25 M363.98 120.75 C414.21 160.7, 416.87 161.99, 363.98 201.25 M363.98 201.25 C340.61 217.54, 321.24 237.89, 261.25 280.36 M363.98 201.25 C336.94 221.59, 309.33 243.43, 261.25 280.36 M261.25 280.36 C210.66 321.96, 207.43 320.06, 156.75 280.36 M261.25 280.36 C209.52 320.05, 207.12 320.36, 156.75 280.36 M156.75 280.36 C119.62 250.83, 82.38 221.56, 52.25 201.25 M156.75 280.36 C121.66 254.62, 87.95 229.73, 52.25 201.25 M52.25 201.25 C-0.27 159.85, -1.55 162.27, 52.25 120.75 M52.25 201.25 C-1.71 163.24, -0.91 158.88, 52.25 120.75 M52.25 120.75 C94.72 90.5, 136.35 58.81, 156.75 40.25 M52.25 120.75 C84.69 94.51, 118.07 70.52, 156.75 40.25 M156.75 40.25 C210.9 -1.16, 209.79 0.42, 261.25 40.25 M156.75 40.25 C208.42 0.81, 211.09 -2.07, 261.25 40.25" stroke="#f08c00" stroke-width="2" fill="none"></path></g><g transform="translate(1397.722695501546 247.64521756835506) rotate(0 66.19999694824219 35)"><text x="66.19999694824219" y="24.528" font-family="Virgil, Segoe UI Emoji" font-size="28px" fill="#f08c00" text-anchor="middle" style="white-space: pre;" direction="ltr" dominant-baseline="alphabetic">TEMPLO </text><text x="66.19999694824219" y="59.528" font-family="Virgil, Segoe UI Emoji" font-size="28px" fill="#f08c00" text-anchor="middle" style="white-space: pre;" direction="ltr" dominant-baseline="alphabetic">CLASICO</text></g><g stroke-linecap="round"><g transform="translate(1246.1574089302924 289.22126742158775) rotate(0 -207.9459420021032 51.62841438625924)"><path d="M0.75 -0.46 C-32.55 3.42, -131.59 5.83, -200.87 22.95 C-270.14 40.08, -379.04 88.71, -414.92 102.28 M-0.32 -1.75 C-33.14 2.35, -129.43 6.9, -198.57 24.37 C-267.71 41.85, -378.94 90.08, -415.17 103.09" stroke="#f08c00" stroke-width="2" fill="none"></path></g><g transform="translate(1246.1574089302924 289.22126742158775) rotate(0 -207.9459420021032 51.62841438625924)"><path d="M-396.41 86.57 C-401.14 88.8, -404.65 95.19, -415.17 103.09 M-396.41 86.57 C-400.77 90.52, -404.45 93.36, -415.17 103.09" stroke="#f08c00" stroke-width="2" fill="none"></path></g><g transform="translate(1246.1574089302924 289.22126742158775) rotate(0 -207.9459420021032 51.62841438625924)"><path d="M-390.18 102.49 C-396.16 101.45, -400.97 104.52, -415.17 103.09 M-390.18 102.49 C-395.87 103.02, -400.92 102.38, -415.17 103.09" stroke="#f08c00" stroke-width="2" fill="none"></path></g></g><mask></mask><g stroke-linecap="round" transform="translate(485.2852813000295 424.3512708769483) rotate(0 354.35470676806904 52.4969935952696)"><path d="M26.25 0 C243.75 1.1, 462.22 0.99, 682.46 0 M26.25 0 C237.05 2.09, 447.66 2.32, 682.46 0 M682.46 0 C699.42 -0.45, 707.57 6.85, 708.71 26.25 M682.46 0 C701.2 1.97, 710.32 10.73, 708.71 26.25 M708.71 26.25 C707.92 37.42, 708.52 49.58, 708.71 78.75 M708.71 26.25 C708.96 43.53, 708.79 59.53, 708.71 78.75 M708.71 78.75 C707.9 95.54, 701.9 104.3, 682.46 104.99 M708.71 78.75 C710.96 97.81, 699.66 106.08, 682.46 104.99 M682.46 104.99 C447.4 105.91, 212.57 106.12, 26.25 104.99 M682.46 104.99 C527.73 106.82, 372.69 106.47, 26.25 104.99 M26.25 104.99 C10.08 105.18, -0.86 94.4, 0 78.75 M26.25 104.99 C9.05 105.05, 0.54 97.79, 0 78.75 M0 78.75 C-0.77 65.61, -0.49 52.42, 0 26.25 M0 78.75 C0.09 63.98, -0.55 47.59, 0 26.25 M0 26.25 C1.19 8.31, 10.57 -1.2, 26.25 0 M0 26.25 C-1.48 7.98, 9.99 0.59, 26.25 0" stroke="#f08c00" stroke-width="2" fill="none"></path></g><g transform="translate(526.5329191248845 459.9742308165953) rotate(0 313.6000061035156 17.5)"><text x="0" y="24.528" font-family="Virgil, Segoe UI Emoji" font-size="28px" fill="#f08c00" text-anchor="start" style="white-space: pre;" direction="ltr" dominant-baseline="alphabetic">#col_lado_largo = #col_lado_corto * 2 + 1</text></g><g transform="translate(535.9073822668969 375.6040625384842) rotate(0 59.20000076293945 17.5)"><text x="0" y="24.528" font-family="Virgil, Segoe UI Emoji" font-size="28px" fill="#f08c00" text-anchor="start" style="white-space: pre;" direction="ltr" dominant-baseline="alphabetic">TEMPLO</text></g><g stroke-linecap="round" transform="translate(82.18336619349577 593.8239873661421) rotate(0 919.6348342314177 239.98625643551736)"><path d="M32 0 C697.56 5.43, 1361.62 4.53, 1807.27 0 M32 0 C564.78 -5.73, 1097.77 -5.79, 1807.27 0 M1807.27 0 C1829.47 1.44, 1837.47 11.35, 1839.27 32 M1807.27 0 C1830.78 -2.25, 1840.04 10.87, 1839.27 32 M1839.27 32 C1839.6 173.13, 1838.97 313.93, 1839.27 447.97 M1839.27 32 C1839.58 119.34, 1839.23 206.38, 1839.27 447.97 M1839.27 447.97 C1839.91 468.13, 1827.66 481.62, 1807.27 479.97 M1839.27 447.97 C1838.64 467.79, 1827.7 481.38, 1807.27 479.97 M1807.27 479.97 C1306.88 484.6, 805.08 483.06, 32 479.97 M1807.27 479.97 C1290.47 476.46, 773.61 476.93, 32 479.97 M32 479.97 C8.92 478.17, -1.46 468.12, 0 447.97 M32 479.97 C8.89 480.1, -2.05 471.5, 0 447.97 M0 447.97 C-1.13 316.84, -2.72 186.84, 0 32 M0 447.97 C0.28 312.27, -0.44 177.13, 0 32 M0 32 C-1.95 8.81, 11.15 -1.95, 32 0 M0 32 C1.9 8.52, 9.17 -1.64, 32 0" stroke="#2f9e44" stroke-width="2" fill="none"></path></g><g stroke-linecap="round" transform="translate(140.30503767397306 735.4662664024856) rotate(0 230.61179329350506 121.86802084616147)"><path d="M32 0 C115.34 0.73, 197.18 2.28, 429.22 0 M32 0 C185.92 1.02, 339.81 0.61, 429.22 0 M429.22 0 C449.4 0.61, 459.6 9.42, 461.22 32 M429.22 0 C449.83 -0.61, 462.3 8.68, 461.22 32 M461.22 32 C460.3 97.54, 459.64 158.27, 461.22 211.74 M461.22 32 C460.82 84.11, 460.91 134.97, 461.22 211.74 M461.22 211.74 C460.66 233.35, 450.86 244.37, 429.22 243.74 M461.22 211.74 C460.7 231.08, 448.75 241.74, 429.22 243.74 M429.22 243.74 C295.46 244.06, 160 244.07, 32 243.74 M429.22 243.74 C286.26 242.33, 142.72 242.46, 32 243.74 M32 243.74 C9.04 244.7, -1.61 231.57, 0 211.74 M32 243.74 C11.35 243.42, 0.29 234.64, 0 211.74 M0 211.74 C-0.44 166.89, -0.42 124.22, 0 32 M0 211.74 C-0.06 156.3, 0.73 99.77, 0 32 M0 32 C1.43 11.23, 9.89 -0.34, 32 0 M0 32 C0.58 10.53, 8.87 -0.26, 32 0" stroke="#f08c00" stroke-width="2" fill="none"></path></g><g transform="translate(166.55353447160826 767.3394410853277) rotate(0 188.5 17.5)"><text x="0" y="24.528" font-family="Virgil, Segoe UI Emoji" font-size="28px" fill="#f08c00" text-anchor="start" style="white-space: pre;" direction="ltr" dominant-baseline="alphabetic">#col_lado_largo (uint8_t)</text></g><g transform="translate(164.66919314262407 837.9593946202447) rotate(0 98 17.5)"><text x="0" y="24.528" font-family="Virgil, Segoe UI Emoji" font-size="28px" fill="#f08c00" text-anchor="start" style="white-space: pre;" direction="ltr" dominant-baseline="alphabetic">nombre (char*)</text></g><g transform="translate(169.29258256866126 907.3304218711367) rotate(0 191.1666717529297 17.5)"><text x="0" y="24.528" font-family="Virgil, Segoe UI Emoji" font-size="28px" fill="#f08c00" text-anchor="start" style="white-space: pre;" direction="ltr" dominant-baseline="alphabetic">#col_lado_corto (uint8_t)</text></g><g transform="translate(190.92713864084055 686.7190580640215) rotate(0 59.20000076293945 17.5)"><text x="0" y="24.528" font-family="Virgil, Segoe UI Emoji" font-size="28px" fill="#f08c00" text-anchor="start" style="white-space: pre;" direction="ltr" dominant-baseline="alphabetic">TEMPLO</text></g><g stroke-linecap="round" transform="translate(650.2758325994482 739.5382988297968) rotate(0 230.61179329350512 121.86802084616124)"><path d="M32 0 C121 -3.14, 209.63 -1.54, 429.22 0 M32 0 C130.61 -1.59, 228.47 -0.67, 429.22 0 M429.22 0 C450.91 -1.47, 460.58 12.32, 461.22 32 M429.22 0 C449.75 -1.98, 460.48 12.8, 461.22 32 M461.22 32 C459.16 101.6, 459.75 170.77, 461.22 211.74 M461.22 32 C460.42 75.26, 461.37 118.62, 461.22 211.74 M461.22 211.74 C461.35 232.12, 449.57 245.01, 429.22 243.74 M461.22 211.74 C461.15 234.63, 449.68 244.77, 429.22 243.74 M429.22 243.74 C335.13 243.69, 243.85 243.3, 32 243.74 M429.22 243.74 C303.04 244.32, 177.43 244.11, 32 243.74 M32 243.74 C11.31 244.16, 0.02 232.45, 0 211.74 M32 243.74 C8.46 245.4, -1.75 233.31, 0 211.74 M0 211.74 C0.63 153.66, -0.94 90.63, 0 32 M0 211.74 C1.17 155.49, 0.26 99.58, 0 32 M0 32 C-1.13 11.03, 10.02 0.49, 32 0 M0 32 C-2.19 11.2, 10.9 2.03, 32 0" stroke="#f08c00" stroke-width="2" fill="none"></path></g><g transform="translate(676.5243293970834 771.4114735126388) rotate(0 188.5 17.5)"><text x="0" y="24.528" font-family="Virgil, Segoe UI Emoji" font-size="28px" fill="#f08c00" text-anchor="start" style="white-space: pre;" direction="ltr" dominant-baseline="alphabetic">#col_lado_largo (uint8_t)</text></g><g transform="translate(674.6399880680992 842.0314270475558) rotate(0 98 17.5)"><text x="0" y="24.528" font-family="Virgil, Segoe UI Emoji" font-size="28px" fill="#f08c00" text-anchor="start" style="white-space: pre;" direction="ltr" dominant-baseline="alphabetic">nombre (char*)</text></g><g transform="translate(679.2633774941364 911.4024542984478) rotate(0 191.1666717529297 17.5)"><text x="0" y="24.528" font-family="Virgil, Segoe UI Emoji" font-size="28px" fill="#f08c00" text-anchor="start" style="white-space: pre;" direction="ltr" dominant-baseline="alphabetic">#col_lado_corto (uint8_t)</text></g><g transform="translate(700.8979335663157 690.7910904913326) rotate(0 59.20000076293945 17.5)"><text x="0" y="24.528" font-family="Virgil, Segoe UI Emoji" font-size="28px" fill="#f08c00" text-anchor="start" style="white-space: pre;" direction="ltr" dominant-baseline="alphabetic">TEMPLO</text></g><g stroke-linecap="round" transform="translate(1167.746198038533 745.1629767150041) rotate(0 230.61179329350512 121.86802084616124)"><path d="M32 0 C127.61 2.36, 221.22 0.61, 429.22 0 M32 0 C140.44 -0.97, 248.11 -1.38, 429.22 0 M429.22 0 C449.94 0.85, 461.41 10.29, 461.22 32 M429.22 0 C450.51 1.11, 459.79 9.55, 461.22 32 M461.22 32 C459.81 98.2, 463.26 167.77, 461.22 211.74 M461.22 32 C462.51 90.67, 461.72 149.86, 461.22 211.74 M461.22 211.74 C460.3 234.46, 449.53 242.95, 429.22 243.74 M461.22 211.74 C461.49 230.79, 452.51 242.46, 429.22 243.74 M429.22 243.74 C337.25 244.95, 245.35 246.09, 32 243.74 M429.22 243.74 C335.39 243.52, 241.38 243.99, 32 243.74 M32 243.74 C11.67 242.58, 0.48 232.15, 0 211.74 M32 243.74 C12.36 245.5, 1.68 233.44, 0 211.74 M0 211.74 C0.9 140.09, -0.71 67.04, 0 32 M0 211.74 C-0.52 170.15, -0.76 125.89, 0 32 M0 32 C-1.66 10.07, 8.95 1.2, 32 0 M0 32 C0.34 11.38, 11.08 -1.19, 32 0" stroke="#f08c00" stroke-width="2" fill="none"></path></g><g transform="translate(1193.9946948361683 777.0361513978462) rotate(0 188.5 17.5)"><text x="0" y="24.528" font-family="Virgil, Segoe UI Emoji" font-size="28px" fill="#f08c00" text-anchor="start" style="white-space: pre;" direction="ltr" dominant-baseline="alphabetic">#col_lado_largo (uint8_t)</text></g><g transform="translate(1192.110353507184 847.6561049327631) rotate(0 98 17.5)"><text x="0" y="24.528" font-family="Virgil, Segoe UI Emoji" font-size="28px" fill="#f08c00" text-anchor="start" style="white-space: pre;" direction="ltr" dominant-baseline="alphabetic">nombre (char*)</text></g><g transform="translate(1196.7337429332213 917.0271321836551) rotate(0 191.1666717529297 17.5)"><text x="0" y="24.528" font-family="Virgil, Segoe UI Emoji" font-size="28px" fill="#f08c00" text-anchor="start" style="white-space: pre;" direction="ltr" dominant-baseline="alphabetic">#col_lado_corto (uint8_t)</text></g><g transform="translate(1218.3682990054006 696.41576837654) rotate(0 59.20000076293945 17.5)"><text x="0" y="24.528" font-family="Virgil, Segoe UI Emoji" font-size="28px" fill="#f08c00" text-anchor="start" style="white-space: pre;" direction="ltr" dominant-baseline="alphabetic">TEMPLO</text></g><g transform="translate(1722.714416045668 874.5305680747754) rotate(0 0.00004999999998744897 0.00005000000010113581)" stroke="none"><path fill="#2f9e44" d="M 3.14,-3.14 Q 3.14,-3.14 3.55,-2.55 3.97,-1.97 4.18,-1.28 4.40,-0.59 4.38,0.11 4.36,0.83 4.11,1.51 3.86,2.18 3.41,2.74 2.96,3.30 2.36,3.69 1.75,4.08 1.05,4.25 0.36,4.42 -0.35,4.36 -1.07,4.31 -1.73,4.02 -2.39,3.74 -2.92,3.26 -3.46,2.78 -3.81,2.15 -4.16,1.53 -4.30,0.82 -4.43,0.11 -4.34,-0.59 -4.24,-1.30 -3.92,-1.94 -3.60,-2.59 -3.09,-3.09 -2.59,-3.60 -1.94,-3.92 -1.30,-4.24 -0.59,-4.34 0.12,-4.43 0.82,-4.30 1.53,-4.16 2.15,-3.81 2.78,-3.46 3.26,-2.92 3.74,-2.39 4.02,-1.73 4.31,-1.07 4.36,-0.35 4.42,0.36 4.25,1.05 4.07,1.75 3.69,2.36 3.30,2.96 2.74,3.41 2.18,3.86 1.51,4.11 0.83,4.36 0.11,4.38 -0.60,4.40 -1.28,4.18 -1.97,3.97 -2.55,3.55 -3.14,3.13 -3.14,3.14 -3.14,3.14 -3.47,2.71 -3.80,2.29 -4.02,1.80 -4.24,1.32 -4.33,0.79 -4.43,0.26 -4.40,-0.26 -4.36,-0.80 -4.20,-1.31 -4.04,-1.82 -3.77,-2.28 -3.49,-2.73 -3.11,-3.11 -2.73,-3.49 -2.28,-3.77 -1.82,-4.05 -1.31,-4.20 -0.80,-4.36 -0.26,-4.40 0.26,-4.43 0.79,-4.33 1.32,-4.24 1.80,-4.02 2.29,-3.80 2.71,-3.47 3.14,-3.14 3.14,-3.14 L 3.14,-3.14 Z"></path></g><g transform="translate(1758.3373759853155 878.2803533315803) rotate(0 0.00004999999998744897 0.00005000000010113581)" stroke="none"><path fill="#2f9e44" d="M 3.14,-3.14 Q 3.14,-3.14 3.55,-2.55 3.97,-1.97 4.18,-1.28 4.40,-0.59 4.38,0.11 4.36,0.83 4.11,1.51 3.86,2.18 3.41,2.74 2.96,3.30 2.36,3.69 1.75,4.08 1.05,4.25 0.36,4.42 -0.35,4.36 -1.07,4.31 -1.73,4.02 -2.39,3.74 -2.92,3.26 -3.46,2.78 -3.81,2.15 -4.16,1.53 -4.30,0.82 -4.43,0.11 -4.34,-0.59 -4.24,-1.30 -3.92,-1.94 -3.60,-2.59 -3.09,-3.09 -2.59,-3.60 -1.94,-3.92 -1.30,-4.24 -0.59,-4.34 0.12,-4.43 0.82,-4.30 1.53,-4.16 2.15,-3.81 2.78,-3.46 3.26,-2.92 3.74,-2.39 4.02,-1.73 4.31,-1.07 4.36,-0.35 4.42,0.36 4.25,1.05 4.07,1.75 3.69,2.36 3.30,2.96 2.74,3.41 2.18,3.86 1.51,4.11 0.83,4.36 0.11,4.38 -0.60,4.40 -1.28,4.18 -1.97,3.97 -2.55,3.55 -3.14,3.13 -3.14,3.14 -3.14,3.14 -3.47,2.71 -3.80,2.29 -4.02,1.80 -4.24,1.32 -4.33,0.79 -4.43,0.26 -4.40,-0.26 -4.36,-0.80 -4.20,-1.31 -4.04,-1.82 -3.77,-2.28 -3.49,-2.73 -3.11,-3.11 -2.73,-3.49 -2.28,-3.77 -1.82,-4.05 -1.31,-4.20 -0.80,-4.36 -0.26,-4.40 0.26,-4.43 0.79,-4.33 1.32,-4.24 1.80,-4.02 2.29,-3.80 2.71,-3.47 3.14,-3.14 3.14,-3.14 L 3.14,-3.14 Z"></path></g><g transform="translate(1793.9603359249625 872.6556754463729) rotate(0 0.00004999999998744897 0.00005000000010113581)" stroke="none"><path fill="#2f9e44" d="M 3.14,-3.14 Q 3.14,-3.14 3.55,-2.55 3.97,-1.97 4.18,-1.28 4.40,-0.59 4.38,0.11 4.36,0.83 4.11,1.51 3.86,2.18 3.41,2.74 2.96,3.30 2.36,3.69 1.75,4.08 1.05,4.25 0.36,4.42 -0.35,4.36 -1.07,4.31 -1.73,4.02 -2.39,3.74 -2.92,3.26 -3.46,2.78 -3.81,2.15 -4.16,1.53 -4.30,0.82 -4.43,0.11 -4.34,-0.59 -4.24,-1.30 -3.92,-1.94 -3.60,-2.59 -3.09,-3.09 -2.59,-3.60 -1.94,-3.92 -1.30,-4.24 -0.59,-4.34 0.12,-4.43 0.82,-4.30 1.53,-4.16 2.15,-3.81 2.78,-3.46 3.26,-2.92 3.74,-2.39 4.02,-1.73 4.31,-1.07 4.36,-0.35 4.42,0.36 4.25,1.05 4.07,1.75 3.69,2.36 3.30,2.96 2.74,3.41 2.18,3.86 1.51,4.11 0.83,4.36 0.11,4.38 -0.60,4.40 -1.28,4.18 -1.97,3.97 -2.55,3.55 -3.14,3.13 -3.14,3.14 -3.14,3.14 -3.47,2.71 -3.80,2.29 -4.02,1.80 -4.24,1.32 -4.33,0.79 -4.43,0.26 -4.40,-0.26 -4.36,-0.80 -4.20,-1.31 -4.04,-1.82 -3.77,-2.28 -3.49,-2.73 -3.11,-3.11 -2.73,-3.49 -2.28,-3.77 -1.82,-4.05 -1.31,-4.20 -0.80,-4.36 -0.26,-4.40 0.26,-4.43 0.79,-4.33 1.32,-4.24 1.80,-4.02 2.29,-3.80 2.71,-3.47 3.14,-3.14 3.14,-3.14 L 3.14,-3.14 Z"></path></g><g transform="translate(1837.0828663782197 872.6556754463729) rotate(0 0.00004999999998744897 0.00005000000010113581)" stroke="none"><path fill="#2f9e44" d="M 3.14,-3.14 Q 3.14,-3.14 3.55,-2.55 3.97,-1.97 4.18,-1.28 4.40,-0.59 4.38,0.11 4.36,0.83 4.11,1.51 3.86,2.18 3.41,2.74 2.96,3.30 2.36,3.69 1.75,4.08 1.05,4.25 0.36,4.42 -0.35,4.36 -1.07,4.31 -1.73,4.02 -2.39,3.74 -2.92,3.26 -3.46,2.78 -3.81,2.15 -4.16,1.53 -4.30,0.82 -4.43,0.11 -4.34,-0.59 -4.24,-1.30 -3.92,-1.94 -3.60,-2.59 -3.09,-3.09 -2.59,-3.60 -1.94,-3.92 -1.30,-4.24 -0.59,-4.34 0.12,-4.43 0.82,-4.30 1.53,-4.16 2.15,-3.81 2.78,-3.46 3.26,-2.92 3.74,-2.39 4.02,-1.73 4.31,-1.07 4.36,-0.35 4.42,0.36 4.25,1.05 4.07,1.75 3.69,2.36 3.30,2.96 2.74,3.41 2.18,3.86 1.51,4.11 0.83,4.36 0.11,4.38 -0.60,4.40 -1.28,4.18 -1.97,3.97 -2.55,3.55 -3.14,3.13 -3.14,3.14 -3.14,3.14 -3.47,2.71 -3.80,2.29 -4.02,1.80 -4.24,1.32 -4.33,0.79 -4.43,0.26 -4.40,-0.26 -4.36,-0.80 -4.20,-1.31 -4.04,-1.82 -3.77,-2.28 -3.49,-2.73 -3.11,-3.11 -2.73,-3.49 -2.28,-3.77 -1.82,-4.05 -1.31,-4.20 -0.80,-4.36 -0.26,-4.40 0.26,-4.43 0.79,-4.33 1.32,-4.24 1.80,-4.02 2.29,-3.80 2.71,-3.47 3.14,-3.14 3.14,-3.14 L 3.14,-3.14 Z"></path></g><g transform="translate(134.68035978876514 538.9247875907311) rotate(0 123.86666870117188 17.5)"><text x="0" y="24.528" font-family="Virgil, Segoe UI Emoji" font-size="28px" fill="#2f9e44" text-anchor="start" style="white-space: pre;" direction="ltr" dominant-baseline="alphabetic">ARRAY_TEMPLOS</text></g><g stroke-linecap="round"><g transform="translate(763.7068366177979 1210.5611289199453) rotate(0 127.49269873136882 0)"><path d="M-0.76 -1.18 C41.79 -1.1, 212.1 -0.32, 254.78 -0.22 M1.05 0.82 C43.46 1.14, 211.45 1.27, 253.72 1.2" stroke="#9c36b5" stroke-width="2" fill="none"></path></g><g transform="translate(763.7068366177979 1210.5611289199453) rotate(0 127.49269873136882 0)"><path d="M230.23 9.75 C234.37 7.35, 242.02 6.01, 253.72 1.2 M230.23 9.75 C235.34 8.58, 242.19 4.65, 253.72 1.2" stroke="#9c36b5" stroke-width="2" fill="none"></path></g><g transform="translate(763.7068366177979 1210.5611289199453) rotate(0 127.49269873136882 0)"><path d="M230.23 -7.35 C234.28 -5.34, 241.92 -2.28, 253.72 1.2 M230.23 -7.35 C235.46 -4.25, 242.3 -3.91, 253.72 1.2" stroke="#9c36b5" stroke-width="2" fill="none"></path></g></g><mask></mask><g stroke-linecap="round" transform="translate(10 1169.3134910950905) rotate(0 379.6657572515027 38.43529888225089)"><path d="M19.22 0 C257.25 -0.94, 496.85 -0.49, 740.11 0 M19.22 0 C286.02 -0.49, 553.6 -0.55, 740.11 0 M740.11 0 C754.12 -0.06, 757.34 7.31, 759.33 19.22 M740.11 0 C752.87 1.54, 760.89 5.04, 759.33 19.22 M759.33 19.22 C759.18 33.84, 759.33 45.27, 759.33 57.65 M759.33 19.22 C759.12 33.13, 759.06 45.03, 759.33 57.65 M759.33 57.65 C761.12 69.55, 753.02 78.16, 740.11 76.87 M759.33 57.65 C757.25 72.42, 754.13 75.63, 740.11 76.87 M740.11 76.87 C462.44 77.61, 185.85 77.41, 19.22 76.87 M740.11 76.87 C454.43 76.85, 168.97 76.9, 19.22 76.87 M19.22 76.87 C6.83 75.82, 0.63 68.5, 0 57.65 M19.22 76.87 C6.01 77.15, 1.16 69.72, 0 57.65 M0 57.65 C-0.53 48.45, 1.69 35.08, 0 19.22 M0 57.65 C-0.11 43.38, 0.34 28.81, 0 19.22 M0 19.22 C1.74 4.72, 7.94 -1.17, 19.22 0 M0 19.22 C-2.07 7.48, 8.26 -0.35, 19.22 0" stroke="#9c36b5" stroke-width="2" fill="none"></path></g><g transform="translate(226.7657633550183 1190.2487899773412) rotate(0 162.89999389648438 17.5)"><text x="162.89999389648438" y="24.528" font-family="Virgil, Segoe UI Emoji" font-size="28px" fill="#9c36b5" text-anchor="middle" style="white-space: pre;" direction="ltr" dominant-baseline="alphabetic">cuantosTemplosClasicos</text></g><g transform="translate(1054.3151940201824 1188.062417379115) rotate(0 288.7999877929687 35)"><text x="0" y="24.528" font-family="Virgil, Segoe UI Emoji" font-size="28px" fill="#9c36b5" text-anchor="start" style="white-space: pre;" direction="ltr" dominant-baseline="alphabetic">toma un array de templos, su longitud, y </text><text x="0" y="59.528" font-family="Virgil, Segoe UI Emoji" font-size="28px" fill="#9c36b5" text-anchor="start" style="white-space: pre;" direction="ltr" dominant-baseline="alphabetic">devuelve # templos clasicos (uint8_t)</text></g><g stroke-linecap="round"><g transform="translate(763.8453799800425 1360.4870619947994) rotate(0 127.49269873136882 0)"><path d="M1.09 -0.04 C43.33 0.15, 211.91 0.71, 254.18 0.7 M0.21 -1.1 C42.77 -1.22, 214.2 -1.43, 256.47 -1.05" stroke="#e03131" stroke-width="2" fill="none"></path></g><g transform="translate(763.8453799800425 1360.4870619947994) rotate(0 127.49269873136882 0)"><path d="M232.95 7.43 C241.41 2.81, 251.14 0.71, 256.47 -1.05 M232.95 7.43 C239.97 4.81, 246.82 3.46, 256.47 -1.05" stroke="#e03131" stroke-width="2" fill="none"></path></g><g transform="translate(763.8453799800425 1360.4870619947994) rotate(0 127.49269873136882 0)"><path d="M233.01 -9.67 C241.39 -8.11, 251.09 -4.04, 256.47 -1.05 M233.01 -9.67 C240.12 -7.29, 246.95 -3.64, 256.47 -1.05" stroke="#e03131" stroke-width="2" fill="none"></path></g></g><mask></mask><g stroke-linecap="round" transform="translate(10.13854336224449 1319.2394241699446) rotate(0 379.6657572515027 38.43529888225089)"><path d="M19.22 0 C301.6 1.78, 582.98 2.47, 740.11 0 M19.22 0 C235.87 0.79, 452.18 0.7, 740.11 0 M740.11 0 C752.07 -0.15, 759.76 6.25, 759.33 19.22 M740.11 0 C754.9 1.06, 760.02 8.39, 759.33 19.22 M759.33 19.22 C758.01 31.74, 757.94 43.73, 759.33 57.65 M759.33 19.22 C758.08 29.83, 758.92 40.85, 759.33 57.65 M759.33 57.65 C757.76 69.22, 752.76 78.86, 740.11 76.87 M759.33 57.65 C759.5 71.31, 753.36 76.34, 740.11 76.87 M740.11 76.87 C462.09 77.62, 185.34 77.63, 19.22 76.87 M740.11 76.87 C486.63 75.8, 234.07 76.33, 19.22 76.87 M19.22 76.87 C6.02 75.53, 1.35 72.26, 0 57.65 M19.22 76.87 C7.79 75.71, 1.99 71.12, 0 57.65 M0 57.65 C0.36 47.8, 1.39 34.57, 0 19.22 M0 57.65 C-0.45 48.48, -0.81 40.52, 0 19.22 M0 19.22 C0.53 7.68, 5.47 -0.49, 19.22 0 M0 19.22 C-1.61 7.7, 8 -2.21, 19.22 0" stroke="#e03131" stroke-width="2" fill="none"></path></g><g transform="translate(284.35430366550503 1340.1747230521953) rotate(0 105.44999694824219 17.5)"><text x="105.44999694824219" y="24.528" font-family="Virgil, Segoe UI Emoji" font-size="28px" fill="#e03131" text-anchor="middle" style="white-space: pre;" direction="ltr" dominant-baseline="alphabetic">templosClasicos</text></g><g transform="translate(1054.4537373824269 1337.9883504539691) rotate(0 347.1666564941406 52.5)"><text x="0" y="24.528" font-family="Virgil, Segoe UI Emoji" font-size="28px" fill="#e03131" text-anchor="start" style="white-space: pre;" direction="ltr" dominant-baseline="alphabetic">toma un array de templos, su longitud, y </text><text x="0" y="59.528" font-family="Virgil, Segoe UI Emoji" font-size="28px" fill="#e03131" text-anchor="start" style="white-space: pre;" direction="ltr" dominant-baseline="alphabetic">devuelve un ARRAY DE TEMPLOS clasicos (nuevo)</text><text x="0" y="94.52799999999999" font-family="Virgil, Segoe UI Emoji" font-size="28px" fill="#e03131" text-anchor="start" style="white-space: pre;" direction="ltr" dominant-baseline="alphabetic">(templo*)</text></g></svg>