<svg version="1.1" xmlns="http://www.w3.org/2000/svg" viewBox="0 0 3535.8285868438497 5393.629539361284" width="7071.6571736876995" height="10787.259078722567">
  <!-- svg-source:excalidraw -->
  
  <defs>
    <style class="style-fonts">
      @font-face {
        font-family: "Virgil";
        src: url("https://excalidraw.com/Virgil.woff2");
      }
      @font-face {
        font-family: "Cascadia";
        src: url("https://excalidraw.com/Cascadia.woff2");
      }
      @font-face {
        font-family: "Assistant";
        src: url("https://excalidraw.com/Assistant-Regular.woff2");
      }
    </style>
    
  </defs>
  <rect x="0" y="0" width="3535.8285868438497" height="5393.629539361284" fill="#ffffff"></rect><g stroke-linecap="round" transform="translate(1252.9669433176857 10) rotate(0 384.7841327307059 345.381664331102)"><path d="M32 0 C208.8 0.03, 384.14 0.51, 737.57 0 M32 0 C279.39 -1.84, 526.96 -1.78, 737.57 0 M737.57 0 C757.84 0.87, 769.3 10.18, 769.57 32 M737.57 0 C759.43 1.97, 771.26 11.42, 769.57 32 M769.57 32 C769.45 157.96, 770.04 283.05, 769.57 658.76 M769.57 32 C770.01 235.1, 769.92 437.22, 769.57 658.76 M769.57 658.76 C770.66 681.47, 759.55 689.86, 737.57 690.76 M769.57 658.76 C769.74 680.13, 759.64 688.92, 737.57 690.76 M737.57 690.76 C559.22 691.82, 381.25 691.94, 32 690.76 M737.57 690.76 C587.6 689.3, 437.53 689.35, 32 690.76 M32 690.76 C12.49 690.17, -1.55 678.95, 0 658.76 M32 690.76 C11.23 691.04, -2.23 679.58, 0 658.76 M0 658.76 C-1.32 470.63, -1.52 281.32, 0 32 M0 658.76 C-0.72 496.36, -0.44 333.55, 0 32 M0 32 C-0.11 10.67, 10.12 1.75, 32 0 M0 32 C0.98 11.63, 12.42 1.94, 32 0" stroke="#f08c00" stroke-width="2" fill="none"></path></g><g transform="translate(1543.6177447495634 332.881664331102) rotate(0 94.13333129882812 22.5)"><text x="94.13333129882812" y="31.536" font-family="Virgil, Segoe UI Emoji" font-size="36px" fill="#f08c00" text-anchor="middle" style="white-space: pre;" direction="ltr" dominant-baseline="alphabetic">IMAGEN A</text></g><g stroke-linecap="round" transform="translate(2268.4221672739322 15.966559400771985) rotate(0 384.7841327307059 345.38166433110155)"><path d="M32 0 C250.87 -1.13, 470.46 -1.77, 737.57 0 M32 0 C234.01 -1.62, 436.34 -1.47, 737.57 0 M737.57 0 C757.65 1.93, 770.49 10.41, 769.57 32 M737.57 0 C757.52 -0.41, 767.97 9.74, 769.57 32 M769.57 32 C770.13 214.92, 769.75 396.16, 769.57 658.76 M769.57 32 C771.47 190.9, 772.16 349.79, 769.57 658.76 M769.57 658.76 C771.19 680.71, 760.55 691.64, 737.57 690.76 M769.57 658.76 C770.86 679.66, 759.19 688.63, 737.57 690.76 M737.57 690.76 C506.28 689.63, 274.76 689.17, 32 690.76 M737.57 690.76 C512.78 692.73, 287.99 692.44, 32 690.76 M32 690.76 C11.09 690.42, -0.45 678.22, 0 658.76 M32 690.76 C12.13 693.03, -1.75 680.69, 0 658.76 M0 658.76 C1.71 488.73, 1.9 317.36, 0 32 M0 658.76 C1.95 421.18, 1.43 183.01, 0 32 M0 32 C0.12 11.62, 9.64 -0.03, 32 0 M0 32 C-1.67 9.73, 11.94 -1.99, 32 0" stroke="#2f9e44" stroke-width="2" fill="none"></path></g><g transform="translate(2557.789635881103 338.848223731874) rotate(0 95.41666412353516 22.5)"><text x="95.41666412353516" y="31.536" font-family="Virgil, Segoe UI Emoji" font-size="36px" fill="#2f9e44" text-anchor="middle" style="white-space: pre;" direction="ltr" dominant-baseline="alphabetic">IMAGEN B</text></g><g stroke-linecap="round"><g transform="translate(1981.5020493027012 697.1128875918657) rotate(0 138.53900170727445 356.8428831854044)"><path d="M0.72 0.48 C46.61 34.56, 273.96 85.29, 276.05 204.11 C278.14 322.94, 57.08 628.4, 13.26 713.42 M-0.37 -0.31 C45.83 33.99, 275.53 86.4, 278.22 205.55 C280.91 324.7, 59.98 630.2, 15.76 714.6" stroke="#c2255c" stroke-width="2" fill="none"></path></g><g transform="translate(1981.5020493027012 697.1128875918657) rotate(0 138.53900170727445 356.8428831854044)"><path d="M20.79 690.11 C19.72 697.13, 16.81 706.33, 15.76 714.6 M20.79 690.11 C19.04 697.61, 18.55 704.51, 15.76 714.6" stroke="#c2255c" stroke-width="2" fill="none"></path></g><g transform="translate(1981.5020493027012 697.1128875918657) rotate(0 138.53900170727445 356.8428831854044)"><path d="M35.35 699.07 C29.14 702.99, 21.04 709, 15.76 714.6 M35.35 699.07 C29.63 704.15, 25.08 708.55, 15.76 714.6" stroke="#c2255c" stroke-width="2" fill="none"></path></g></g><mask></mask><g stroke-linecap="round" transform="translate(1922.7279273662816 613.1498562541237) rotate(0 46.17966723575819 41.981515668871)"><path d="M20.99 0 C39.68 2.18, 60.53 2.89, 71.37 0 C85.28 0.22, 95.36 5.07, 92.36 20.99 C93.46 33.68, 88.5 55.81, 92.36 62.97 C91.44 75.87, 85.98 82.41, 71.37 83.96 C52.51 83.51, 37.09 82.44, 20.99 83.96 C7.33 87.12, -3.56 77.31, 0 62.97 C-1.1 48.67, -1.39 33.67, 0 20.99 C1.3 4.03, 4.19 2.28, 20.99 0" stroke="none" stroke-width="0" fill="#d0bfff"></path><path d="M20.99 0 C35.81 -1.6, 50.93 0.85, 71.37 0 M20.99 0 C35.53 -0.2, 52.24 1.15, 71.37 0 M71.37 0 C85.3 0.75, 94.29 8.35, 92.36 20.99 M71.37 0 C83.31 -0.58, 91.71 8.62, 92.36 20.99 M92.36 20.99 C93.54 37.32, 93.3 55.87, 92.36 62.97 M92.36 20.99 C93.29 31.03, 93.59 42.91, 92.36 62.97 M92.36 62.97 C91 76.49, 84.59 83.92, 71.37 83.96 M92.36 62.97 C92.32 76.39, 86.66 83.39, 71.37 83.96 M71.37 83.96 C56.99 82.86, 43.99 84.05, 20.99 83.96 M71.37 83.96 C58.08 83.4, 46.38 84.47, 20.99 83.96 M20.99 83.96 C5.32 82.64, 1.68 75.25, 0 62.97 M20.99 83.96 C7.95 82.08, 0.02 74.76, 0 62.97 M0 62.97 C-0.87 47.36, -0.86 34.56, 0 20.99 M0 62.97 C-0.56 53, -0.82 43.27, 0 20.99 M0 20.99 C1.46 6.03, 7.76 0.69, 20.99 0 M0 20.99 C0.84 6.46, 9.2 1.4, 20.99 0" stroke="#c2255c" stroke-width="2" fill="none"></path></g><g stroke-linecap="round" transform="translate(2940.0799904085907 615.9486239653816) rotate(0 46.17966723575819 41.981515668871)"><path d="M20.99 0 C41.36 3.29, 54.46 -0.9, 71.37 0 C82.12 -1.16, 91.23 8.91, 92.36 20.99 C92.84 37.56, 89.08 53.62, 92.36 62.97 C89.64 73.43, 86.04 83.81, 71.37 83.96 C53.63 83.95, 39.46 82.69, 20.99 83.96 C7.62 82.57, 1.9 73.48, 0 62.97 C1.24 51.49, -3.45 46.83, 0 20.99 C1.35 6.47, 3.43 -1.53, 20.99 0" stroke="none" stroke-width="0" fill="#d0bfff"></path><path d="M20.99 0 C34.3 1.16, 44.28 1.61, 71.37 0 M20.99 0 C37.61 -0.93, 53.71 -0.62, 71.37 0 M71.37 0 C84.96 0.95, 93.5 5.9, 92.36 20.99 M71.37 0 C87.46 2.22, 93.42 6.2, 92.36 20.99 M92.36 20.99 C93.68 32.06, 90.73 43.24, 92.36 62.97 M92.36 20.99 C92.89 34.43, 92.48 49.37, 92.36 62.97 M92.36 62.97 C93.63 77.19, 85.25 84.55, 71.37 83.96 M92.36 62.97 C94.5 76.7, 85.37 84.33, 71.37 83.96 M71.37 83.96 C58.84 82.65, 44.56 85.39, 20.99 83.96 M71.37 83.96 C51.86 83.51, 32.59 84.2, 20.99 83.96 M20.99 83.96 C8.27 84.94, 0.4 78.96, 0 62.97 M20.99 83.96 C6.48 82.53, -0.73 78.95, 0 62.97 M0 62.97 C2.3 45.27, 0.86 30.68, 0 20.99 M0 62.97 C0.86 54.51, 0.74 44.17, 0 20.99 M0 20.99 C-1.36 8.51, 6.63 -1.94, 20.99 0 M0 20.99 C1.34 4.71, 7.03 0.51, 20.99 0" stroke="#c2255c" stroke-width="2" fill="none"></path></g><g stroke-linecap="round"><g transform="translate(2155.0256474007015 1150.5132568156732) rotate(0 389.0287118648721 -237.89525545693596)"><path d="M0.8 -0.66 C130.2 -79.99, 647.77 -396.45, 777.38 -475.64 M-0.24 1.61 C129.47 -77.53, 650.04 -394.67, 779.74 -474.03" stroke="#c2255c" stroke-width="2" fill="none"></path></g></g><mask></mask><g stroke-linecap="round" transform="translate(1329.3891725795704 907.8732154732479) rotate(0 333.0533576397106 286.8736904039529)"><path d="M32 0 C214.95 -1.85, 396.84 -2.06, 634.11 0 M32 0 C266.4 -0.99, 501.01 -0.96, 634.11 0 M634.11 0 C654.81 0.64, 666.81 10.41, 666.11 32 M634.11 0 C653.97 -1.06, 665.47 11.62, 666.11 32 M666.11 32 C664.31 191.57, 664.35 352.04, 666.11 541.75 M666.11 32 C666.55 222.35, 667.14 412.73, 666.11 541.75 M666.11 541.75 C666.03 565.03, 657.29 574.8, 634.11 573.75 M666.11 541.75 C664.91 564.03, 653.88 575.83, 634.11 573.75 M634.11 573.75 C460.44 572.87, 288.03 571.84, 32 573.75 M634.11 573.75 C422.44 573.84, 210.69 573.79, 32 573.75 M32 573.75 C10.34 573.94, -0.48 562.98, 0 541.75 M32 573.75 C12.5 573.85, 1.55 563.04, 0 541.75 M0 541.75 C1.92 395.07, 1.43 249.57, 0 32 M0 541.75 C-1.32 352.63, -1.83 163.88, 0 32 M0 32 C-1.55 9.38, 11.99 -0.16, 32 0 M0 32 C1.79 8.45, 9.94 1.8, 32 0" stroke="#c2255c" stroke-width="2" fill="none"></path></g><g transform="translate(1467.8258615181091 1172.2469058772003) rotate(0 194.61666870117188 22.5)"><text x="194.61666870117188" y="31.536" font-family="Virgil, Segoe UI Emoji" font-size="36px" fill="#c2255c" text-anchor="middle" style="white-space: pre;" direction="ltr" dominant-baseline="alphabetic">IMAGEN RESULTADO</text></g><g stroke-linecap="round" transform="translate(1914.3952325895816 1410.7219124598932) rotate(0 35.68428831854041 33.48720121446922)"><path d="M16.74 0 C35.05 -2.15, 45.62 1.7, 54.62 0 C66.72 1.59, 68.99 5.19, 71.37 16.74 C73.43 28.72, 68.43 34.67, 71.37 50.23 C69.26 63.92, 63.94 64.59, 54.62 66.97 C45.44 67.73, 38.33 70.03, 16.74 66.97 C6.13 66.82, -0.33 62.85, 0 50.23 C-1.01 37.89, -0.39 33.81, 0 16.74 C-2.95 8.16, 8.56 -1.98, 16.74 0" stroke="none" stroke-width="0" fill="#e9ecef"></path><path d="M16.74 0 C29.9 -0.96, 42.57 1.15, 54.62 0 M16.74 0 C26.56 0.29, 37.59 -0.85, 54.62 0 M54.62 0 C65.22 0.19, 70.73 7.15, 71.37 16.74 M54.62 0 C67.48 1.05, 72.98 5.18, 71.37 16.74 M71.37 16.74 C72.81 26.05, 69.89 32.23, 71.37 50.23 M71.37 16.74 C70.66 24.65, 71.78 31.49, 71.37 50.23 M71.37 50.23 C71.55 61.96, 65.14 65.84, 54.62 66.97 M71.37 50.23 C69.93 63.29, 63.63 69.24, 54.62 66.97 M54.62 66.97 C40.06 67.2, 28.92 66.59, 16.74 66.97 M54.62 66.97 C45.07 67.67, 36.13 66.92, 16.74 66.97 M16.74 66.97 C7.31 67.92, -0.34 61.86, 0 50.23 M16.74 66.97 C4.02 67.12, 1.44 62.39, 0 50.23 M0 50.23 C1.46 42.36, 1.36 29.19, 0 16.74 M0 50.23 C0.37 44.01, -0.54 36.89, 0 16.74 M0 16.74 C-0.37 7.19, 5.93 -1.89, 16.74 0 M0 16.74 C1.49 6.67, 6.22 1.48, 16.74 0" stroke="#c2255c" stroke-width="2" fill="none"></path></g><g transform="translate(2176.6286356719747 1138.8808785157635) rotate(0 674.5999755859375 157.5)"><text x="0" y="31.536" font-family="Virgil, Segoe UI Emoji" font-size="36px" fill="#c2255c" text-anchor="start" style="white-space: pre;" direction="ltr" dominant-baseline="alphabetic">SI AMBOS PIXELES TIENEN EL MISMO VALOR </text><text x="0" y="76.536" font-family="Virgil, Segoe UI Emoji" font-size="36px" fill="#c2255c" text-anchor="start" style="white-space: pre;" direction="ltr" dominant-baseline="alphabetic">    =&gt; APARECEN EN LA IMAGEN RESULTADO TAMBIEN LLAMADA</text><text x="0" y="121.536" font-family="Virgil, Segoe UI Emoji" font-size="36px" fill="#c2255c" text-anchor="start" style="white-space: pre;" direction="ltr" dominant-baseline="alphabetic"> 'IMAGEN COINCIDENCIA' QUE CONVIERTE A ESCALADEGRISES(PIXEL) </text><text x="0" y="166.536" font-family="Virgil, Segoe UI Emoji" font-size="36px" fill="#c2255c" text-anchor="start" style="white-space: pre;" direction="ltr" dominant-baseline="alphabetic">Y LO PONE EN SU LUGAR</text><text x="0" y="211.536" font-family="Virgil, Segoe UI Emoji" font-size="36px" fill="#c2255c" text-anchor="start" style="white-space: pre;" direction="ltr" dominant-baseline="alphabetic"></text><text x="0" y="256.536" font-family="Virgil, Segoe UI Emoji" font-size="36px" fill="#c2255c" text-anchor="start" style="white-space: pre;" direction="ltr" dominant-baseline="alphabetic">SI LOS PIXELES SON DIFERENTES EN VALORES</text><text x="0" y="301.536" font-family="Virgil, Segoe UI Emoji" font-size="36px" fill="#c2255c" text-anchor="start" style="white-space: pre;" direction="ltr" dominant-baseline="alphabetic">    =&gt; SE PONE EN BLANCO EN SU LUGAR (255) </text></g><g stroke-linecap="round"><g transform="translate(2488.822427713714 1501.2557010054516) rotate(0 -186.11805279866167 144.1365371297902)"><path d="M-0.78 0.48 C-55.84 16.75, -267.33 49.57, -329.39 97.62 C-391.45 145.67, -366.16 256.89, -373.15 288.77 M1 -0.31 C-54.22 16.14, -267.93 51.15, -329.89 98.98 C-391.85 146.82, -363.96 255.41, -370.74 286.69" stroke="#c2255c" stroke-width="2" fill="none"></path></g><g transform="translate(2488.822427713714 1501.2557010054516) rotate(0 -186.11805279866167 144.1365371297902)"><path d="M-379.24 263.18 C-375.22 273.59, -373.36 279.54, -370.74 286.69 M-379.24 263.18 C-376.39 271.2, -373.8 279.48, -370.74 286.69" stroke="#c2255c" stroke-width="2" fill="none"></path></g><g transform="translate(2488.822427713714 1501.2557010054516) rotate(0 -186.11805279866167 144.1365371297902)"><path d="M-362.13 263.22 C-364.6 273.5, -369.23 279.44, -370.74 286.69 M-362.13 263.22 C-365.13 271.32, -368.39 279.59, -370.74 286.69" stroke="#c2255c" stroke-width="2" fill="none"></path></g></g><mask></mask><g stroke-linecap="round" transform="translate(1433.6870005694213 1831.510290933903) rotate(0 723.4814533602116 433.80899524500137)"><path d="M32 0 C440.08 4.88, 848.96 4.47, 1414.96 0 M32 0 C458.28 -0.09, 884.6 0.48, 1414.96 0 M1414.96 0 C1437.12 -0.26, 1445.09 11.79, 1446.96 32 M1414.96 0 C1436.29 0.05, 1448.85 9.96, 1446.96 32 M1446.96 32 C1446.82 268.34, 1445.77 504.4, 1446.96 835.62 M1446.96 32 C1444.69 335.74, 1444.16 638.82, 1446.96 835.62 M1446.96 835.62 C1446.84 855.17, 1436.94 868.58, 1414.96 867.62 M1446.96 835.62 C1448.34 858.77, 1435.01 868.28, 1414.96 867.62 M1414.96 867.62 C952.84 871.87, 490.33 871.02, 32 867.62 M1414.96 867.62 C1037.99 863.76, 662.07 863.61, 32 867.62 M32 867.62 C12.06 866.89, 0.19 858.57, 0 835.62 M32 867.62 C9.28 869.12, -0.74 857.78, 0 835.62 M0 835.62 C-0.2 605.42, 1.05 374.44, 0 32 M0 835.62 C1.73 515.39, 1.76 194.32, 0 32 M0 32 C0.6 9.15, 9.19 0.13, 32 0 M0 32 C0.71 9.66, 8.99 -2.2, 32 0" stroke="#c2255c" stroke-width="2" fill="none"></path></g><g transform="translate(1825.5144801455517 1641.1940865683546) rotate(0 123.96666717529297 22.5)"><text x="0" y="31.536" font-family="Virgil, Segoe UI Emoji" font-size="36px" fill="#c2255c" text-anchor="start" style="white-space: pre;" direction="ltr" dominant-baseline="alphabetic">ESTRATEGIA</text></g><g stroke-linecap="round"><g transform="translate(1481.2660516608087 1932.2659285391937) rotate(0 65.77104121456466 -2.7987677112582787)"><path d="M-0.93 -0.85 C21.37 -1.94, 110.76 -5.32, 132.65 -6.13 M0.79 1.31 C23.12 0.35, 110.3 -3.91, 132.29 -4.87" stroke="#c2255c" stroke-width="2" fill="none"></path></g><g transform="translate(1481.2660516608087 1932.2659285391937) rotate(0 65.77104121456466 -2.7987677112582787)"><path d="M109.22 4.76 C112.56 4.79, 117.88 -0.93, 132.29 -4.87 M109.22 4.76 C116.23 2.42, 123.25 -1.46, 132.29 -4.87" stroke="#c2255c" stroke-width="2" fill="none"></path></g><g transform="translate(1481.2660516608087 1932.2659285391937) rotate(0 65.77104121456466 -2.7987677112582787)"><path d="M108.42 -12.32 C111.98 -8.74, 117.47 -10.91, 132.29 -4.87 M108.42 -12.32 C115.78 -9.72, 123.03 -8.65, 132.29 -4.87" stroke="#c2255c" stroke-width="2" fill="none"></path></g></g><mask></mask><g stroke-linecap="round"><g transform="translate(1495.4926035764968 2021.4969203696455) rotate(0 65.77104121456466 -2.7987677112582787)"><path d="M-0.81 -1.1 C21.13 -2.02, 108.61 -4.78, 130.53 -5.47 M0.97 0.94 C23.37 0.23, 110.68 -3.08, 132.71 -3.87" stroke="#c2255c" stroke-width="2" fill="none"></path></g><g transform="translate(1495.4926035764968 2021.4969203696455) rotate(0 65.77104121456466 -2.7987677112582787)"><path d="M109.55 5.54 C112.53 2.06, 119.38 0.38, 132.71 -3.87 M109.55 5.54 C117.9 1.84, 125.79 -1.14, 132.71 -3.87" stroke="#c2255c" stroke-width="2" fill="none"></path></g><g transform="translate(1495.4926035764968 2021.4969203696455) rotate(0 65.77104121456466 -2.7987677112582787)"><path d="M108.92 -11.54 C112.04 -11.48, 119.02 -9.6, 132.71 -3.87 M108.92 -11.54 C117.36 -9.65, 125.46 -7.03, 132.71 -3.87" stroke="#c2255c" stroke-width="2" fill="none"></path></g></g><mask></mask><g transform="translate(1660.3871851813253 1893.914064745859) rotate(0 549.1666870117188 22.5)"><text x="0" y="31.536" font-family="Virgil, Segoe UI Emoji" font-size="36px" fill="#c2255c" text-anchor="start" style="white-space: pre;" direction="ltr" dominant-baseline="alphabetic">CADA PIXEL ES DE 4 BYTEs, cada componente es de 1 byte</text></g><g transform="translate(1668.7834883150995 2005.864773196181) rotate(0 538.6166381835938 22.5)"><text x="0" y="31.536" font-family="Virgil, Segoe UI Emoji" font-size="36px" fill="#c2255c" text-anchor="start" style="white-space: pre;" direction="ltr" dominant-baseline="alphabetic">Tenemos que tomar 1 pixel de A y uno de B, los comparamos</text></g><g transform="translate(1632.3995080687446 2087.0290368226642) rotate(0 371.6833190917969 135)"><text x="0" y="31.536" font-family="Virgil, Segoe UI Emoji" font-size="36px" fill="#c2255c" text-anchor="start" style="white-space: pre;" direction="ltr" dominant-baseline="alphabetic">como? los valores que nos importan son : </text><text x="0" y="76.536" font-family="Virgil, Segoe UI Emoji" font-size="36px" fill="#c2255c" text-anchor="start" style="white-space: pre;" direction="ltr" dominant-baseline="alphabetic">    - BLUE</text><text x="0" y="121.536" font-family="Virgil, Segoe UI Emoji" font-size="36px" fill="#c2255c" text-anchor="start" style="white-space: pre;" direction="ltr" dominant-baseline="alphabetic">    - GREEN</text><text x="0" y="166.536" font-family="Virgil, Segoe UI Emoji" font-size="36px" fill="#c2255c" text-anchor="start" style="white-space: pre;" direction="ltr" dominant-baseline="alphabetic">    - RED</text><text x="0" y="211.536" font-family="Virgil, Segoe UI Emoji" font-size="36px" fill="#c2255c" text-anchor="start" style="white-space: pre;" direction="ltr" dominant-baseline="alphabetic">con el alpha no hacemos nada</text><text x="0" y="256.536" font-family="Virgil, Segoe UI Emoji" font-size="36px" fill="#c2255c" text-anchor="start" style="white-space: pre;" direction="ltr" dominant-baseline="alphabetic"></text></g><g stroke-linecap="round"><g transform="translate(1475.5228480499543 2396.751510298098) rotate(0 65.77104121456466 -2.7987677112582787)"><path d="M-0.09 -0.16 C22.14 -1.42, 110.71 -5.4, 132.45 -6.38 M-1.6 -1.29 C20.64 -1.91, 109.61 -4.64, 131.98 -5.25" stroke="#c2255c" stroke-width="2" fill="none"></path></g><g transform="translate(1475.5228480499543 2396.751510298098) rotate(0 65.77104121456466 -2.7987677112582787)"><path d="M108.75 3.98 C113.54 3.47, 117.66 -2.08, 131.98 -5.25 M108.75 3.98 C114.42 1.63, 121.54 -0.49, 131.98 -5.25" stroke="#c2255c" stroke-width="2" fill="none"></path></g><g transform="translate(1475.5228480499543 2396.751510298098) rotate(0 65.77104121456466 -2.7987677112582787)"><path d="M108.25 -13.11 C113.32 -9.84, 117.55 -11.59, 131.98 -5.25 M108.25 -13.11 C114.21 -10.97, 121.46 -8.6, 131.98 -5.25" stroke="#c2255c" stroke-width="2" fill="none"></path></g></g><mask></mask><g transform="translate(1654.643981570471 2358.399646504762) rotate(0 603.0166625976562 112.5)"><text x="0" y="31.536" font-family="Virgil, Segoe UI Emoji" font-size="36px" fill="#c2255c" text-anchor="start" style="white-space: pre;" direction="ltr" dominant-baseline="alphabetic">como tenemos que, en caso de ser iguales, aplicar unas operaciones</text><text x="0" y="76.536" font-family="Virgil, Segoe UI Emoji" font-size="36px" fill="#c2255c" text-anchor="start" style="white-space: pre;" direction="ltr" dominant-baseline="alphabetic">vamos a necesitar espacio para no romper todo, </text><text x="0" y="121.536" font-family="Virgil, Segoe UI Emoji" font-size="36px" fill="#c2255c" text-anchor="start" style="white-space: pre;" direction="ltr" dominant-baseline="alphabetic">en particular nos interesara que el valor a chequear de 4 bytes</text><text x="0" y="166.536" font-family="Virgil, Segoe UI Emoji" font-size="36px" fill="#c2255c" text-anchor="start" style="white-space: pre;" direction="ltr" dominant-baseline="alphabetic">pase a ser uno de 16 bytes donde cada componente es ahora</text><text x="0" y="211.536" font-family="Virgil, Segoe UI Emoji" font-size="36px" fill="#c2255c" text-anchor="start" style="white-space: pre;" direction="ltr" dominant-baseline="alphabetic">un double y poder operar con el</text></g><g stroke-linecap="round"><g transform="translate(1643.7679974698494 2404.638212769736) rotate(0 -353.16927154564127 664.7063590110092)"><path d="M0.52 0.1 C-110.36 81.88, -547.65 269.09, -665.64 490.62 C-783.63 712.16, -700.69 1189.51, -707.42 1329.29 M-0.67 -0.9 C-111.13 80.5, -546 266.73, -663.4 488.63 C-780.8 710.54, -698.06 1190.26, -705.09 1330.55" stroke="#c2255c" stroke-width="2" fill="none"></path></g><g transform="translate(1643.7679974698494 2404.638212769736) rotate(0 -353.16927154564127 664.7063590110092)"><path d="M-714.8 1307.51 C-712.05 1312.15, -709.19 1318.01, -705.09 1330.55 M-714.8 1307.51 C-711.25 1313.8, -708.57 1320.26, -705.09 1330.55" stroke="#c2255c" stroke-width="2" fill="none"></path></g><g transform="translate(1643.7679974698494 2404.638212769736) rotate(0 -353.16927154564127 664.7063590110092)"><path d="M-697.72 1306.66 C-699.54 1311.6, -701.26 1317.69, -705.09 1330.55 M-697.72 1306.66 C-699.12 1313.18, -701.4 1319.88, -705.09 1330.55" stroke="#c2255c" stroke-width="2" fill="none"></path></g></g><mask></mask><g stroke-linecap="round" transform="translate(758.8551712108952 3740.881959304408) rotate(0 111.95070845032285 138.53900170727456)"><path d="M32 0 C67.09 1.83, 97.17 1.76, 191.9 0 M32 0 C69.94 -2.49, 108.02 -1.64, 191.9 0 M191.9 0 C211.7 1.68, 222.33 9.21, 223.9 32 M191.9 0 C213.39 -2.26, 222.82 8.87, 223.9 32 M223.9 32 C224.79 108.82, 224.01 182.11, 223.9 245.08 M223.9 32 C224.19 111.84, 225.09 191.52, 223.9 245.08 M223.9 245.08 C223.98 265.41, 214.17 277.2, 191.9 277.08 M223.9 245.08 C222.26 265.5, 212.9 278.35, 191.9 277.08 M191.9 277.08 C158.71 277.96, 119.92 279.28, 32 277.08 M191.9 277.08 C155.97 275.8, 120.7 276.02, 32 277.08 M32 277.08 C10.39 278.93, -1.23 267.51, 0 245.08 M32 277.08 C9.11 278.5, 1.82 264.56, 0 245.08 M0 245.08 C-1.99 180.3, -1.79 116.56, 0 32 M0 245.08 C1.5 183.51, 2.16 121.43, 0 32 M0 32 C1.8 9, 9.11 1.01, 32 0 M0 32 C-1.87 11.46, 12.59 -0.67, 32 0" stroke="#c2255c" stroke-width="2" fill="none"></path></g><g transform="translate(858.605879851953 3856.920961011683) rotate(0 12.199999809265137 22.5)"><text x="12.199999809265137" y="31.536" font-family="Virgil, Segoe UI Emoji" font-size="36px" fill="#c2255c" text-anchor="middle" style="white-space: pre;" direction="ltr" dominant-baseline="alphabetic">R</text></g><g stroke-linecap="round" transform="translate(1013.5430329353794 3747.8788785825536) rotate(0 111.95070845032285 138.53900170727456)"><path d="M32 0 C65.72 -1.58, 101.94 -2.08, 191.9 0 M32 0 C86.01 -1.63, 139.4 -2.15, 191.9 0 M191.9 0 C212.29 -1.64, 225.76 11.24, 223.9 32 M191.9 0 C212.69 0.38, 222.57 12.21, 223.9 32 M223.9 32 C223.13 115.19, 221.08 199.66, 223.9 245.08 M223.9 32 C223.5 86.6, 222.58 141.28, 223.9 245.08 M223.9 245.08 C223.24 267.2, 215.04 275.88, 191.9 277.08 M223.9 245.08 C224.44 264.19, 214.14 277.46, 191.9 277.08 M191.9 277.08 C131.72 278.51, 70.63 278.29, 32 277.08 M191.9 277.08 C159.65 276.77, 127.36 277.17, 32 277.08 M32 277.08 C11.63 278.83, 1.77 267.27, 0 245.08 M32 277.08 C11.92 275.75, -0.27 268.48, 0 245.08 M0 245.08 C2.65 181.38, 2.46 115.08, 0 32 M0 245.08 C1.07 183.05, -0.1 121.26, 0 32 M0 32 C0.78 9.59, 11.87 -1.21, 32 0 M0 32 C1.15 11.27, 9.58 -1.26, 32 0" stroke="#c2255c" stroke-width="2" fill="none"></path></g><g transform="translate(1111.2937415764372 3863.9178802898277) rotate(0 14.199999809265137 22.5)"><text x="14.199999809265137" y="31.536" font-family="Virgil, Segoe UI Emoji" font-size="36px" fill="#c2255c" text-anchor="middle" style="white-space: pre;" direction="ltr" dominant-baseline="alphabetic">G</text></g><g stroke-linecap="round" transform="translate(1262.633359237348 3753.4764140050693) rotate(0 111.95070845032285 138.53900170727456)"><path d="M32 0 C70.44 1.17, 108.85 1.77, 191.9 0 M32 0 C71.85 0.78, 113.58 1.88, 191.9 0 M191.9 0 C212.77 0.33, 222.75 12, 223.9 32 M191.9 0 C215.4 -2.1, 224.15 11.9, 223.9 32 M223.9 32 C221.96 85.75, 223.07 141.78, 223.9 245.08 M223.9 32 C222.49 91.26, 223.57 149.31, 223.9 245.08 M223.9 245.08 C224.37 264.48, 214.02 277.41, 191.9 277.08 M223.9 245.08 C225.74 267.71, 212.43 277.77, 191.9 277.08 M191.9 277.08 C125.95 279.3, 64.52 278.07, 32 277.08 M191.9 277.08 C156.14 277.43, 120.3 276.98, 32 277.08 M32 277.08 C11.76 275.92, -0.24 268.21, 0 245.08 M32 277.08 C10.72 275.42, -0.2 268.11, 0 245.08 M0 245.08 C-1.36 172.01, -0.38 101, 0 32 M0 245.08 C2.09 188.74, 2.28 132.8, 0 32 M0 32 C1 11.2, 9.72 -1.1, 32 0 M0 32 C2.02 8.74, 9.72 -0.35, 32 0" stroke="#c2255c" stroke-width="2" fill="none"></path></g><g transform="translate(1361.500734672229 3869.5154157123434) rotate(0 13.083333015441895 22.5)"><text x="13.083333015441895" y="31.536" font-family="Virgil, Segoe UI Emoji" font-size="36px" fill="#c2255c" text-anchor="middle" style="white-space: pre;" direction="ltr" dominant-baseline="alphabetic">B</text></g><g stroke-linecap="round" transform="translate(1511.7236855393166 3756.275181716327) rotate(0 111.95070845032285 138.53900170727456)"><path d="M32 0 C77.4 2.43, 124.86 1.69, 191.9 0 M32 0 C77.96 -0.87, 122.55 -1.56, 191.9 0 M191.9 0 C213.2 1.12, 222.91 9.32, 223.9 32 M191.9 0 C211.39 -0.29, 225.38 10.01, 223.9 32 M223.9 32 C227.11 116.49, 227.01 199.45, 223.9 245.08 M223.9 32 C222.09 79.45, 222.91 125.99, 223.9 245.08 M223.9 245.08 C224.21 266.43, 211.91 278.18, 191.9 277.08 M223.9 245.08 C222.01 266.86, 214.47 278.3, 191.9 277.08 M191.9 277.08 C130.55 275.47, 71.88 278.24, 32 277.08 M191.9 277.08 C143.81 277.62, 98.18 277.3, 32 277.08 M32 277.08 C12.04 275.7, -1.19 268.09, 0 245.08 M32 277.08 C8.51 275.79, 0.33 266.28, 0 245.08 M0 245.08 C-1.06 188.82, 1.89 133.14, 0 32 M0 245.08 C-0.15 176.3, 0.57 108.2, 0 32 M0 32 C-0.11 11.48, 10.24 -0.22, 32 0 M0 32 C-1.29 12.49, 11.46 -1.56, 32 0" stroke="#c2255c" stroke-width="2" fill="none"></path></g><g transform="translate(1611.8743937989045 3872.314183423601) rotate(0 11.800000190734863 22.5)"><text x="11.800000190734863" y="31.536" font-family="Virgil, Segoe UI Emoji" font-size="36px" fill="#c2255c" text-anchor="middle" style="white-space: pre;" direction="ltr" dominant-baseline="alphabetic">A</text></g><g stroke-linecap="round" transform="translate(168.49010711739538 4255.549102957472) rotate(0 363.8398024635494 92.35933447151638)"><path d="M32 0 C268.73 -1.94, 505.37 -1.81, 695.68 0 M32 0 C189.06 -0.23, 346.15 0.16, 695.68 0 M695.68 0 C715.49 0.87, 725.88 10.52, 727.68 32 M695.68 0 C718.38 0.42, 728.34 10.1, 727.68 32 M727.68 32 C726.84 76.73, 730.11 122.05, 727.68 152.72 M727.68 32 C727.77 79.16, 728.43 127.37, 727.68 152.72 M727.68 152.72 C728.61 173.59, 717.94 184.89, 695.68 184.72 M727.68 152.72 C726.49 176.17, 717.45 182.63, 695.68 184.72 M695.68 184.72 C484.46 185.36, 275.02 185.48, 32 184.72 M695.68 184.72 C455.59 186.33, 215.07 186.24, 32 184.72 M32 184.72 C9.52 183.14, 0.29 175.31, 0 152.72 M32 184.72 C10.72 182.49, 0.35 175.56, 0 152.72 M0 152.72 C0 107.43, -2.16 67.65, 0 32 M0 152.72 C-0.64 106.67, 0.92 63.14, 0 32 M0 32 C-0.05 10.28, 10.75 -1.91, 32 0 M0 32 C2.12 11.04, 9.48 2.26, 32 0" stroke="#c2255c" stroke-width="2" fill="none"></path></g><g transform="translate(520.1299097716794 4325.408437428989) rotate(0 12.199999809265137 22.5)"><text x="12.199999809265137" y="31.536" font-family="Virgil, Segoe UI Emoji" font-size="36px" fill="#c2255c" text-anchor="middle" style="white-space: pre;" direction="ltr" dominant-baseline="alphabetic">R</text></g><g stroke-linecap="round" transform="translate(924.1573891570745 4249.951567534956) rotate(0 363.8398024635494 92.35933447151638)"><path d="M32 0 C196.42 0.44, 359.83 1.34, 695.68 0 M32 0 C219.72 2.83, 407.09 2.49, 695.68 0 M695.68 0 C716.08 0.46, 728.35 11.87, 727.68 32 M695.68 0 C716.34 1.98, 725.97 12.61, 727.68 32 M727.68 32 C726.55 67.08, 727.49 103.04, 727.68 152.72 M727.68 32 C727.22 75.77, 727.58 118.1, 727.68 152.72 M727.68 152.72 C728.43 174.31, 718.38 184.24, 695.68 184.72 M727.68 152.72 C727.29 171.88, 714.88 183.83, 695.68 184.72 M695.68 184.72 C468.72 185.66, 240.9 184.56, 32 184.72 M695.68 184.72 C497.7 184.19, 298.92 184.13, 32 184.72 M32 184.72 C11.15 186.03, -0.65 175, 0 152.72 M32 184.72 C10.78 184.01, -1.32 176.35, 0 152.72 M0 152.72 C2.01 127.62, 3.09 103.85, 0 32 M0 152.72 C0.11 119.94, -0.91 89.75, 0 32 M0 32 C1.6 9.45, 10.23 1.53, 32 0 M0 32 C-1.43 8.4, 12.04 0.61, 32 0" stroke="#c2255c" stroke-width="2" fill="none"></path></g><g transform="translate(1273.7971918113587 4319.810902006472) rotate(0 14.199999809265137 22.5)"><text x="14.199999809265137" y="31.536" font-family="Virgil, Segoe UI Emoji" font-size="36px" fill="#c2255c" text-anchor="middle" style="white-space: pre;" direction="ltr" dominant-baseline="alphabetic">G</text></g><g stroke-linecap="round" transform="translate(1677.025903485496 4258.34787066873) rotate(0 363.8398024635494 92.35933447151638)"><path d="M32 0 C176.55 0.29, 322.35 0.76, 695.68 0 M32 0 C197.59 0.76, 362.65 0.77, 695.68 0 M695.68 0 C718.12 -1.54, 727.09 11.18, 727.68 32 M695.68 0 C715.03 1.49, 728.04 12.61, 727.68 32 M727.68 32 C727.16 73.9, 726.47 117.09, 727.68 152.72 M727.68 32 C726.99 77.36, 727.86 123.58, 727.68 152.72 M727.68 152.72 C728.18 174.15, 718.47 185.93, 695.68 184.72 M727.68 152.72 C725.78 174.51, 716.59 185.15, 695.68 184.72 M695.68 184.72 C537.8 184.87, 380.9 184.51, 32 184.72 M695.68 184.72 C556.07 182.3, 416.42 182, 32 184.72 M32 184.72 C10.26 185.59, 1.49 176.01, 0 152.72 M32 184.72 C11.5 182.78, -1.93 172.7, 0 152.72 M0 152.72 C2.26 126.4, 2.09 100.5, 0 32 M0 152.72 C1.36 114.43, 0.5 76.92, 0 32 M0 32 C-0.8 11.58, 11.25 -1.43, 32 0 M0 32 C-1.94 10.69, 9.12 -1.63, 32 0" stroke="#c2255c" stroke-width="2" fill="none"></path></g><g transform="translate(2027.7823729336035 4328.2072051402465) rotate(0 13.083333015441895 22.5)"><text x="13.083333015441895" y="31.536" font-family="Virgil, Segoe UI Emoji" font-size="36px" fill="#c2255c" text-anchor="middle" style="white-space: pre;" direction="ltr" dominant-baseline="alphabetic">B</text></g><g stroke-linecap="round" transform="translate(2427.0956501026594 4247.1527998237) rotate(0 363.8398024635494 92.35933447151638)"><path d="M32 0 C288.03 -2.18, 545.65 -2.02, 695.68 0 M32 0 C278.79 -0.75, 524.49 -1.01, 695.68 0 M695.68 0 C715.65 0.19, 729.48 9.4, 727.68 32 M695.68 0 C717.12 0.21, 726.55 10.23, 727.68 32 M727.68 32 C727.41 79.67, 727.78 125.47, 727.68 152.72 M727.68 32 C727.36 74.59, 726.31 119.08, 727.68 152.72 M727.68 152.72 C726.18 174.5, 718.72 183.78, 695.68 184.72 M727.68 152.72 C726.45 175.23, 717.02 185.68, 695.68 184.72 M695.68 184.72 C445.49 184.41, 197.4 183.48, 32 184.72 M695.68 184.72 C444.78 184.06, 193.56 183.83, 32 184.72 M32 184.72 C10.55 185.69, 0.56 175.77, 0 152.72 M32 184.72 C10.09 184.12, -0.92 175.06, 0 152.72 M0 152.72 C1.61 117.24, -0.48 81.24, 0 32 M0 152.72 C1.57 114.2, 0.2 73.99, 0 32 M0 32 C1.09 12.09, 9.53 -0.31, 32 0 M0 32 C2.24 10.01, 10.46 -2.23, 32 0" stroke="#c2255c" stroke-width="2" fill="none"></path></g><g transform="translate(2779.1354523754735 4317.012134295216) rotate(0 11.800000190734863 22.5)"><text x="11.800000190734863" y="31.536" font-family="Virgil, Segoe UI Emoji" font-size="36px" fill="#c2255c" text-anchor="middle" style="white-space: pre;" direction="ltr" dominant-baseline="alphabetic">A</text></g><g stroke-linecap="round"><g transform="translate(766.9785661490191 4018.959962718958) rotate(0 -136.91570226284387 114.09641855236987)"><path d="M-1.06 -0.73 C-46.69 37.17, -228.94 190.41, -274.52 228.43 M0.59 1.5 C-44.58 39.54, -226.73 188.63, -272.17 226.43" stroke="#c2255c" stroke-width="2" fill="none"></path></g><g transform="translate(766.9785661490191 4018.959962718958) rotate(0 -136.91570226284387 114.09641855236987)"><path d="M-259.48 204.89 C-263.53 208.73, -264.92 213.81, -272.17 226.43 M-259.48 204.89 C-262.49 210.1, -265.13 215.3, -272.17 226.43" stroke="#c2255c" stroke-width="2" fill="none"></path></g><g transform="translate(766.9785661490191 4018.959962718958) rotate(0 -136.91570226284387 114.09641855236987)"><path d="M-248.6 218.08 C-255.34 218.7, -259.31 220.65, -272.17 226.43 M-248.6 218.08 C-254.1 220.28, -259.29 222.39, -272.17 226.43" stroke="#c2255c" stroke-width="2" fill="none"></path></g></g><mask></mask><g stroke-linecap="round"><g transform="translate(1110.4993575445371 4025.9568819971028) rotate(0 66.35877534797868 110.59795891329759)"><path d="M-0.06 -0.93 C22.15 35.82, 110.32 184.4, 132.61 221.5 M-1.54 1.2 C20.55 38.09, 109.1 183.14, 131.6 219.53" stroke="#c2255c" stroke-width="2" fill="none"></path></g><g transform="translate(1110.4993575445371 4025.9568819971028) rotate(0 66.35877534797868 110.59795891329759)"><path d="M112.03 203.98 C115.47 207.67, 122.39 213.34, 131.6 219.53 M112.03 203.98 C119.33 208.52, 125.72 215.09, 131.6 219.53" stroke="#c2255c" stroke-width="2" fill="none"></path></g><g transform="translate(1110.4993575445371 4025.9568819971028) rotate(0 66.35877534797868 110.59795891329759)"><path d="M126.6 195.04 C126.5 200.94, 129.79 208.83, 131.6 219.53 M126.6 195.04 C128.93 202.58, 130.38 212.18, 131.6 219.53" stroke="#c2255c" stroke-width="2" fill="none"></path></g></g><mask></mask><g stroke-linecap="round"><g transform="translate(1385.9540615146575 4034.446453768085) rotate(0 328.85520607282217 109.15194073906468)"><path d="M0.91 0.18 C110.52 36.71, 548.15 181.79, 657.66 218.05 M-0.08 -0.78 C109.37 36.05, 547.12 182.86, 656.69 219.45" stroke="#c2255c" stroke-width="2" fill="none"></path></g><g transform="translate(1385.9540615146575 4034.446453768085) rotate(0 328.85520607282217 109.15194073906468)"><path d="M631.7 220.1 C639.49 219.64, 646.26 219.93, 656.69 219.45 M631.7 220.1 C637.33 218.91, 644.07 220.32, 656.69 219.45" stroke="#c2255c" stroke-width="2" fill="none"></path></g><g transform="translate(1385.9540615146575 4034.446453768085) rotate(0 328.85520607282217 109.15194073906468)"><path d="M637.13 203.89 C643.13 208.32, 648.27 213.48, 656.69 219.45 M637.13 203.89 C641.23 206.85, 646.59 212.38, 656.69 219.45" stroke="#c2255c" stroke-width="2" fill="none"></path></g></g><mask></mask><g stroke-linecap="round"><g transform="translate(1736.6251024399621 3885.5644022645847) rotate(0 511.7619526512047 179.39481492392815)"><path d="M0.42 0.74 C171.17 60.43, 853.51 298.74, 1024.08 358.54 M-0.82 0.08 C169.85 59.91, 852.75 300.36, 1023.43 359.94" stroke="#c2255c" stroke-width="2" fill="none"></path></g><g transform="translate(1736.6251024399621 3885.5644022645847) rotate(0 511.7619526512047 179.39481492392815)"><path d="M998.43 360.23 C1006.33 361, 1011.35 360.53, 1023.43 359.94 M998.43 360.23 C1007.24 359.17, 1016.61 359.62, 1023.43 359.94" stroke="#c2255c" stroke-width="2" fill="none"></path></g><g transform="translate(1736.6251024399621 3885.5644022645847) rotate(0 511.7619526512047 179.39481492392815)"><path d="M1004.09 344.1 C1010.53 349.19, 1014.04 353.02, 1023.43 359.94 M1004.09 344.1 C1010.88 348.91, 1018.21 355.18, 1023.43 359.94" stroke="#c2255c" stroke-width="2" fill="none"></path></g></g><mask></mask><g transform="translate(67.73446951210462 4513.035732393216) rotate(0 906.4000244140625 45)"><text x="0" y="31.536" font-family="Virgil, Segoe UI Emoji" font-size="36px" fill="#c2255c" text-anchor="start" style="white-space: pre;" direction="ltr" dominant-baseline="alphabetic">Ahora que son de 4 bytes cada componente podemos realizar operaciones con float y no romper nada</text><text x="0" y="76.536" font-family="Virgil, Segoe UI Emoji" font-size="36px" fill="#c2255c" text-anchor="start" style="white-space: pre;" direction="ltr" dominant-baseline="alphabetic"></text></g><g stroke-linecap="round"><g transform="translate(162.89257169487882 4359.103508274021) rotate(0 -69.96919278145197 205.7094267774678)"><path d="M-0.66 0.74 C-25.86 37.37, -153.71 150.72, -151.66 219.13 C-149.6 287.54, -15.65 379.19, 11.65 411.19 M1.19 0.08 C-24.17 36.44, -154.53 148.72, -152.88 217.44 C-151.22 286.15, -16.5 379.95, 11.13 412.39" stroke="#c2255c" stroke-width="2" fill="none"></path></g><g transform="translate(162.89257169487882 4359.103508274021) rotate(0 -69.96919278145197 205.7094267774678)"><path d="M-11.96 402.8 C-4.78 404.55, 1.36 408.67, 11.13 412.39 M-11.96 402.8 C-6.17 405.9, 0.9 409.04, 11.13 412.39" stroke="#c2255c" stroke-width="2" fill="none"></path></g><g transform="translate(162.89257169487882 4359.103508274021) rotate(0 -69.96919278145197 205.7094267774678)"><path d="M-0.39 390.2 C3.71 395.16, 6.84 402.56, 11.13 412.39 M-0.39 390.2 C2.24 396.82, 6.06 403.5, 11.13 412.39" stroke="#c2255c" stroke-width="2" fill="none"></path></g></g><mask></mask><g stroke-linecap="round"><g transform="translate(1293.5947270431434 4440.267771900505) rotate(0 319.0595190834185 188.91682050991994)"><path d="M0.79 0.4 C107.11 14.95, 605.26 23.99, 638.17 86.99 C671.08 149.99, 271.44 330.06, 198.24 378.38 M-0.25 -0.44 C105.9 13.75, 604.34 22.19, 637.25 84.99 C670.17 147.78, 270.21 327.57, 197.23 376.32" stroke="#c2255c" stroke-width="2" fill="none"></path></g><g transform="translate(1293.5947270431434 4440.267771900505) rotate(0 319.0595190834185 188.91682050991994)"><path d="M213.79 357.59 C209.13 363.75, 203.56 368.86, 197.23 376.32 M213.79 357.59 C208.65 364.8, 202.31 371.09, 197.23 376.32" stroke="#c2255c" stroke-width="2" fill="none"></path></g><g transform="translate(1293.5947270431434 4440.267771900505) rotate(0 319.0595190834185 188.91682050991994)"><path d="M221.95 372.61 C214.73 374.04, 206.56 374.36, 197.23 376.32 M221.95 372.61 C213.96 374.57, 204.8 375.68, 197.23 376.32" stroke="#c2255c" stroke-width="2" fill="none"></path></g></g><mask></mask><g stroke-linecap="round"><g transform="translate(2044.9173918978065 4444.066539611763) rotate(0 20.364298715684072 198.21250749932324)"><path d="M-0.72 0 C5.92 66.03, 34.16 330.94, 40.94 396.97 M1.1 -1.05 C7.5 64.56, 33.21 328.73, 40.1 395.14" stroke="#c2255c" stroke-width="2" fill="none"></path></g><g transform="translate(2044.9173918978065 4444.066539611763) rotate(0 20.364298715684072 198.21250749932324)"><path d="M29.25 372.61 C33.63 381.84, 38.79 388.99, 40.1 395.14 M29.25 372.61 C32.78 379.94, 35.63 384.45, 40.1 395.14" stroke="#c2255c" stroke-width="2" fill="none"></path></g><g transform="translate(2044.9173918978065 4444.066539611763) rotate(0 20.364298715684072 198.21250749932324)"><path d="M46.27 370.91 C43.99 380.7, 42.49 388.52, 40.1 395.14 M46.27 370.91 C45.03 378.55, 43.12 383.54, 40.1 395.14" stroke="#c2255c" stroke-width="2" fill="none"></path></g></g><mask></mask><g stroke-linecap="round"><g transform="translate(2790.9354525662084 4437.469004189247) rotate(0 12.594454700661345 236.4958716013075)"><path d="M-1.07 -0.95 C3.14 77.74, 19.73 393.43, 24.07 472.46 M0.57 1.17 C5.24 79.98, 22.28 394.8, 26.19 473.71" stroke="#c2255c" stroke-width="2" fill="none"></path></g><g transform="translate(2790.9354525662084 4437.469004189247) rotate(0 12.594454700661345 236.4958716013075)"><path d="M16.42 450.7 C16.87 453.53, 19.51 459.57, 26.19 473.71 M16.42 450.7 C18.9 457.67, 22.66 464.66, 26.19 473.71" stroke="#c2255c" stroke-width="2" fill="none"></path></g><g transform="translate(2790.9354525662084 4437.469004189247) rotate(0 12.594454700661345 236.4958716013075)"><path d="M33.5 449.81 C30.53 452.66, 29.75 458.88, 26.19 473.71 M33.5 449.81 C30.54 457.01, 28.87 464.28, 26.19 473.71" stroke="#c2255c" stroke-width="2" fill="none"></path></g></g><mask></mask><g stroke-linecap="round" transform="translate(151.69750084984662 4784.253815912314) rotate(0 226.70018461190386 163.72791110859725)"><path d="M32 0 C137.41 2.06, 243.43 3.1, 421.4 0 M32 0 C143.99 1.98, 255.6 2.17, 421.4 0 M421.4 0 C442.94 0.03, 454.29 11.51, 453.4 32 M421.4 0 C440.45 -1.34, 454.75 8.92, 453.4 32 M453.4 32 C455.59 94.14, 454.03 157.62, 453.4 295.46 M453.4 32 C454.03 95.33, 453.46 158.28, 453.4 295.46 M453.4 295.46 C451.72 316.85, 442.35 325.71, 421.4 327.46 M453.4 295.46 C453.7 315.08, 444.11 329.5, 421.4 327.46 M421.4 327.46 C321.07 327.65, 223.45 326.6, 32 327.46 M421.4 327.46 C288.13 329.27, 153.45 328.6, 32 327.46 M32 327.46 C11.52 328.88, 1.52 315.99, 0 295.46 M32 327.46 C9.31 327.67, 1.56 314.98, 0 295.46 M0 295.46 C0.18 212.3, 1.79 125.76, 0 32 M0 295.46 C-0.69 233.75, -1.5 173.2, 0 32 M0 32 C-0.11 9.16, 10.57 0.4, 32 0 M0 32 C1.87 11.17, 10.26 0.54, 32 0" stroke="#c2255c" stroke-width="2" fill="none"></path></g><g stroke-linecap="round" transform="translate(1022.1142590511067 4841.628553993105) rotate(0 226.70018461190386 163.72791110859725)"><path d="M32 0 C112.04 -0.08, 189.95 -1.66, 421.4 0 M32 0 C152.56 1.39, 273.09 1.34, 421.4 0 M421.4 0 C443.89 0.48, 451.45 9.3, 453.4 32 M421.4 0 C444.3 -2.02, 455.52 8.66, 453.4 32 M453.4 32 C451.6 108.42, 453.11 186.29, 453.4 295.46 M453.4 32 C453.07 116.47, 453.67 201.59, 453.4 295.46 M453.4 295.46 C455.38 318.12, 441.76 329.02, 421.4 327.46 M453.4 295.46 C455.08 316.77, 444.61 329.43, 421.4 327.46 M421.4 327.46 C335.68 329.61, 250.5 329.84, 32 327.46 M421.4 327.46 C270.61 328.7, 119.58 329.07, 32 327.46 M32 327.46 C11.14 325.64, 0.79 317.78, 0 295.46 M32 327.46 C11.33 325.36, -2.18 318.81, 0 295.46 M0 295.46 C1.9 202.59, 1.13 111.12, 0 32 M0 295.46 C0.2 195.39, 1.02 94.37, 0 32 M0 32 C1.84 11.83, 8.67 1.1, 32 0 M0 32 C0.31 11.44, 9.67 1.65, 32 0" stroke="#c2255c" stroke-width="2" fill="none"></path></g><g stroke-linecap="round" transform="translate(1833.7568953159475 4875.2137665282025) rotate(0 226.70018461190386 163.72791110859725)"><path d="M32 0 C167.53 -1.02, 303.12 -1.41, 421.4 0 M32 0 C165.58 -2.68, 298.81 -2.02, 421.4 0 M421.4 0 C443.4 -0.87, 454.83 10.09, 453.4 32 M421.4 0 C441.53 1.31, 452.21 8.65, 453.4 32 M453.4 32 C452.33 105.59, 451.58 180.41, 453.4 295.46 M453.4 32 C454.95 93.88, 455.31 155.92, 453.4 295.46 M453.4 295.46 C451.86 317.89, 440.86 328.95, 421.4 327.46 M453.4 295.46 C454.51 314.89, 443.96 328.59, 421.4 327.46 M421.4 327.46 C285.35 329.52, 148.64 329.4, 32 327.46 M421.4 327.46 C282.78 328.78, 143.93 328.55, 32 327.46 M32 327.46 C9.43 328.27, -1.36 318.24, 0 295.46 M32 327.46 C12.54 327.41, 1.03 318.3, 0 295.46 M0 295.46 C-0.74 215.43, -1.99 135.54, 0 32 M0 295.46 C-0.44 204.88, 0.87 113.1, 0 32 M0 32 C0.06 12.16, 10.88 -0.28, 32 0 M0 32 C0.6 11.85, 12.86 0.41, 32 0" stroke="#c2255c" stroke-width="2" fill="none"></path></g><g stroke-linecap="round" transform="translate(2586.62540964437 4928.390353042105) rotate(0 226.70018461190386 163.72791110859725)"><path d="M32 0 C161.04 1.67, 288.12 1.57, 421.4 0 M32 0 C113.92 -1.71, 196.17 -1.67, 421.4 0 M421.4 0 C442.45 0.52, 454.43 12.57, 453.4 32 M421.4 0 C443.14 -0.16, 453.69 9.06, 453.4 32 M453.4 32 C451.21 108.35, 451.77 181.67, 453.4 295.46 M453.4 32 C453.33 91.5, 453.39 150.7, 453.4 295.46 M453.4 295.46 C454.22 318.72, 443.26 328.93, 421.4 327.46 M453.4 295.46 C454.54 317.05, 445.01 326.29, 421.4 327.46 M421.4 327.46 C292.13 328.12, 163.77 328.07, 32 327.46 M421.4 327.46 C295.53 327.93, 170.72 327.9, 32 327.46 M32 327.46 C12.03 329.38, -0.65 316.71, 0 295.46 M32 327.46 C10.45 329.05, 0.05 317.19, 0 295.46 M0 295.46 C-1.69 194.45, -2.35 93.97, 0 32 M0 295.46 C-0.96 232.35, -0.35 168.65, 0 32 M0 32 C-0.03 12.08, 10.84 -0.39, 32 0 M0 32 C1.16 11.46, 10.22 -1.57, 32 0" stroke="#c2255c" stroke-width="2" fill="none"></path></g><g transform="translate(314.02602810281473 5293.629539361284) rotate(0 1010.4166870117188 45)"><text x="0" y="31.536" font-family="Virgil, Segoe UI Emoji" font-size="36px" fill="#c2255c" text-anchor="start" style="white-space: pre;" direction="ltr" dominant-baseline="alphabetic">Nos interesara comparar con el valor de la imagen B por lo que necesitamos lo mismo con el pixel de la imagen B</text><text x="0" y="76.536" font-family="Virgil, Segoe UI Emoji" font-size="36px" fill="#c2255c" text-anchor="start" style="white-space: pre;" direction="ltr" dominant-baseline="alphabetic"></text></g><g stroke-linecap="round"><g transform="translate(2372.2785967258783 2185.6658114041065) rotate(0 407.79805838875336 355.4109022733214)"><path d="M-0.23 -0.47 C135.48 -4.59, 718.13 -148.2, 814.99 -25.65 C911.85 96.91, 619.8 607.97, 580.93 734.84 M-1.81 -1.77 C134.24 -5.68, 720.43 -147.56, 817.38 -24.63 C914.34 98.3, 619.12 608.93, 579.92 735.82" stroke="#c2255c" stroke-width="2" fill="none"></path></g><g transform="translate(2372.2785967258783 2185.6658114041065) rotate(0 407.79805838875336 355.4109022733214)"><path d="M581.58 710.87 C579.99 718.81, 578.53 728, 579.92 735.82 M581.58 710.87 C581.5 717.62, 581.05 723.08, 579.92 735.82" stroke="#c2255c" stroke-width="2" fill="none"></path></g><g transform="translate(2372.2785967258783 2185.6658114041065) rotate(0 407.79805838875336 355.4109022733214)"><path d="M597.22 717.78 C590.08 723.21, 583 729.92, 579.92 735.82 M597.22 717.78 C593.26 722.82, 588.95 726.59, 579.92 735.82" stroke="#c2255c" stroke-width="2" fill="none"></path></g></g><mask></mask></svg>