<svg version="1.1" xmlns="http://www.w3.org/2000/svg" viewBox="0 0 2765.323595349551 1531.021046490574" width="5530.647190699102" height="3062.042092981148">
  <!-- svg-source:excalidraw -->
  
  <defs>
    <style class="style-fonts">
      @font-face {
        font-family: "Virgil";
        src: url("https://excalidraw.com/Virgil.woff2");
      }
      @font-face {
        font-family: "Cascadia";
        src: url("https://excalidraw.com/Cascadia.woff2");
      }
      @font-face {
        font-family: "Assistant";
        src: url("https://excalidraw.com/Assistant-Regular.woff2");
      }
    </style>
    
  </defs>
  <rect x="0" y="0" width="2765.323595349551" height="1531.021046490574" fill="#ffffff"></rect><g stroke-linecap="round" transform="translate(492.1382955585459 177.68983525467797) rotate(0 170.8252522350461 120.09981182533573)"><path d="M32 0 C96.94 -2.34, 160.13 -2.35, 309.65 0 M32 0 C109.37 -1.54, 188.27 -0.42, 309.65 0 M309.65 0 C331.92 -1.23, 341.8 9.45, 341.65 32 M309.65 0 C331.19 -0.92, 343.94 8.95, 341.65 32 M341.65 32 C340.84 91.3, 341.49 153.58, 341.65 208.2 M341.65 32 C343.22 71.29, 343.38 111.72, 341.65 208.2 M341.65 208.2 C340.28 228.32, 329.69 240.46, 309.65 240.2 M341.65 208.2 C343.72 227.62, 330.01 240.81, 309.65 240.2 M309.65 240.2 C244.55 240.65, 176.05 241.66, 32 240.2 M309.65 240.2 C233.91 242.58, 157.71 242.88, 32 240.2 M32 240.2 C12.19 241.77, 0.94 230.12, 0 208.2 M32 240.2 C12.38 238.95, -1.33 230.64, 0 208.2 M0 208.2 C-3.11 155.34, -1.36 107.21, 0 32 M0 208.2 C-1.44 154.93, -1.22 104.13, 0 32 M0 32 C-0.31 11.82, 11.72 -1.54, 32 0 M0 32 C1.12 9.44, 12.6 -0.32, 32 0" stroke="#1971c2" stroke-width="2" fill="none"></path></g><g transform="translate(610.6635485565314 285.28964708001376) rotate(0 52.29999923706055 12.5)"><text x="52.29999923706055" y="17.52" font-family="Virgil, Segoe UI Emoji" font-size="20px" fill="#1971c2" text-anchor="middle" style="white-space: pre;" direction="ltr" dominant-baseline="alphabetic">IMAGEN A</text></g><g stroke-linecap="round" transform="translate(992.350147805542 183.80851194923844) rotate(0 170.82525223504604 120.09981182533573)"><path d="M32 0 C111.95 -1.08, 192.08 -0.37, 309.65 0 M32 0 C97.88 -0.82, 164.44 -0.49, 309.65 0 M309.65 0 C331.5 -0.42, 340.92 12.45, 341.65 32 M309.65 0 C329.6 -2.03, 343.27 12.34, 341.65 32 M341.65 32 C340.37 74.66, 342.04 118.07, 341.65 208.2 M341.65 32 C342.53 101.65, 342.48 171.49, 341.65 208.2 M341.65 208.2 C342.27 229.02, 331.69 241.36, 309.65 240.2 M341.65 208.2 C343.62 230.24, 332.09 241.44, 309.65 240.2 M309.65 240.2 C212.18 240.34, 116.94 240.12, 32 240.2 M309.65 240.2 C207.58 238.48, 104.67 239.64, 32 240.2 M32 240.2 C11.37 242.14, -0.49 230.7, 0 208.2 M32 240.2 C10.55 242.25, -2.21 229.31, 0 208.2 M0 208.2 C1.06 162.33, 1.8 120.27, 0 32 M0 208.2 C1.66 140.72, 1.91 74.39, 0 32 M0 32 C-0.78 10.39, 11.5 0.1, 32 0 M0 32 C-0.23 11.71, 9.62 1.25, 32 0" stroke="#f08c00" stroke-width="2" fill="none"></path></g><g transform="translate(1110.175400040588 291.4083237745741) rotate(0 53 12.5)"><text x="53" y="17.52" font-family="Virgil, Segoe UI Emoji" font-size="20px" fill="#f08c00" text-anchor="middle" style="white-space: pre;" direction="ltr" dominant-baseline="alphabetic">IMAGEN B</text></g><g transform="translate(50.73359583331933 579.7040752712049) rotate(0 106.1028911609032 11.464798684760353)"><text x="0" y="16.06906183656011" font-family="Virgil, Segoe UI Emoji" font-size="18.343677895616565px" fill="#9c36b5" text-anchor="start" style="white-space: pre;" direction="ltr" dominant-baseline="alphabetic">COMBINAR_IMAGENES</text></g><g stroke-linecap="round" transform="translate(369.33520897070696 776.469351736542) rotate(0 179.6646637802125 113.43235128496462)"><path d="M32 0 C122.62 0.46, 214.1 -0.94, 327.33 0 M32 0 C136.99 -1.22, 240.97 -0.98, 327.33 0 M327.33 0 C349.27 -1.58, 360.12 8.88, 359.33 32 M327.33 0 C346.65 2.11, 360.88 11.28, 359.33 32 M359.33 32 C361.37 74.92, 360.35 120.27, 359.33 194.86 M359.33 32 C359.32 94.24, 359.75 155.14, 359.33 194.86 M359.33 194.86 C359.21 217.13, 347.65 225.88, 327.33 226.86 M359.33 194.86 C358.77 215.3, 349.83 225.65, 327.33 226.86 M327.33 226.86 C260.35 228.66, 196.56 228.47, 32 226.86 M327.33 226.86 C266.92 228.4, 206.41 229.39, 32 226.86 M32 226.86 C10.35 226.79, 1.98 217.45, 0 194.86 M32 226.86 C10.01 229.02, 1 217.58, 0 194.86 M0 194.86 C-1.36 137.51, -1.47 81.45, 0 32 M0 194.86 C-1.58 131.19, -1.57 68.53, 0 32 M0 32 C-0.5 10.25, 9.97 1.88, 32 0 M0 32 C1.05 8.56, 11.34 1.99, 32 0" stroke="#6741d9" stroke-width="2" fill="none"></path></g><g transform="translate(496.8332048126871 877.4017030215066) rotate(0 52.16666793823242 12.5)"><text x="52.16666793823242" y="17.52" font-family="Virgil, Segoe UI Emoji" font-size="20px" fill="#6741d9" text-anchor="middle" style="white-space: pre;" direction="ltr" dominant-baseline="alphabetic">IMAGEN C</text></g><g stroke-linecap="round"><g transform="translate(352.5868081098399 908.4224843712016) rotate(0 -31.97421982529221 92.11620473477001)"><path d="M-1.03 -1.02 C-14.33 12.85, -81.35 53.64, -78.78 84.37 C-76.21 115.1, -1.33 166.84, 14.4 183.37 M0.64 1.06 C-12.88 15.56, -82.22 54.9, -79.52 85.43 C-76.81 115.96, 0.94 167.76, 16.86 184.24" stroke="#1971c2" stroke-width="2" fill="none"></path></g><g transform="translate(352.5868081098399 908.4224843712016) rotate(0 -31.97421982529221 92.11620473477001)"><path d="M-6.65 175.74 C0.84 179.89, 10.13 181.14, 16.86 184.24 M-6.65 175.74 C-0.97 177.55, 4.56 179.18, 16.86 184.24" stroke="#1971c2" stroke-width="2" fill="none"></path></g><g transform="translate(352.5868081098399 908.4224843712016) rotate(0 -31.97421982529221 92.11620473477001)"><path d="M4.32 162.62 C7.69 171.75, 12.74 178.08, 16.86 184.24 M4.32 162.62 C7.53 167.36, 10.56 171.99, 16.86 184.24" stroke="#1971c2" stroke-width="2" fill="none"></path></g></g><mask></mask><g stroke-linecap="round" transform="translate(370.1916612874553 1081.9849253945783) rotate(0 343.3422176477791 42.5)"><path d="M21.25 0 C227.9 0.4, 435.67 0.09, 665.43 0 M21.25 0 C164.2 -0.3, 307.53 0.01, 665.43 0 M665.43 0 C679.82 -0.23, 684.99 6.97, 686.68 21.25 M665.43 0 C679.18 1.69, 687.84 7.98, 686.68 21.25 M686.68 21.25 C687.26 33.03, 685.32 48, 686.68 63.75 M686.68 21.25 C686.88 33.6, 685.82 44.72, 686.68 63.75 M686.68 63.75 C684.72 77.2, 679.9 83.25, 665.43 85 M686.68 63.75 C684.51 76.55, 681.68 86.61, 665.43 85 M665.43 85 C525.02 82.34, 383.57 83.49, 21.25 85 M665.43 85 C508.9 85.05, 352.44 84.45, 21.25 85 M21.25 85 C8.09 86.91, 0.23 76.59, 0 63.75 M21.25 85 C6.31 86.97, -2.28 79.96, 0 63.75 M0 63.75 C-0.67 48.71, -1.63 38.4, 0 21.25 M0 63.75 C-0.1 51.45, -1.02 38.1, 0 21.25 M0 21.25 C1.4 8.47, 6.62 1.91, 21.25 0 M0 21.25 C0.57 8.61, 8.54 -1.37, 21.25 0" stroke="#1971c2" stroke-width="2" fill="none"></path></g><g transform="translate(386.5338789352344 1111.9849253945783) rotate(0 327 12.5)"><text x="327" y="17.52" font-family="Virgil, Segoe UI Emoji" font-size="20px" fill="#1971c2" text-anchor="middle" style="white-space: pre;" direction="ltr" dominant-baseline="alphabetic">IMAGEN_C VALOR BLUE = IMAGEN_A BLUE + IMAGEN_B RED</text></g><g stroke-linecap="round" transform="translate(291.8311468852256 1232.2576372989847) rotate(0 390.5422564374959 42.5)"><path d="M21.25 0 C177.18 2.47, 334.07 1.86, 759.83 0 M21.25 0 C187.43 -1.91, 353.78 -1.39, 759.83 0 M759.83 0 C775.22 -1.3, 781.5 6.16, 781.08 21.25 M759.83 0 C771.95 -2.23, 779.37 6.93, 781.08 21.25 M781.08 21.25 C780.55 37.14, 781.71 53.19, 781.08 63.75 M781.08 21.25 C780.92 37.66, 780.4 52.45, 781.08 63.75 M781.08 63.75 C780.36 76.36, 775.2 86.99, 759.83 85 M781.08 63.75 C783.08 78.03, 775.08 82.86, 759.83 85 M759.83 85 C490.36 82.49, 220.78 83.12, 21.25 85 M759.83 85 C503.03 84.41, 245.95 84.2, 21.25 85 M21.25 85 C7.33 83.52, -1.53 79.33, 0 63.75 M21.25 85 C6.92 83.5, -1.4 78.78, 0 63.75 M0 63.75 C-0.86 53.34, -0.24 43.23, 0 21.25 M0 63.75 C0.43 52.05, 0.04 41.75, 0 21.25 M0 21.25 C-1.28 8.57, 8.92 -0.32, 21.25 0 M0 21.25 C0.7 5.48, 9.19 1.77, 21.25 0" stroke="#2f9e44" stroke-width="2" fill="none"></path></g><g transform="translate(329.35674072506526 1262.2576372989847) rotate(0 353.0166625976563 12.5)"><text x="353.01666259765625" y="17.52" font-family="Virgil, Segoe UI Emoji" font-size="20px" fill="#2f9e44" text-anchor="middle" style="white-space: pre;" direction="ltr" dominant-baseline="alphabetic">IMAGEN_C VALOR GREEN = IMAGEN_A GREEN - IMAGEN_B GREEN</text></g><g stroke-linecap="round"><g transform="translate(355.87977763565186 830.5013761340947) rotate(0 -87.54845904544266 180.02886475200876)"><path d="M-0.96 1.03 C-30.17 31.86, -162.4 125.87, -175.39 185.63 C-188.37 245.4, -94.75 330.42, -78.87 359.61 M0.74 0.52 C-28.65 30.91, -163.11 123.59, -176.49 183.62 C-189.87 243.65, -95.57 331.54, -79.57 360.7" stroke="#2f9e44" stroke-width="2" fill="none"></path></g><g transform="translate(355.87977763565186 830.5013761340947) rotate(0 -87.54845904544266 180.02886475200876)"><path d="M-100.65 347.27 C-92.76 350.84, -88.01 355.43, -79.57 360.7 M-100.65 347.27 C-96.09 350.97, -89.69 353.55, -79.57 360.7" stroke="#2f9e44" stroke-width="2" fill="none"></path></g><g transform="translate(355.87977763565186 830.5013761340947) rotate(0 -87.54845904544266 180.02886475200876)"><path d="M-87.09 336.86 C-83.07 343.33, -82.24 350.94, -79.57 360.7 M-87.09 336.86 C-86.19 343.38, -83.35 348.7, -79.57 360.7" stroke="#2f9e44" stroke-width="2" fill="none"></path></g></g><mask></mask><g stroke-linecap="round" transform="translate(293.3537287816681 1334.2706243606308) rotate(0 419.47131246990284 42.5)"><path d="M21.25 0 C202.36 2.6, 383.28 3.12, 817.69 0 M21.25 0 C254.82 -1.24, 488.31 -1.24, 817.69 0 M817.69 0 C831.95 -1.02, 840.88 8.97, 838.94 21.25 M817.69 0 C830.88 0.13, 839.79 8.96, 838.94 21.25 M838.94 21.25 C838.24 34.79, 836.56 45.18, 838.94 63.75 M838.94 21.25 C838.84 35.39, 839.68 51.13, 838.94 63.75 M838.94 63.75 C838.98 77.1, 831.56 83.51, 817.69 85 M838.94 63.75 C839.81 78.71, 830.89 85.12, 817.69 85 M817.69 85 C518.92 85.38, 220.61 85.02, 21.25 85 M817.69 85 C542.91 87.57, 268.99 87.71, 21.25 85 M21.25 85 C5.74 85.91, -0.64 78.94, 0 63.75 M21.25 85 C5.16 86.34, 0.61 80.17, 0 63.75 M0 63.75 C1.74 49.69, -0.18 37.45, 0 21.25 M0 63.75 C-0.08 54.28, 0.29 43.16, 0 21.25 M0 21.25 C0.75 8.22, 8.61 1.43, 21.25 0 M0 21.25 C-0.46 6.15, 6.08 1.34, 21.25 0" stroke="#2f9e44" stroke-width="2" fill="none"></path></g><g transform="translate(303.2416977457116 1364.2706243606308) rotate(0 409.5833435058594 12.5)"><text x="409.5833435058594" y="17.52" font-family="Virgil, Segoe UI Emoji" font-size="20px" fill="#2f9e44" text-anchor="middle" style="white-space: pre;" direction="ltr" dominant-baseline="alphabetic">IMAGEN_C VALOR GREEN = PROMEDIO(IMAGEN_A GREEN, IMAGEN_B GREEN)</text></g><g stroke-linecap="round"><g transform="translate(1148.640318766098 1266.0741624208363) rotate(0 80.69684051145134 -0.7612909482213581)"><path d="M1.13 -1.18 C27.93 -1.46, 134.82 -1.29, 161.58 -1.29 M0.27 0.82 C26.85 0.12, 133.93 -3.21, 160.72 -3.3" stroke="#2f9e44" stroke-width="2" fill="none"></path></g><g transform="translate(1148.640318766098 1266.0741624208363) rotate(0 80.69684051145134 -0.7612909482213581)"><path d="M137.4 5.7 C143.97 2.48, 154.87 -0.67, 160.72 -3.3 M137.4 5.7 C145.33 3.19, 152.98 0.68, 160.72 -3.3" stroke="#2f9e44" stroke-width="2" fill="none"></path></g><g transform="translate(1148.640318766098 1266.0741624208363) rotate(0 80.69684051145134 -0.7612909482213581)"><path d="M137.07 -11.4 C143.81 -8.34, 154.84 -5.21, 160.72 -3.3 M137.07 -11.4 C145.02 -8.31, 152.78 -5.23, 160.72 -3.3" stroke="#2f9e44" stroke-width="2" fill="none"></path></g></g><mask></mask><g stroke-linecap="round"><g transform="translate(1294.808180824576 1284.345145178146) rotate(0 -71.56134913279652 1.5225818964424889)"><path d="M-0.58 -0.63 C-24.39 -0.07, -119.94 2.81, -143.59 3.55 M1.31 1.65 C-22.63 1.84, -120.75 1.65, -144.79 1.69" stroke="#2f9e44" stroke-width="2" fill="none"></path></g><g transform="translate(1294.808180824576 1284.345145178146) rotate(0 -71.56134913279652 1.5225818964424889)"><path d="M-121.29 -6.85 C-127.94 -5.7, -131.67 -1.79, -144.79 1.69 M-121.29 -6.85 C-129.03 -2.7, -139.36 -0.42, -144.79 1.69" stroke="#2f9e44" stroke-width="2" fill="none"></path></g><g transform="translate(1294.808180824576 1284.345145178146) rotate(0 -71.56134913279652 1.5225818964424889)"><path d="M-121.3 10.25 C-127.97 7.31, -131.7 7.13, -144.79 1.69 M-121.3 10.25 C-128.99 8.17, -139.32 4.21, -144.79 1.69" stroke="#2f9e44" stroke-width="2" fill="none"></path></g></g><mask></mask><g stroke-linecap="round"><g transform="translate(1159.0725978356277 1362.3417385860773) rotate(0 80.69684051145134 -0.8965498794359519)"><path d="M-0.82 0.7 C26.24 0.22, 135.01 -2.53, 162.12 -2.92 M0.95 0.02 C27.94 -0.35, 134.82 -1.93, 161.55 -1.98" stroke="#2f9e44" stroke-width="2" fill="none"></path></g><g transform="translate(1159.0725978356277 1362.3417385860773) rotate(0 80.69684051145134 -0.8965498794359519)"><path d="M138.13 6.79 C145.85 5.7, 149.34 2.78, 161.55 -1.98 M138.13 6.79 C145.48 4.03, 152.75 0.62, 161.55 -1.98" stroke="#2f9e44" stroke-width="2" fill="none"></path></g><g transform="translate(1159.0725978356277 1362.3417385860773) rotate(0 80.69684051145134 -0.8965498794359519)"><path d="M137.98 -10.31 C145.73 -6.62, 149.27 -4.76, 161.55 -1.98 M137.98 -10.31 C145.47 -7.75, 152.8 -5.84, 161.55 -1.98" stroke="#2f9e44" stroke-width="2" fill="none"></path></g></g><mask></mask><g stroke-linecap="round"><g transform="translate(1305.2404598941057 1383.8589356925363) rotate(0 -71.56134913279652 1.7930997588715627)"><path d="M0.72 -1.13 C-22.92 -0.63, -118.83 3.1, -142.68 3.72 M-0.36 0.89 C-24.05 1.55, -119.66 4.91, -143.4 5.32" stroke="#2f9e44" stroke-width="2" fill="none"></path></g><g transform="translate(1305.2404598941057 1383.8589356925363) rotate(0 -71.56134913279652 1.7930997588715627)"><path d="M-120.15 -3.87 C-127.38 -0.86, -130.66 1.73, -143.4 5.32 M-120.15 -3.87 C-125.06 -2.84, -130.45 -0.66, -143.4 5.32" stroke="#2f9e44" stroke-width="2" fill="none"></path></g><g transform="translate(1305.2404598941057 1383.8589356925363) rotate(0 -71.56134913279652 1.7930997588715627)"><path d="M-119.68 13.23 C-127.11 12.27, -130.51 10.9, -143.4 5.32 M-119.68 13.23 C-124.71 10.56, -130.21 9.04, -143.4 5.32" stroke="#2f9e44" stroke-width="2" fill="none"></path></g></g><mask></mask><g transform="translate(1354.1888747858325 1258.4612529386236) rotate(0 205.81666564941406 12.5)"><text x="0" y="17.52" font-family="Virgil, Segoe UI Emoji" font-size="20px" fill="#2f9e44" text-anchor="start" style="white-space: pre;" direction="ltr" dominant-baseline="alphabetic">GREEN IMAGEN_A &gt; GREEN IMAGEN_B</text></g><g transform="translate(1373.9824394395846 1352.8613305180575) rotate(0 30.233333587646484 12.5)"><text x="0" y="17.52" font-family="Virgil, Segoe UI Emoji" font-size="20px" fill="#2f9e44" text-anchor="start" style="white-space: pre;" direction="ltr" dominant-baseline="alphabetic">SI NO</text></g><g stroke-linecap="round"><g transform="translate(733.8746214580202 860.1399850144828) rotate(0 166.72271766045117 17.509691809088395)"><path d="M1.12 -0.16 C30.72 -2.9, 120.99 -24.7, 176.42 -16.28 C231.85 -7.86, 307.37 39.42, 333.71 50.36 M0.26 -1.29 C29.78 -3.93, 119.9 -24.13, 175.37 -15.3 C230.84 -6.46, 306.44 40.86, 333.08 51.73" stroke="#e03131" stroke-width="2" fill="none"></path></g><g transform="translate(733.8746214580202 860.1399850144828) rotate(0 166.72271766045117 17.509691809088395)"><path d="M308.24 48.91 C313.06 48.92, 316.64 50.27, 333.08 51.73 M308.24 48.91 C316.08 50.81, 323.35 51.4, 333.08 51.73" stroke="#e03131" stroke-width="2" fill="none"></path></g><g transform="translate(733.8746214580202 860.1399850144828) rotate(0 166.72271766045117 17.509691809088395)"><path d="M315.87 33.6 C319.15 36.82, 321.17 41.29, 333.08 51.73 M315.87 33.6 C321.48 40.18, 326.38 45.51, 333.08 51.73" stroke="#e03131" stroke-width="2" fill="none"></path></g></g><mask></mask><g stroke-linecap="round" transform="translate(818.3779167105771 940.9691186263233) rotate(0 343.3422176477791 42.5)"><path d="M21.25 0 C251.8 -1.54, 481.38 -1.56, 665.43 0 M21.25 0 C239.19 1.54, 457.92 1.32, 665.43 0 M665.43 0 C681.12 -0.31, 688.03 6.12, 686.68 21.25 M665.43 0 C679.37 -1.75, 687.91 5.44, 686.68 21.25 M686.68 21.25 C684.5 28.87, 685.67 36.4, 686.68 63.75 M686.68 21.25 C687.23 32.1, 687.49 42.33, 686.68 63.75 M686.68 63.75 C686.45 78.36, 681.01 84.92, 665.43 85 M686.68 63.75 C685.1 79.69, 680.74 85.22, 665.43 85 M665.43 85 C523.27 85.07, 382.42 84.97, 21.25 85 M665.43 85 C494.21 83.04, 323.45 83.3, 21.25 85 M21.25 85 C6.3 84.32, -0.49 77.93, 0 63.75 M21.25 85 C5.87 85.97, 0.43 79.21, 0 63.75 M0 63.75 C0.24 55.15, 1.79 44.74, 0 21.25 M0 63.75 C0.85 53.37, -0.12 43.25, 0 21.25 M0 21.25 C0.99 6.34, 5.88 -1.6, 21.25 0 M0 21.25 C0.67 5.91, 5.18 -1.31, 21.25 0" stroke="#e03131" stroke-width="2" fill="none"></path></g><g transform="translate(837.653453450153 970.9691186263233) rotate(0 324.0666809082031 12.5)"><text x="324.0666809082031" y="17.52" font-family="Virgil, Segoe UI Emoji" font-size="20px" fill="#e03131" text-anchor="middle" style="white-space: pre;" direction="ltr" dominant-baseline="alphabetic">IMAGEN_C VALOR RED =  IMAGEN_B BLUE - IMAGEN_A RED</text></g><g stroke-linecap="round"><g transform="translate(729.4496178214832 806.3738117963578) rotate(0 127.89687930116816 -57.858112064814236)"><path d="M-0.64 -0.03 C41.73 -19.39, 212.42 -97.77, 255.17 -116.91 M1.23 -1.09 C43.91 -20.28, 215.24 -96.73, 257.56 -116" stroke="#1e1e1e" stroke-width="2" fill="none"></path></g><g transform="translate(729.4496178214832 806.3738117963578) rotate(0 127.89687930116816 -57.858112064814236)"><path d="M239.65 -98.56 C246.54 -106.15, 251.42 -111.59, 257.56 -116 M239.65 -98.56 C246.03 -105.07, 252.46 -111.8, 257.56 -116" stroke="#1e1e1e" stroke-width="2" fill="none"></path></g><g transform="translate(729.4496178214832 806.3738117963578) rotate(0 127.89687930116816 -57.858112064814236)"><path d="M232.63 -114.16 C242.09 -115.76, 249.65 -115.26, 257.56 -116 M232.63 -114.16 C241.71 -114.93, 250.74 -115.86, 257.56 -116" stroke="#1e1e1e" stroke-width="2" fill="none"></path></g></g><mask></mask><g stroke-linecap="round" transform="translate(1018.7401781455543 673.9091868058622) rotate(0 174.33562714266372 31.97421982529204)"><path d="M15.99 0 C116.09 3.37, 218.08 2.75, 332.68 0 M15.99 0 C85.37 -1.14, 153.83 -0.25, 332.68 0 M332.68 0 C341.8 -0.72, 346.91 6.83, 348.67 15.99 M332.68 0 C341.61 2.06, 348.18 7.57, 348.67 15.99 M348.67 15.99 C348.43 27.6, 350.13 41.25, 348.67 47.96 M348.67 15.99 C347.87 27.31, 349.62 38.82, 348.67 47.96 M348.67 47.96 C347.84 56.91, 344.92 65.56, 332.68 63.95 M348.67 47.96 C350.73 58.38, 344.84 65.31, 332.68 63.95 M332.68 63.95 C221 65.33, 108.08 63.52, 15.99 63.95 M332.68 63.95 C220.53 62.07, 108.65 61.99, 15.99 63.95 M15.99 63.95 C7.18 62.03, -1.81 58.1, 0 47.96 M15.99 63.95 C7.09 63.07, -1.84 56.75, 0 47.96 M0 47.96 C1.24 40.64, -0.67 31.83, 0 15.99 M0 47.96 C0.15 38.78, 0.79 30.59, 0 15.99 M0 15.99 C-0.53 5.2, 6.14 -1.24, 15.99 0 M0 15.99 C1.01 7.11, 4.26 0.07, 15.99 0" stroke="#1e1e1e" stroke-width="2" fill="none"></path></g><g transform="translate(1075.209136587046 693.3834066311542) rotate(0 117.86666870117188 12.5)"><text x="117.86666870117188" y="17.52" font-family="Virgil, Segoe UI Emoji" font-size="20px" fill="#1e1e1e" text-anchor="middle" style="white-space: pre;" direction="ltr" dominant-baseline="alphabetic">TRANSPARENCiA = 255</text></g><g stroke-linecap="round"><g transform="translate(1082.207570761032 133.78465237206535) rotate(0 364.1737894494396 -61.66981997016623)"><path d="M0.37 -0.14 C76.6 -20.65, 336.94 -123.82, 458.15 -123.78 C579.36 -123.75, 682.54 -20.43, 727.6 0.08 M-0.9 -1.25 C75.64 -21.53, 338.58 -122.39, 460.41 -122.48 C582.25 -122.57, 685.36 -22.29, 730.11 -1.8" stroke="#c2255c" stroke-width="2" fill="none"></path></g><g transform="translate(1082.207570761032 133.78465237206535) rotate(0 364.1737894494396 -61.66981997016623)"><path d="M705.71 -7.25 C714.32 -6.77, 722.67 -4.6, 730.11 -1.8 M705.71 -7.25 C715.25 -4.38, 723.51 -3.03, 730.11 -1.8" stroke="#c2255c" stroke-width="2" fill="none"></path></g><g transform="translate(1082.207570761032 133.78465237206535) rotate(0 364.1737894494396 -61.66981997016623)"><path d="M714.92 -21.66 C720.09 -15.91, 725.1 -8.51, 730.11 -1.8 M714.92 -21.66 C721.04 -13.4, 725.87 -6.68, 730.11 -1.8" stroke="#c2255c" stroke-width="2" fill="none"></path></g></g><mask></mask><g stroke-linecap="round" transform="translate(1469.0377383836053 192.78274968333187) rotate(0 351.9684471814878 63.14728022961987)"><path d="M31.57 0 C245.96 0.96, 462.23 1.73, 672.36 0 M31.57 0 C209.11 0.5, 387.74 0.28, 672.36 0 M672.36 0 C694.96 -0.76, 702.49 9.16, 703.94 31.57 M672.36 0 C693.23 1.32, 704.98 12.48, 703.94 31.57 M703.94 31.57 C705.49 50.71, 701.74 74.18, 703.94 94.72 M703.94 31.57 C703.36 50.34, 704.4 69.23, 703.94 94.72 M703.94 94.72 C702.34 117.16, 691.58 127.33, 672.36 126.29 M703.94 94.72 C702.31 116.13, 692.03 124.2, 672.36 126.29 M672.36 126.29 C448.45 127.92, 224.74 127.34, 31.57 126.29 M672.36 126.29 C502 124.58, 331.61 125.16, 31.57 126.29 M31.57 126.29 C9.21 124.6, -0.49 114.21, 0 94.72 M31.57 126.29 C11.39 128.47, 1.21 117.84, 0 94.72 M0 94.72 C0.76 70.26, 0.5 45.2, 0 31.57 M0 94.72 C0.24 73.89, -1.03 54.86, 0 31.57 M0 31.57 C1 8.82, 10.01 -0.95, 31.57 0 M0 31.57 C0.17 12.1, 11.7 -1.49, 31.57 0" stroke="#c2255c" stroke-width="2" fill="none"></path></g><g transform="translate(1781.6685355859854 151.3746970737452) rotate(0 87.69999694824219 12.5)"><text x="0" y="17.52" font-family="Virgil, Segoe UI Emoji" font-size="20px" fill="#c2255c" text-anchor="start" style="white-space: pre;" direction="ltr" dominant-baseline="alphabetic">composicion imagen</text></g><g transform="translate(1508.0716443649176 223.45623333679782) rotate(0 320.48333740234375 37.5)"><text x="0" y="17.52" font-family="Virgil, Segoe UI Emoji" font-size="20px" fill="#c2255c" text-anchor="start" style="white-space: pre;" direction="ltr" dominant-baseline="alphabetic">son pixeles con formato BGRA. Cada componente ocupa un byte </text><text x="0" y="42.519999999999996" font-family="Virgil, Segoe UI Emoji" font-size="20px" fill="#c2255c" text-anchor="start" style="white-space: pre;" direction="ltr" dominant-baseline="alphabetic">en memoria. Y estan ordenados little endian, por tanto </text><text x="0" y="67.52" font-family="Virgil, Segoe UI Emoji" font-size="20px" fill="#c2255c" text-anchor="start" style="white-space: pre;" direction="ltr" dominant-baseline="alphabetic">AR GB</text></g><g stroke-linecap="round" transform="translate(10 541.5752869148386) rotate(0 902.8214218059904 474.74804455381496)"><path d="M32 0 C632.38 5.89, 1233.69 5.42, 1773.64 0 M32 0 C465.42 4.62, 899.38 4.86, 1773.64 0 M1773.64 0 C1795.61 0.18, 1806.37 11.87, 1805.64 32 M1773.64 0 C1793.43 0.85, 1806.45 11.28, 1805.64 32 M1805.64 32 C1804.13 267.41, 1804.02 502.68, 1805.64 917.5 M1805.64 32 C1807.6 230.45, 1807.31 429.3, 1805.64 917.5 M1805.64 917.5 C1806.23 938.23, 1794.65 949.75, 1773.64 949.5 M1805.64 917.5 C1804.38 938.91, 1793.19 947.67, 1773.64 949.5 M1773.64 949.5 C1228.81 946.14, 683.68 945.08, 32 949.5 M1773.64 949.5 C1235.53 950.49, 698.15 950.55, 32 949.5 M32 949.5 C10.62 948, 1.32 937.9, 0 917.5 M32 949.5 C12.11 951.21, 1.97 940.26, 0 917.5 M0 917.5 C0.18 739.42, 0.47 561.86, 0 32 M0 917.5 C1.59 721.89, 1.36 526.05, 0 32 M0 32 C1.33 11.35, 9.46 0.5, 32 0 M0 32 C0.03 9.36, 11.36 1.5, 32 0" stroke="#9c36b5" stroke-width="2" fill="none"></path></g><g stroke-linecap="round" transform="translate(447.78910774687245 133.7764521507221) rotate(0 465.41311109348703 174.6966119004207)"><path d="M32 0 C291.18 -0.18, 552.33 -0.45, 898.83 0 M32 0 C300.59 0.8, 568.93 1.25, 898.83 0 M898.83 0 C919.18 -0.58, 931.58 11.15, 930.83 32 M898.83 0 C919.2 2.16, 930.97 10.85, 930.83 32 M930.83 32 C932.49 146.69, 930.97 257.57, 930.83 317.39 M930.83 32 C931.94 108.17, 931.64 184.34, 930.83 317.39 M930.83 317.39 C929.51 338.43, 921.32 350.34, 898.83 349.39 M930.83 317.39 C929.44 338.06, 922.22 347.89, 898.83 349.39 M898.83 349.39 C676.69 352.67, 455.53 352.96, 32 349.39 M898.83 349.39 C635.65 345.84, 372.95 345.92, 32 349.39 M32 349.39 C11.92 349.97, 0.37 338.37, 0 317.39 M32 349.39 C9.61 350.95, -2.3 338.9, 0 317.39 M0 317.39 C2.01 246.02, 1.25 175.86, 0 32 M0 317.39 C-0.52 243.85, -0.48 172.21, 0 32 M0 32 C-1.39 9.92, 11.08 0.48, 32 0 M0 32 C-0.52 11.66, 12.03 1.88, 32 0" stroke="#c2255c" stroke-width="2" fill="none"></path></g><g stroke-linecap="round"><g transform="translate(741.0793106800479 484.1696759515635) rotate(0 -102.1903828949832 142.9932296555171)"><path d="M0.21 1.16 C-34 48.98, -170.4 238.17, -204.49 285.81 M-1.13 0.72 C-35.58 48.83, -171.51 239.84, -205.5 287.26" stroke="#c2255c" stroke-width="2" fill="none"></path></g><g transform="translate(741.0793106800479 484.1696759515635) rotate(0 -102.1903828949832 142.9932296555171)"><path d="M-198.81 263.17 C-199.55 271.8, -204.2 280.85, -205.5 287.26 M-198.81 263.17 C-200.37 272.25, -204.75 282.38, -205.5 287.26" stroke="#c2255c" stroke-width="2" fill="none"></path></g><g transform="translate(741.0793106800479 484.1696759515635) rotate(0 -102.1903828949832 142.9932296555171)"><path d="M-184.89 273.11 C-190.62 278.13, -200.36 283.56, -205.5 287.26 M-184.89 273.11 C-191.88 278.23, -201.65 284.5, -205.5 287.26" stroke="#c2255c" stroke-width="2" fill="none"></path></g></g><mask></mask><g stroke-linecap="round"><g transform="translate(1267.715588538811 659.8247230473405) rotate(0 412.0706341773282 -94.68289652618216)"><path d="M0.32 1.09 C137.76 -30.66, 687.17 -157.86, 824.54 -189.71 M-0.98 0.62 C136.35 -31.03, 686.31 -156.74, 823.81 -188.36" stroke="#1e1e1e" stroke-width="2" fill="none"></path></g><g transform="translate(1267.715588538811 659.8247230473405) rotate(0 412.0706341773282 -94.68289652618216)"><path d="M802.82 -174.78 C810.65 -178.11, 814.35 -182.04, 823.81 -188.36 M802.82 -174.78 C807.79 -177.85, 812.35 -182, 823.81 -188.36" stroke="#1e1e1e" stroke-width="2" fill="none"></path></g><g transform="translate(1267.715588538811 659.8247230473405) rotate(0 412.0706341773282 -94.68289652618216)"><path d="M799 -191.44 C808.05 -189.94, 812.86 -189.03, 823.81 -188.36 M799 -191.44 C804.9 -190.45, 810.39 -190.53, 823.81 -188.36" stroke="#1e1e1e" stroke-width="2" fill="none"></path></g></g><mask></mask><g stroke-linecap="round" transform="translate(2097.1993501242077 375.33250233445654) rotate(0 308.41450446493354 80.01371537423847)"><path d="M32 0 C223.98 0.79, 416.71 0.84, 584.83 0 M32 0 C199.46 -0.92, 367.5 -1.14, 584.83 0 M584.83 0 C608.07 1.17, 616.05 9.12, 616.83 32 M584.83 0 C607.65 -0.52, 617.35 11.18, 616.83 32 M616.83 32 C617.99 57.27, 617.53 86.99, 616.83 128.03 M616.83 32 C616.78 68.55, 616.84 103.03, 616.83 128.03 M616.83 128.03 C618.39 150.18, 607.7 158.73, 584.83 160.03 M616.83 128.03 C615.99 148.72, 606.28 161.52, 584.83 160.03 M584.83 160.03 C461.73 161.36, 339.99 160.7, 32 160.03 M584.83 160.03 C438.38 158.88, 292.5 158.81, 32 160.03 M32 160.03 C12.06 160.09, 0.45 147.94, 0 128.03 M32 160.03 C11.13 159.17, 2.07 147.61, 0 128.03 M0 128.03 C2.1 98.28, -0.91 66.2, 0 32 M0 128.03 C1.33 89.65, 0.44 51.33, 0 32 M0 32 C0.47 11.25, 10.54 -0.32, 32 0 M0 32 C1.04 9.65, 12.27 1.48, 32 0" stroke="#1e1e1e" stroke-width="2" fill="none"></path></g><g transform="translate(2121.997442064516 395.5523517364078) rotate(0 308.81969036184796 59.602190883125445)"><text x="0" y="16.707686148357723" font-family="Virgil, Segoe UI Emoji" font-size="19.07270108260014px" fill="#1e1e1e" text-anchor="start" style="white-space: pre;" direction="ltr" dominant-baseline="alphabetic">Paa definir la transparecia simplemente podemos definir una </text><text x="0" y="40.5485625016079" font-family="Virgil, Segoe UI Emoji" font-size="19.07270108260014px" fill="#1e1e1e" text-anchor="start" style="white-space: pre;" direction="ltr" dominant-baseline="alphabetic">mascara  </text><text x="0" y="64.38943885485807" font-family="Virgil, Segoe UI Emoji" font-size="19.07270108260014px" fill="#1e1e1e" text-anchor="start" style="white-space: pre;" direction="ltr" dominant-baseline="alphabetic">transparencia db 0,0,0,255,0,0,0,255,0,0,0,255,0,0,0,255</text><text x="0" y="88.23031520810825" font-family="Virgil, Segoe UI Emoji" font-size="19.07270108260014px" fill="#1e1e1e" text-anchor="start" style="white-space: pre;" direction="ltr" dominant-baseline="alphabetic">con eso nos aseguramos ponerle el 255 (siempre y cuando </text><text x="0" y="112.07119156135842" font-family="Virgil, Segoe UI Emoji" font-size="19.07270108260014px" fill="#1e1e1e" text-anchor="start" style="white-space: pre;" direction="ltr" dominant-baseline="alphabetic">tengamos un cero en la componente A)</text></g><g stroke-linecap="round"><g transform="translate(1283.8363674071256 938.2039353186117) rotate(0 320.2765509793114 -116.1708396499265)"><path d="M-0.48 0.23 C106.24 -38.27, 532.88 -192.78, 639.86 -231.65 M1.48 -0.7 C108.61 -39.49, 535.61 -194.86, 642.21 -233.41" stroke="#e03131" stroke-width="2" fill="none"></path></g><g transform="translate(1283.8363674071256 938.2039353186117) rotate(0 320.2765509793114 -116.1708396499265)"><path d="M623.04 -217.36 C628.61 -222.71, 634.49 -224.42, 642.21 -233.41 M623.04 -217.36 C627.09 -220.78, 631.89 -225.92, 642.21 -233.41" stroke="#e03131" stroke-width="2" fill="none"></path></g><g transform="translate(1283.8363674071256 938.2039353186117) rotate(0 320.2765509793114 -116.1708396499265)"><path d="M617.21 -233.43 C624.24 -234.48, 631.67 -231.91, 642.21 -233.41 M617.21 -233.43 C622.66 -232.86, 628.9 -234.05, 642.21 -233.41" stroke="#e03131" stroke-width="2" fill="none"></path></g></g><mask></mask><g stroke-linecap="round" transform="translate(1950.9615320808134 653.1341069024779) rotate(0 355.7731964279001 65.34609730308364)"><path d="M32 0 C271.39 -1.74, 511.75 -1.64, 679.55 0 M32 0 C224 -0.5, 415.63 -0.37, 679.55 0 M679.55 0 C700.54 -0.04, 710.38 12.37, 711.55 32 M679.55 0 C701.07 1.18, 710.29 9.23, 711.55 32 M711.55 32 C710.15 55.5, 712.01 80.82, 711.55 98.69 M711.55 32 C712.03 48.47, 712.54 66.14, 711.55 98.69 M711.55 98.69 C711.95 120.18, 700.85 129.57, 679.55 130.69 M711.55 98.69 C710.2 119.43, 700.59 131.82, 679.55 130.69 M679.55 130.69 C480.44 129.27, 282.16 129.73, 32 130.69 M679.55 130.69 C489.36 129.1, 298.7 129.03, 32 130.69 M32 130.69 C10.13 129.79, -0.85 121.82, 0 98.69 M32 130.69 C12.12 132.13, -0.05 120.92, 0 98.69 M0 98.69 C-1.19 80.38, 1.82 60.85, 0 32 M0 98.69 C0.09 76.8, 0.74 54.52, 0 32 M0 32 C-0.6 11.86, 8.77 -0.11, 32 0 M0 32 C-1.15 10.85, 10.1 -0.32, 32 0" stroke="#e03131" stroke-width="2" fill="none"></path></g><g transform="translate(1988.071661413429 667.6554618587188) rotate(0 312.04998779296875 62.5)"><text x="0" y="17.52" font-family="Virgil, Segoe UI Emoji" font-size="20px" fill="#e03131" text-anchor="start" style="white-space: pre;" direction="ltr" dominant-baseline="alphabetic">Para el color rojo de la imagen destino simplemente aislamos </text><text x="0" y="42.519999999999996" font-family="Virgil, Segoe UI Emoji" font-size="20px" fill="#e03131" text-anchor="start" style="white-space: pre;" direction="ltr" dominant-baseline="alphabetic">los valores rojo de la imagen A y el azul de la B. </text><text x="0" y="67.52" font-family="Virgil, Segoe UI Emoji" font-size="20px" fill="#e03131" text-anchor="start" style="white-space: pre;" direction="ltr" dominant-baseline="alphabetic">Con un packed shift (byte o double) para luego dejarlos en la </text><text x="0" y="92.52" font-family="Virgil, Segoe UI Emoji" font-size="20px" fill="#e03131" text-anchor="start" style="white-space: pre;" direction="ltr" dominant-baseline="alphabetic">posicion adecuada (la del ROJO DESTINO) y restar </text><text x="0" y="117.52" font-family="Virgil, Segoe UI Emoji" font-size="20px" fill="#e03131" text-anchor="start" style="white-space: pre;" direction="ltr" dominant-baseline="alphabetic"></text></g><g stroke-linecap="round"><g transform="translate(1057.8729915863178 1125.1411696945247) rotate(0 430.80019703514415 -76.64048449127108)"><path d="M1.17 -0.65 C144.47 -26.31, 716.95 -128.49, 860.53 -153.94 M0.33 1.62 C143.91 -23.9, 718.99 -127.13, 862.68 -152.74" stroke="#1971c2" stroke-width="2" fill="none"></path></g><g transform="translate(1057.8729915863178 1125.1411696945247) rotate(0 430.80019703514415 -76.64048449127108)"><path d="M841.06 -140.19 C847.84 -146.76, 855.72 -147.81, 862.68 -152.74 M841.06 -140.19 C847.81 -144.6, 854.02 -146.38, 862.68 -152.74" stroke="#1971c2" stroke-width="2" fill="none"></path></g><g transform="translate(1057.8729915863178 1125.1411696945247) rotate(0 430.80019703514415 -76.64048449127108)"><path d="M838.05 -157.02 C845.93 -157.49, 854.9 -152.41, 862.68 -152.74 M838.05 -157.02 C845.64 -156.47, 852.73 -153.31, 862.68 -152.74" stroke="#1971c2" stroke-width="2" fill="none"></path></g></g><mask></mask><g stroke-linecap="round" transform="translate(1928.4483897615046 842.5167777901188) rotate(0 335.60464787756564 79.86745225932441)"><path d="M32 0 C235.46 0.99, 438.62 0.64, 639.21 0 M32 0 C243.35 -1.27, 454.91 -1.37, 639.21 0 M639.21 0 C661.95 -0.48, 670.57 8.79, 671.21 32 M639.21 0 C661.04 -0.54, 669.42 10.19, 671.21 32 M671.21 32 C672.18 60.56, 672.31 91.21, 671.21 127.73 M671.21 32 C671.4 59.4, 670.56 87.52, 671.21 127.73 M671.21 127.73 C670.9 150.06, 659.66 159.37, 639.21 159.73 M671.21 127.73 C669.08 150.5, 659.09 161.1, 639.21 159.73 M639.21 159.73 C475.38 156.82, 311.85 156.92, 32 159.73 M639.21 159.73 C453.32 157.63, 268.05 157.85, 32 159.73 M32 159.73 C10.45 160.41, -0.31 149.22, 0 127.73 M32 159.73 C11.32 160.21, 0.44 147.37, 0 127.73 M0 127.73 C-1.09 93.76, 1.56 56.56, 0 32 M0 127.73 C0.56 90.66, 0.22 52.35, 0 32 M0 32 C-1.47 9.07, 11.39 -1.11, 32 0 M0 32 C0.86 9.57, 11.22 -0.29, 32 0" stroke="#1971c2" stroke-width="2" fill="none"></path></g><g transform="translate(1954.264131905933 860.265100514413) rotate(0 296.1666564941406 50)"><text x="0" y="17.52" font-family="Virgil, Segoe UI Emoji" font-size="20px" fill="#1971c2" text-anchor="start" style="white-space: pre;" direction="ltr" dominant-baseline="alphabetic">Para el azul sumamos componente roja de la imagen B </text><text x="0" y="42.519999999999996" font-family="Virgil, Segoe UI Emoji" font-size="20px" fill="#1971c2" text-anchor="start" style="white-space: pre;" direction="ltr" dominant-baseline="alphabetic">con la componente azul de la imagen A</text><text x="0" y="67.52" font-family="Virgil, Segoe UI Emoji" font-size="20px" fill="#1971c2" text-anchor="start" style="white-space: pre;" direction="ltr" dominant-baseline="alphabetic">La dinamica es la misma que con el rojo, shift, aislamos la </text><text x="0" y="92.52" font-family="Virgil, Segoe UI Emoji" font-size="20px" fill="#1971c2" text-anchor="start" style="white-space: pre;" direction="ltr" dominant-baseline="alphabetic">componente de interes, en el lugar apropiedo, y sumamos</text></g><g stroke-linecap="round" transform="translate(275.68544974121755 1191.5591056381118) rotate(0 756.5629682897029 136.41059579768887)"><path d="M32 0 C458.57 0.7, 886.62 0.32, 1481.13 0 M32 0 C364.23 0.29, 695.63 -0.34, 1481.13 0 M1481.13 0 C1502 -0.11, 1513.77 10.96, 1513.13 32 M1481.13 0 C1500.49 -1.92, 1513.97 10.74, 1513.13 32 M1513.13 32 C1510.16 81.04, 1512.04 133.03, 1513.13 240.82 M1513.13 32 C1514.6 88.51, 1514.11 144.79, 1513.13 240.82 M1513.13 240.82 C1511.89 263.2, 1502.2 274.24, 1481.13 272.82 M1513.13 240.82 C1510.9 263.1, 1502.46 273.95, 1481.13 272.82 M1481.13 272.82 C1190.05 277.34, 900.31 277.97, 32 272.82 M1481.13 272.82 C947.5 274.06, 413.25 274.05, 32 272.82 M32 272.82 C11.68 273.54, -0.51 260.58, 0 240.82 M32 272.82 C12.52 272.37, -0.53 261.93, 0 240.82 M0 240.82 C-2.64 187.79, -0.05 131.01, 0 32 M0 240.82 C1.51 199.67, 2.22 156.76, 0 32 M0 32 C-1.82 11.44, 12.1 -0.3, 32 0 M0 32 C-1.43 11.79, 10.79 0.11, 32 0" stroke="#2f9e44" stroke-width="2" fill="none"></path></g><g stroke-linecap="round"><g transform="translate(1785.9456175013438 1319.945548741819) rotate(0 67.6321441349885 -29.803995720503508)"><path d="M0.94 0.55 C23.47 -9.48, 111.6 -49.97, 134.13 -59.99 M-0.02 -0.2 C22.96 -10.08, 113.6 -48.99, 136.25 -58.65" stroke="#2f9e44" stroke-width="2" fill="none"></path></g><g transform="translate(1785.9456175013438 1319.945548741819) rotate(0 67.6321441349885 -29.803995720503508)"><path d="M118.02 -41.54 C122.78 -47.2, 125.08 -47.43, 136.25 -58.65 M118.02 -41.54 C124.23 -47.14, 128.99 -51.22, 136.25 -58.65" stroke="#2f9e44" stroke-width="2" fill="none"></path></g><g transform="translate(1785.9456175013438 1319.945548741819) rotate(0 67.6321441349885 -29.803995720503508)"><path d="M111.29 -57.27 C117.5 -59.64, 121.22 -56.55, 136.25 -58.65 M111.29 -57.27 C119.58 -58.12, 126.4 -57.41, 136.25 -58.65" stroke="#2f9e44" stroke-width="2" fill="none"></path></g></g><mask></mask><g stroke-linecap="round" transform="translate(1932.2243632516756 1117.2792575277072) rotate(0 411.54961604893765 201.87089448143342)"><path d="M32 0 C316.47 0.89, 600.55 1.25, 791.1 0 M32 0 C213.32 0.53, 394.96 0.24, 791.1 0 M791.1 0 C814.31 0.84, 823.99 12.19, 823.1 32 M791.1 0 C811.19 -0.94, 822.85 12.3, 823.1 32 M823.1 32 C825.69 145.6, 824.14 260.37, 823.1 371.74 M823.1 32 C823.06 124.41, 823.06 218.59, 823.1 371.74 M823.1 371.74 C822.16 393.64, 810.59 405.44, 791.1 403.74 M823.1 371.74 C820.9 395.24, 812.78 402.31, 791.1 403.74 M791.1 403.74 C590.96 405.82, 390.93 406.47, 32 403.74 M791.1 403.74 C535.85 403.91, 280.75 403.89, 32 403.74 M32 403.74 C10.02 404.93, -1.35 391.28, 0 371.74 M32 403.74 C12.95 405.49, 0.35 394.17, 0 371.74 M0 371.74 C-1.75 250.12, -0.16 124.67, 0 32 M0 371.74 C0.64 302.1, 0.55 233.86, 0 32 M0 32 C-0.69 10.78, 9.9 -1.68, 32 0 M0 32 C-1.86 9.11, 11.94 1.38, 32 0" stroke="#2f9e44" stroke-width="2" fill="none"></path></g><g transform="translate(1951.0299621877834 1136.8749490055634) rotate(0 394.8444561387462 187.5)"><text x="0" y="17.52" font-family="Virgil, Segoe UI Emoji" font-size="20px" fill="#2f9e44" text-anchor="start" style="white-space: pre;" direction="ltr" dominant-baseline="alphabetic">Para el verde tenemos que realizar una comparacion. Recordar que para los </text><text x="0" y="42.519999999999996" font-family="Virgil, Segoe UI Emoji" font-size="20px" fill="#2f9e44" text-anchor="start" style="white-space: pre;" direction="ltr" dominant-baseline="alphabetic">packed compare (grater than en este caso) queda un 0 si es false, 1 si es </text><text x="0" y="67.52" font-family="Virgil, Segoe UI Emoji" font-size="20px" fill="#2f9e44" text-anchor="start" style="white-space: pre;" direction="ltr" dominant-baseline="alphabetic">true. Con esto que podemos hacer?</text><text x="0" y="92.52" font-family="Virgil, Segoe UI Emoji" font-size="20px" fill="#2f9e44" text-anchor="start" style="white-space: pre;" direction="ltr" dominant-baseline="alphabetic"></text><text x="0" y="117.52" font-family="Virgil, Segoe UI Emoji" font-size="20px" fill="#2f9e44" text-anchor="start" style="white-space: pre;" direction="ltr" dominant-baseline="alphabetic">    - Si queda un 1 quiere decir que la componente green de A &gt; componente </text><text x="0" y="142.52" font-family="Virgil, Segoe UI Emoji" font-size="20px" fill="#2f9e44" text-anchor="start" style="white-space: pre;" direction="ltr" dominant-baseline="alphabetic">green B =&gt; usamos ese resultado como mascara y hacemos un packed and </text><text x="0" y="167.52" font-family="Virgil, Segoe UI Emoji" font-size="20px" fill="#2f9e44" text-anchor="start" style="white-space: pre;" direction="ltr" dominant-baseline="alphabetic">para mantener los valores de las componentes y luego restarlas</text><text x="0" y="192.52" font-family="Virgil, Segoe UI Emoji" font-size="20px" fill="#2f9e44" text-anchor="start" style="white-space: pre;" direction="ltr" dominant-baseline="alphabetic">    </text><text x="0" y="217.52" font-family="Virgil, Segoe UI Emoji" font-size="20px" fill="#2f9e44" text-anchor="start" style="white-space: pre;" direction="ltr" dominant-baseline="alphabetic">    - Si queda un 0 quiere decir que no se cumple la desigualdad anterior, por</text><text x="0" y="242.52" font-family="Virgil, Segoe UI Emoji" font-size="20px" fill="#2f9e44" text-anchor="start" style="white-space: pre;" direction="ltr" dominant-baseline="alphabetic">ello vamos a hacer un xor con una mascara que tenga 1 en la posicion de la </text><text x="0" y="267.52" font-family="Virgil, Segoe UI Emoji" font-size="20px" fill="#2f9e44" text-anchor="start" style="white-space: pre;" direction="ltr" dominant-baseline="alphabetic">componente green, para poder con ello definir una nueva mascara que mantenga</text><text x="0" y="292.52" font-family="Virgil, Segoe UI Emoji" font-size="20px" fill="#2f9e44" text-anchor="start" style="white-space: pre;" direction="ltr" dominant-baseline="alphabetic">solo aquellos valores que no cumplen la condicion anterior. Luego aplicamos la </text><text x="0" y="317.52" font-family="Virgil, Segoe UI Emoji" font-size="20px" fill="#2f9e44" text-anchor="start" style="white-space: pre;" direction="ltr" dominant-baseline="alphabetic">mascara a los valores y realizamos packed average (byte o double segun </text><text x="0" y="342.52" font-family="Virgil, Segoe UI Emoji" font-size="20px" fill="#2f9e44" text-anchor="start" style="white-space: pre;" direction="ltr" dominant-baseline="alphabetic">corresponda)  </text><text x="0" y="367.52" font-family="Virgil, Segoe UI Emoji" font-size="20px" fill="#2f9e44" text-anchor="start" style="white-space: pre;" direction="ltr" dominant-baseline="alphabetic"></text></g></svg>