<svg version="1.1" xmlns="http://www.w3.org/2000/svg" viewBox="0 0 3438.9841057313743 3116.40516135269" width="6877.9682114627485" height="6232.81032270538">
  <!-- svg-source:excalidraw -->
  
  <defs>
    <style class="style-fonts">
      @font-face {
        font-family: "Virgil";
        src: url("https://excalidraw.com/Virgil.woff2");
      }
      @font-face {
        font-family: "Cascadia";
        src: url("https://excalidraw.com/Cascadia.woff2");
      }
      @font-face {
        font-family: "Assistant";
        src: url("https://excalidraw.com/Assistant-Regular.woff2");
      }
    </style>
    
  </defs>
  <rect x="0" y="0" width="3438.9841057313743" height="3116.40516135269" fill="#ffffff"></rect><g stroke-linecap="round" transform="translate(178.86238198418516 174.75575098200898) rotate(0 599.7212219127782 207.20838590141443)"><path d="M32 0 C272.84 -1.8, 514.93 -2.36, 1167.44 0 M32 0 C390 -2.65, 747.13 -2.31, 1167.44 0 M1167.44 0 C1190.17 -0.3, 1198.38 9.81, 1199.44 32 M1167.44 0 C1187.03 -0.11, 1201.71 11.14, 1199.44 32 M1199.44 32 C1198.98 137.87, 1198.95 242.7, 1199.44 382.42 M1199.44 32 C1201.03 137.67, 1199.76 244.69, 1199.44 382.42 M1199.44 382.42 C1200.99 403.39, 1188.44 414.53, 1167.44 414.42 M1199.44 382.42 C1199.48 404.45, 1189.32 415.63, 1167.44 414.42 M1167.44 414.42 C897.05 410.06, 626.74 410.14, 32 414.42 M1167.44 414.42 C928.91 410.31, 690.22 410.38, 32 414.42 M32 414.42 C11.55 413.97, 0.85 403.67, 0 382.42 M32 414.42 C11.75 415.02, -1.58 402.63, 0 382.42 M0 382.42 C-2.81 301.09, -1.14 221.4, 0 32 M0 382.42 C-0.44 267.43, -0.71 154.07, 0 32 M0 32 C1.99 9.04, 11.97 -0.32, 32 0 M0 32 C1.71 12.6, 10.01 0, 32 0" stroke="#e03131" stroke-width="2" fill="none"></path></g><g transform="translate(277.16931267725454 127.75575098200898) rotate(0 48.54999923706055 17.5)"><text x="0" y="24.528" font-family="Virgil, Segoe UI Emoji" font-size="28px" fill="#e03131" text-anchor="start" style="white-space: pre;" direction="ltr" dominant-baseline="alphabetic">TAREA</text></g><g transform="translate(215.80296527395086 192.54783018992975) rotate(0 569.215407548179 182.5)"><text x="0" y="25.57920000000001" font-family="Virgil, Segoe UI Emoji" font-size="29.20000000000001px" fill="#e03131" text-anchor="start" style="white-space: pre;" direction="ltr" dominant-baseline="alphabetic">Una tarea es una unidad de trabajo</text><text x="0" y="62.07920000000003" font-family="Virgil, Segoe UI Emoji" font-size="29.20000000000001px" fill="#e03131" text-anchor="start" style="white-space: pre;" direction="ltr" dominant-baseline="alphabetic">que el procesador puede despachar, ejecutar y detener a voluntad bajo la </text><text x="0" y="98.57920000000004" font-family="Virgil, Segoe UI Emoji" font-size="29.20000000000001px" fill="#e03131" text-anchor="start" style="white-space: pre;" direction="ltr" dominant-baseline="alphabetic">forma de : instancia de un programa (proceso o thread), un HANDLER de </text><text x="0" y="135.07920000000004" font-family="Virgil, Segoe UI Emoji" font-size="29.20000000000001px" fill="#e03131" text-anchor="start" style="white-space: pre;" direction="ltr" dominant-baseline="alphabetic">interrupcion o un Servico de SO.</text><text x="0" y="171.57920000000007" font-family="Virgil, Segoe UI Emoji" font-size="29.20000000000001px" fill="#e03131" text-anchor="start" style="white-space: pre;" direction="ltr" dominant-baseline="alphabetic">Cada tarea cuenta con un ESPACIO DE EJECUCION que se compone de </text><text x="0" y="208.07920000000007" font-family="Virgil, Segoe UI Emoji" font-size="29.20000000000001px" fill="#e03131" text-anchor="start" style="white-space: pre;" direction="ltr" dominant-baseline="alphabetic">secciones de codigo, datos y pila. Asi como tambien cuenta con un CONTEXTO</text><text x="0" y="244.5792000000001" font-family="Virgil, Segoe UI Emoji" font-size="29.20000000000001px" fill="#e03131" text-anchor="start" style="white-space: pre;" direction="ltr" dominant-baseline="alphabetic">que se refiere al conjunto de valores de los registros internos del </text><text x="0" y="281.0792000000001" font-family="Virgil, Segoe UI Emoji" font-size="29.20000000000001px" fill="#e03131" text-anchor="start" style="white-space: pre;" direction="ltr" dominant-baseline="alphabetic">procesador. Y como tenemos que resguardar toda esta informacion surge :  </text><text x="0" y="317.5792000000001" font-family="Virgil, Segoe UI Emoji" font-size="29.20000000000001px" fill="#e03131" text-anchor="start" style="white-space: pre;" direction="ltr" dominant-baseline="alphabetic">EL ESPACIO DE CONTEXTO DE EJECUCION que es un bloque de memoria en</text><text x="0" y="354.0792000000001" font-family="Virgil, Segoe UI Emoji" font-size="29.20000000000001px" fill="#e03131" text-anchor="start" style="white-space: pre;" direction="ltr" dominant-baseline="alphabetic">el que se almacena el contexto completo de ejecucion de una tarea. </text></g><g transform="translate(1606.6211372958378 10) rotate(0 89.91666412353516 17.5)"><text x="0" y="24.528" font-family="Virgil, Segoe UI Emoji" font-size="28px" fill="#2f9e44" text-anchor="start" style="white-space: pre;" direction="ltr" dominant-baseline="alphabetic">SCHEDULER </text></g><g stroke-linecap="round" transform="translate(1545.9034075292486 77.41696751147356) rotate(0 599.7212219127781 403.95490774945324)"><path d="M32 0 C444.61 -1.26, 857.86 -0.16, 1167.44 0 M32 0 C296.49 -0.67, 561.89 -0.46, 1167.44 0 M1167.44 0 C1188.83 1.68, 1198.85 11.86, 1199.44 32 M1167.44 0 C1186.71 -0.4, 1200.41 12.08, 1199.44 32 M1199.44 32 C1198.48 261.57, 1198.11 491.37, 1199.44 775.91 M1199.44 32 C1196.28 299.47, 1196.4 567.36, 1199.44 775.91 M1199.44 775.91 C1198.24 795.66, 1188.62 807.03, 1167.44 807.91 M1199.44 775.91 C1199.1 798.12, 1187.93 807.5, 1167.44 807.91 M1167.44 807.91 C792.99 810.66, 418.75 810.88, 32 807.91 M1167.44 807.91 C893.54 803.68, 619.8 803.49, 32 807.91 M32 807.91 C10.61 806.11, 1.77 795.53, 0 775.91 M32 807.91 C11 809.84, 1.26 797.9, 0 775.91 M0 775.91 C0.98 562.36, 0.52 348.24, 0 32 M0 775.91 C-1.73 622.71, -1.82 469.61, 0 32 M0 32 C-0.16 11.58, 9.38 1.05, 32 0 M0 32 C1.59 11.21, 8.86 -1.1, 32 0" stroke="#2f9e44" stroke-width="2" fill="none"></path></g><g transform="translate(1579.9783791289158 118.62047560360497) rotate(0 584.3833618164061 227.5)"><text x="0" y="24.528" font-family="Virgil, Segoe UI Emoji" font-size="28px" fill="#2f9e44" text-anchor="start" style="white-space: pre;" direction="ltr" dominant-baseline="alphabetic">El SCHEDULER es un modulo de software que posee el SO que trabaja con una </text><text x="0" y="59.528" font-family="Virgil, Segoe UI Emoji" font-size="28px" fill="#2f9e44" text-anchor="start" style="white-space: pre;" direction="ltr" dominant-baseline="alphabetic">lista de tareas a ejecutar. Este modulo define un intervalo de tiempo llamado </text><text x="0" y="94.52799999999999" font-family="Virgil, Segoe UI Emoji" font-size="28px" fill="#2f9e44" text-anchor="start" style="white-space: pre;" direction="ltr" dominant-baseline="alphabetic">TIME FRAME que es subdividido en unidades mas pequenas que seran la unidad de </text><text x="0" y="129.528" font-family="Virgil, Segoe UI Emoji" font-size="28px" fill="#2f9e44" text-anchor="start" style="white-space: pre;" direction="ltr" dominant-baseline="alphabetic">tiempo. La idea entonces es asignar cierta cantidad de unidades de tiempo a las</text><text x="0" y="164.528" font-family="Virgil, Segoe UI Emoji" font-size="28px" fill="#2f9e44" text-anchor="start" style="white-space: pre;" direction="ltr" dominant-baseline="alphabetic">tareas. Pasado ese tiempo, se suspende la tarea y se ejecuta la siguiente. </text><text x="0" y="199.528" font-family="Virgil, Segoe UI Emoji" font-size="28px" fill="#2f9e44" text-anchor="start" style="white-space: pre;" direction="ltr" dominant-baseline="alphabetic">Para que todo ello sea posible, dentro del marco de este modulo, el PROCESADOR</text><text x="0" y="234.528" font-family="Virgil, Segoe UI Emoji" font-size="28px" fill="#2f9e44" text-anchor="start" style="white-space: pre;" direction="ltr" dominant-baseline="alphabetic">ejecuta cierta tarea T1 de la lista de tareas que maneja el SCHEDULER. Al </text><text x="0" y="269.528" font-family="Virgil, Segoe UI Emoji" font-size="28px" fill="#2f9e44" text-anchor="start" style="white-space: pre;" direction="ltr" dominant-baseline="alphabetic">finalizar el tiempo, el SCHEDULER toma el control, le asigna SUSPENDING a T1,</text><text x="0" y="304.528" font-family="Virgil, Segoe UI Emoji" font-size="28px" fill="#2f9e44" text-anchor="start" style="white-space: pre;" direction="ltr" dominant-baseline="alphabetic">procede a RESGUARDAR EL CONTEXTO DE T1 y a partir del CONTEXT SWITCH</text><text x="0" y="339.528" font-family="Virgil, Segoe UI Emoji" font-size="28px" fill="#2f9e44" text-anchor="start" style="white-space: pre;" direction="ltr" dominant-baseline="alphabetic">inicia el TIEMPO DE CONMUTACION. Inmediatamente luego, se marca como </text><text x="0" y="374.528" font-family="Virgil, Segoe UI Emoji" font-size="28px" fill="#2f9e44" text-anchor="start" style="white-space: pre;" direction="ltr" dominant-baseline="alphabetic">RUNNING a la siguiente tarea, se hace efectivo el CONTEXT SWITCH y se</text><text x="0" y="409.528" font-family="Virgil, Segoe UI Emoji" font-size="28px" fill="#2f9e44" text-anchor="start" style="white-space: pre;" direction="ltr" dominant-baseline="alphabetic">reanuda la T2 desde el lugar en el que marca su EIP. Asi siguiendo el esquema </text><text x="0" y="444.528" font-family="Virgil, Segoe UI Emoji" font-size="28px" fill="#2f9e44" text-anchor="start" style="white-space: pre;" direction="ltr" dominant-baseline="alphabetic">ROUND ROBIN</text></g><g stroke-linecap="round" transform="translate(1684.4999688606863 641.8048300881846) rotate(0 57.38440220567793 42.013580186299805)"><path d="M21.01 0 C47.57 -0.63, 75.17 -0.15, 93.76 0 M21.01 0 C38.48 0.13, 55.16 0.16, 93.76 0 M93.76 0 C105.86 1.8, 114.74 6.74, 114.77 21.01 M93.76 0 C106.9 1.02, 114.19 7.1, 114.77 21.01 M114.77 21.01 C116.43 31.15, 115.62 41.01, 114.77 63.02 M114.77 21.01 C114.22 32.36, 114.29 42.23, 114.77 63.02 M114.77 63.02 C113.71 78.03, 105.84 83.85, 93.76 84.03 M114.77 63.02 C115.57 79, 107.33 85.11, 93.76 84.03 M93.76 84.03 C73.59 83.72, 56.99 86.35, 21.01 84.03 M93.76 84.03 C77.68 83.88, 60.92 84.63, 21.01 84.03 M21.01 84.03 C6.01 84.37, 1.73 78.88, 0 63.02 M21.01 84.03 C7.9 82.25, -1.78 76.5, 0 63.02 M0 63.02 C-1.02 46.18, -0.35 31.44, 0 21.01 M0 63.02 C-1.17 48.96, 0.22 33.76, 0 21.01 M0 21.01 C0.07 8.93, 7.62 -0.33, 21.01 0 M0 21.01 C-0.19 9.18, 9.01 1.04, 21.01 0" stroke="#6741d9" stroke-width="2" fill="none"></path></g><g transform="translate(1730.1677048447457 666.3184102744844) rotate(0 11.716666221618652 17.5)"><text x="11.716666221618652" y="24.528" font-family="Virgil, Segoe UI Emoji" font-size="28px" fill="#6741d9" text-anchor="middle" style="white-space: pre;" direction="ltr" dominant-baseline="alphabetic">t1</text></g><g stroke-linecap="round" transform="translate(1825.911531438964 642.8295515561431) rotate(0 57.38440220567793 42.013580186299805)"><path d="M21.01 0 C39.66 1.37, 60.29 -0.36, 93.76 0 M21.01 0 C44.65 1.05, 67.3 0.02, 93.76 0 M93.76 0 C108.03 0.46, 113.78 7.34, 114.77 21.01 M93.76 0 C109.75 2.13, 115.66 5.22, 114.77 21.01 M114.77 21.01 C114.9 32.35, 113.71 38.04, 114.77 63.02 M114.77 21.01 C114.99 32, 113.54 45.42, 114.77 63.02 M114.77 63.02 C115.62 76.59, 107.84 85.95, 93.76 84.03 M114.77 63.02 C115.48 76.64, 107.58 86.2, 93.76 84.03 M93.76 84.03 C67.53 84.36, 38.35 82.98, 21.01 84.03 M93.76 84.03 C77.8 83.39, 62.17 84.1, 21.01 84.03 M21.01 84.03 C5.08 84.51, -1.81 78.47, 0 63.02 M21.01 84.03 C8.13 82.2, 1.18 76.9, 0 63.02 M0 63.02 C0.19 49, -0.59 36.76, 0 21.01 M0 63.02 C-0.57 52.02, -0.48 41.42, 0 21.01 M0 21.01 C1.4 8.78, 7.5 -0.6, 21.01 0 M0 21.01 C-1.88 9.08, 5.92 0.72, 21.01 0" stroke="#1971c2" stroke-width="2" fill="none"></path></g><g transform="translate(1865.4126004384652 667.3431317424429) rotate(0 17.883333206176758 17.5)"><text x="17.883333206176758" y="24.528" font-family="Virgil, Segoe UI Emoji" font-size="28px" fill="#1971c2" text-anchor="middle" style="white-space: pre;" direction="ltr" dominant-baseline="alphabetic">t2</text></g><g stroke-linecap="round" transform="translate(2088.240227236349 640.7801086202257) rotate(0 57.38440220567793 42.013580186299805)"><path d="M21.01 0 C49.67 2.01, 80.4 1.02, 93.76 0 M21.01 0 C40.71 -0.61, 58.61 -0.02, 93.76 0 M93.76 0 C108.34 -0.71, 113.08 6.27, 114.77 21.01 M93.76 0 C107.45 -2.21, 115.32 4.92, 114.77 21.01 M114.77 21.01 C116 36.53, 115.29 53.1, 114.77 63.02 M114.77 21.01 C114.64 30.64, 114.49 39.92, 114.77 63.02 M114.77 63.02 C116.45 75.81, 107.96 83, 93.76 84.03 M114.77 63.02 C116.16 78.64, 109.81 84.59, 93.76 84.03 M93.76 84.03 C73.16 85.31, 53.23 85.9, 21.01 84.03 M93.76 84.03 C71.19 83.73, 49.18 83.95, 21.01 84.03 M21.01 84.03 C8.47 82.9, 0.9 76.07, 0 63.02 M21.01 84.03 C6.74 86.15, 0.35 79.23, 0 63.02 M0 63.02 C1.28 49.45, 0.68 37.45, 0 21.01 M0 63.02 C-0.29 53.53, 0.19 43.72, 0 21.01 M0 21.01 C1.49 7.8, 6.69 1.39, 21.01 0 M0 21.01 C1.9 7.84, 5.29 2.24, 21.01 0" stroke="#2f9e44" stroke-width="2" fill="none"></path></g><g transform="translate(2131.174629632762 665.2936888065256) rotate(0 14.449999809265137 17.5)"><text x="14.449999809265137" y="24.528" font-family="Virgil, Segoe UI Emoji" font-size="28px" fill="#2f9e44" text-anchor="middle" style="white-space: pre;" direction="ltr" dominant-baseline="alphabetic">tn</text></g><g transform="translate(1993.9658521841636 680.7442458706087) rotate(0 0.00004999999998744897 0.00005000000010113581)" stroke="none"><path fill="#2f9e44" d="M 3.14,-3.14 Q 3.14,-3.14 3.55,-2.55 3.97,-1.97 4.18,-1.28 4.40,-0.59 4.38,0.11 4.36,0.83 4.11,1.51 3.86,2.18 3.41,2.74 2.96,3.30 2.36,3.69 1.75,4.08 1.05,4.25 0.36,4.42 -0.35,4.36 -1.07,4.31 -1.73,4.02 -2.39,3.74 -2.92,3.26 -3.46,2.78 -3.81,2.15 -4.16,1.53 -4.30,0.82 -4.43,0.11 -4.34,-0.59 -4.24,-1.30 -3.92,-1.94 -3.60,-2.59 -3.09,-3.09 -2.59,-3.60 -1.94,-3.92 -1.30,-4.24 -0.59,-4.34 0.12,-4.43 0.82,-4.30 1.53,-4.16 2.15,-3.81 2.78,-3.46 3.26,-2.92 3.74,-2.39 4.02,-1.73 4.31,-1.07 4.36,-0.35 4.42,0.36 4.25,1.05 4.07,1.75 3.69,2.36 3.30,2.96 2.74,3.41 2.18,3.86 1.51,4.11 0.83,4.36 0.11,4.38 -0.60,4.40 -1.28,4.18 -1.97,3.97 -2.55,3.55 -3.14,3.13 -3.14,3.14 -3.14,3.14 -3.47,2.71 -3.80,2.29 -4.02,1.80 -4.24,1.32 -4.33,0.79 -4.43,0.26 -4.40,-0.26 -4.36,-0.80 -4.20,-1.31 -4.04,-1.82 -3.77,-2.28 -3.49,-2.73 -3.11,-3.11 -2.73,-3.49 -2.28,-3.77 -1.82,-4.05 -1.31,-4.20 -0.80,-4.36 -0.26,-4.40 0.26,-4.43 0.79,-4.33 1.32,-4.24 1.80,-4.02 2.29,-3.80 2.71,-3.47 3.14,-3.14 3.14,-3.14 L 3.14,-3.14 Z"></path></g><g transform="translate(2026.7569391588368 672.5464741269407) rotate(0 0.00004999999998744897 0.00005000000010113581)" stroke="none"><path fill="#2f9e44" d="M 3.14,-3.14 Q 3.14,-3.14 3.55,-2.55 3.97,-1.97 4.18,-1.28 4.40,-0.59 4.38,0.11 4.36,0.83 4.11,1.51 3.86,2.18 3.41,2.74 2.96,3.30 2.36,3.69 1.75,4.08 1.05,4.25 0.36,4.42 -0.35,4.36 -1.07,4.31 -1.73,4.02 -2.39,3.74 -2.92,3.26 -3.46,2.78 -3.81,2.15 -4.16,1.53 -4.30,0.82 -4.43,0.11 -4.34,-0.59 -4.24,-1.30 -3.92,-1.94 -3.60,-2.59 -3.09,-3.09 -2.59,-3.60 -1.94,-3.92 -1.30,-4.24 -0.59,-4.34 0.12,-4.43 0.82,-4.30 1.53,-4.16 2.15,-3.81 2.78,-3.46 3.26,-2.92 3.74,-2.39 4.02,-1.73 4.31,-1.07 4.36,-0.35 4.42,0.36 4.25,1.05 4.07,1.75 3.69,2.36 3.30,2.96 2.74,3.41 2.18,3.86 1.51,4.11 0.83,4.36 0.11,4.38 -0.60,4.40 -1.28,4.18 -1.97,3.97 -2.55,3.55 -3.14,3.13 -3.14,3.14 -3.14,3.14 -3.47,2.71 -3.80,2.29 -4.02,1.80 -4.24,1.32 -4.33,0.79 -4.43,0.26 -4.40,-0.26 -4.36,-0.80 -4.20,-1.31 -4.04,-1.82 -3.77,-2.28 -3.49,-2.73 -3.11,-3.11 -2.73,-3.49 -2.28,-3.77 -1.82,-4.05 -1.31,-4.20 -0.80,-4.36 -0.26,-4.40 0.26,-4.43 0.79,-4.33 1.32,-4.24 1.80,-4.02 2.29,-3.80 2.71,-3.47 3.14,-3.14 3.14,-3.14 L 3.14,-3.14 Z"></path></g><g stroke-linecap="round"><g transform="translate(2139.4763006342755 727.8814333967011) rotate(0 1.1368683772161603e-13 35.86525137854869)"><path d="M-0.21 0.83 C-0.06 12.87, 0.94 59.69, 0.96 71.33 M-1.78 0.22 C-1.72 12.52, 0.36 60.79, 0.52 72.66" stroke="#2f9e44" stroke-width="2" fill="none"></path></g></g><mask></mask><g stroke-linecap="round"><g transform="translate(2145.624629442027 793.4636073460474) rotate(0 -209.04317946354104 2.0494429359171136)"><path d="M-0.83 -1.02 C-70.43 -0.43, -348.41 3.09, -417.99 3.96 M0.93 1.05 C-68.78 1.81, -348.87 4.67, -418.88 5.43" stroke="#2f9e44" stroke-width="2" fill="none"></path></g></g><mask></mask><g stroke-linecap="round"><g transform="translate(1729.5877134508619 799.6119361537985) rotate(0 0 -33.81580844263158)"><path d="M-0.16 -0.08 C0.01 -11.2, 0.26 -56.45, 0.14 -67.81 M-1.7 -1.17 C-1.61 -12, -1.28 -55.35, -0.74 -66.37" stroke="#2f9e44" stroke-width="2" fill="none"></path></g><g transform="translate(1729.5877134508619 799.6119361537985) rotate(0 0 -33.81580844263158)"><path d="M7.22 -42.66 C5.47 -47.9, 3.48 -55.06, -0.74 -66.37 M7.22 -42.66 C5.05 -48.58, 2.41 -55.32, -0.74 -66.37" stroke="#2f9e44" stroke-width="2" fill="none"></path></g><g transform="translate(1729.5877134508619 799.6119361537985) rotate(0 0 -33.81580844263158)"><path d="M-9.88 -43.1 C-7.69 -48.21, -5.75 -55.28, -0.74 -66.37 M-9.88 -43.1 C-7.81 -48.83, -6.22 -55.46, -0.74 -66.37" stroke="#2f9e44" stroke-width="2" fill="none"></path></g></g><mask></mask><g stroke-linecap="round" transform="translate(1620.9672378472571 598.7665284339259) rotate(0 343.281691766109 118.86769028319009)"><path d="M32 0 C256.98 -0.24, 482 0.4, 654.56 0 M32 0 C261.02 -0.36, 490.51 -0.01, 654.56 0 M654.56 0 C676.27 -0.92, 686.6 11.37, 686.56 32 M654.56 0 C676.87 -0.82, 685.54 8.38, 686.56 32 M686.56 32 C687.61 79.53, 685.91 130.48, 686.56 205.74 M686.56 32 C687.65 66.37, 687.22 102.09, 686.56 205.74 M686.56 205.74 C685.3 227.68, 675.1 239.2, 654.56 237.74 M686.56 205.74 C688.31 226.97, 674.89 237, 654.56 237.74 M654.56 237.74 C430.45 235.77, 207.6 236.41, 32 237.74 M654.56 237.74 C415.95 236.87, 177.82 236.37, 32 237.74 M32 237.74 C8.97 239.13, -1.33 227.73, 0 205.74 M32 237.74 C11.76 239.91, -0.55 228.19, 0 205.74 M0 205.74 C1.29 155.64, 0.3 106.81, 0 32 M0 205.74 C0.87 169.98, 0.14 133.86, 0 32 M0 32 C1.94 10.16, 11.43 -0.75, 32 0 M0 32 C-2.05 10.5, 12.18 2.2, 32 0" stroke="#2f9e44" stroke-width="2" fill="none"></path></g><g stroke-linecap="round"><g transform="translate(202.98412396447566 498.4109746866061) rotate(0 -34.3783605403475 135.17297980462467)"><path d="M-0.59 0.51 C-32.51 9.47, -211.65 7.65, -191.39 52.6 C-171.14 97.54, 68.85 233.89, 120.94 270.17 M1.3 -0.27 C-30.24 8.95, -209.41 8.58, -189.07 53.86 C-168.73 99.14, 71.66 235.15, 123.34 271.4" stroke="#f08c00" stroke-width="2" fill="none"></path></g><g transform="translate(202.98412396447566 498.4109746866061) rotate(0 -34.3783605403475 135.17297980462467)"><path d="M98.91 266.12 C107.27 266.63, 113.11 267.94, 123.34 271.4 M98.91 266.12 C105.82 268.49, 112.48 270.11, 123.34 271.4" stroke="#f08c00" stroke-width="2" fill="none"></path></g><g transform="translate(202.98412396447566 498.4109746866061) rotate(0 -34.3783605403475 135.17297980462467)"><path d="M108.02 251.65 C113.42 256.6, 116.43 262.39, 123.34 271.4 M108.02 251.65 C112.24 258.15, 116.29 263.91, 123.34 271.4" stroke="#f08c00" stroke-width="2" fill="none"></path></g></g><mask></mask><g stroke-linecap="round" transform="translate(271.49668055269694 867.7097695536199) rotate(0 581.3068236822387 420.35359024333957)"><path d="M32 0 C309.58 -2.52, 586.52 -1.46, 1130.61 0 M32 0 C400.5 -0.31, 768.77 -0.56, 1130.61 0 M1130.61 0 C1151.67 1.36, 1162.23 12.23, 1162.61 32 M1130.61 0 C1153.62 -1.79, 1161.84 11.56, 1162.61 32 M1162.61 32 C1165.94 226.55, 1165.53 420.73, 1162.61 808.71 M1162.61 32 C1160.54 214.04, 1161.23 396.71, 1162.61 808.71 M1162.61 808.71 C1164.52 829.41, 1153.18 840.22, 1130.61 840.71 M1162.61 808.71 C1164.29 829.84, 1153.75 842.52, 1130.61 840.71 M1130.61 840.71 C827.93 845.54, 526.08 845.01, 32 840.71 M1130.61 840.71 C761.88 842.2, 393.97 841.74, 32 840.71 M32 840.71 C11.84 840.07, -1.89 829.95, 0 808.71 M32 840.71 C10.14 839.12, 1.26 831.76, 0 808.71 M0 808.71 C-0.86 551.49, -0.13 295.18, 0 32 M0 808.71 C-2.17 534.04, -2.75 259.63, 0 32 M0 32 C-0.91 11.48, 11.71 -0.6, 32 0 M0 32 C1.1 9.96, 9.36 -0.3, 32 0" stroke="#f08c00" stroke-width="2" fill="none"></path></g><g transform="translate(337.12809612972364 748.9481604142384) rotate(0 230.4166717529297 17.5)"><text x="0" y="24.528" font-family="Virgil, Segoe UI Emoji" font-size="28px" fill="#f08c00" text-anchor="start" style="white-space: pre;" direction="ltr" dominant-baseline="alphabetic">TSS ( TASK STATE SEGMENT )</text></g><g stroke-linecap="round"><g transform="translate(274.6219860563647 936.466490634315) rotate(0 579.7441709304048 -1.5626527518338662)"><path d="M-0.81 0.8 C192.53 0.01, 967.28 -3.05, 1160.66 -3.73 M0.97 0.17 C194.19 0.06, 967.37 -2.14, 1160.33 -2.52" stroke="#f08c00" stroke-width="2" fill="none"></path></g></g><mask></mask><g stroke-linecap="round"><g transform="translate(272.8760660136405 1003.5651604015197) rotate(0 579.7441709304048 -1.5626527518338662)"><path d="M0.06 0.36 C193.38 0.03, 967.2 -1.22, 1160.31 -1.97 M-1.37 -0.5 C191.83 -1.14, 966.03 -3.01, 1159.8 -3.48" stroke="#f08c00" stroke-width="2" fill="none"></path></g></g><mask></mask><g stroke-linecap="round"><g transform="translate(266.6254550063046 1087.9484090005535) rotate(0 579.7441709304048 -1.5626527518338662)"><path d="M0.71 -1.03 C193.79 -1.73, 965.59 -2.77, 1158.76 -3.13 M-0.37 1.04 C193.06 1.06, 967.84 -1.1, 1161.09 -1.59" stroke="#f08c00" stroke-width="2" fill="none"></path></g></g><mask></mask><g stroke-linecap="round"><g transform="translate(257.2495384953005 1184.832879614261) rotate(0 579.7441709304048 -1.5626527518338662)"><path d="M-1.17 0.37 C192.07 0.01, 967.12 -1.95, 1160.38 -2.47 M0.41 -0.48 C193.49 -1.17, 966.51 -4.12, 1159.91 -4.26" stroke="#f08c00" stroke-width="2" fill="none"></path></g></g><mask></mask><g stroke-linecap="round"><g transform="translate(266.62545500630415 1266.090822709628) rotate(0 579.7441709304048 -1.5626527518338662)"><path d="M-0.27 0.65 C193 -0.15, 965.81 -3.14, 1159.15 -3.81 M1.79 -0.06 C194.92 -0.8, 965.13 -2.28, 1158.02 -2.63" stroke="#f08c00" stroke-width="2" fill="none"></path></g></g><mask></mask><g stroke-linecap="round"><g transform="translate(257.2495384953005 1612.9997336167698) rotate(0 579.7441709304048 -1.5626527518338662)"><path d="M0.09 -0.71 C193.13 -1.38, 965.2 -3.52, 1158.52 -3.92 M-1.33 1.54 C192.06 0.99, 967.25 -2.25, 1160.73 -2.8" stroke="#f08c00" stroke-width="2" fill="none"></path></g></g><mask></mask><g stroke-linecap="round"><g transform="translate(260.3748439989687 1509.8646519957274) rotate(0 579.7441709304048 -1.5626527518338662)"><path d="M0.59 1.16 C193.92 0.63, 966.67 -1.69, 1159.75 -2.43 M-0.56 0.72 C192.65 -0.21, 965.84 -3.73, 1158.94 -4.19" stroke="#f08c00" stroke-width="2" fill="none"></path></g></g><mask></mask><g transform="translate(449.63909426176997 1286.5007070451256) rotate(0 397.45001220703125 105)"><text x="0" y="24.528" font-family="Virgil, Segoe UI Emoji" font-size="28px" fill="#f08c00" text-anchor="start" style="white-space: pre;" direction="ltr" dominant-baseline="alphabetic">REGISTROS (EDI, ESI, EBP, ESP, EBX, EDX, ECX, EAX)</text><text x="0" y="59.528" font-family="Virgil, Segoe UI Emoji" font-size="28px" fill="#f08c00" text-anchor="start" style="white-space: pre;" direction="ltr" dominant-baseline="alphabetic">EFLAGS</text><text x="0" y="94.52799999999999" font-family="Virgil, Segoe UI Emoji" font-size="28px" fill="#f08c00" text-anchor="start" style="white-space: pre;" direction="ltr" dominant-baseline="alphabetic">EIP</text><text x="0" y="129.528" font-family="Virgil, Segoe UI Emoji" font-size="28px" fill="#f08c00" text-anchor="start" style="white-space: pre;" direction="ltr" dominant-baseline="alphabetic">CR3</text><text x="0" y="164.528" font-family="Virgil, Segoe UI Emoji" font-size="28px" fill="#f08c00" text-anchor="start" style="white-space: pre;" direction="ltr" dominant-baseline="alphabetic">ESP0, ESP1, ESP2, ESP3</text><text x="0" y="199.528" font-family="Virgil, Segoe UI Emoji" font-size="28px" fill="#f08c00" text-anchor="start" style="white-space: pre;" direction="ltr" dominant-baseline="alphabetic">SS0, SS1, SS2</text></g><g stroke-linecap="round"><g transform="translate(802.7986161762483 861.459158546284) rotate(0 3.12530550366796 198.4568994829151)"><path d="M-0.33 0.03 C0.36 66.26, 4.28 330.97, 5.32 397.05 M1.69 -1 C2.66 65.48, 7 332.23, 7.54 398.67" stroke="#f08c00" stroke-width="2" fill="none"></path></g></g><mask></mask><g stroke-linecap="round"><g transform="translate(814.8201814274105 1506.4576070201788) rotate(0 1.5626527518338662 106.26038712471063)"><path d="M0.99 -0.27 C1.44 35.16, 2.96 177.05, 3.5 212.6 M0.04 -1.46 C0.3 34.18, 2.09 178.78, 2.75 214.18" stroke="#f08c00" stroke-width="2" fill="none"></path></g></g><mask></mask><g transform="translate(968.4398078706495 967.7195456709946) rotate(0 53.08333206176758 140)"><text x="0" y="24.528" font-family="Virgil, Segoe UI Emoji" font-size="28px" fill="#f08c00" text-anchor="start" style="white-space: pre;" direction="ltr" dominant-baseline="alphabetic">GS</text><text x="0" y="59.528" font-family="Virgil, Segoe UI Emoji" font-size="28px" fill="#f08c00" text-anchor="start" style="white-space: pre;" direction="ltr" dominant-baseline="alphabetic"></text><text x="0" y="94.52799999999999" font-family="Virgil, Segoe UI Emoji" font-size="28px" fill="#f08c00" text-anchor="start" style="white-space: pre;" direction="ltr" dominant-baseline="alphabetic">FS</text><text x="0" y="129.528" font-family="Virgil, Segoe UI Emoji" font-size="28px" fill="#f08c00" text-anchor="start" style="white-space: pre;" direction="ltr" dominant-baseline="alphabetic"></text><text x="0" y="164.528" font-family="Virgil, Segoe UI Emoji" font-size="28px" fill="#f08c00" text-anchor="start" style="white-space: pre;" direction="ltr" dominant-baseline="alphabetic">DS</text><text x="0" y="199.528" font-family="Virgil, Segoe UI Emoji" font-size="28px" fill="#f08c00" text-anchor="start" style="white-space: pre;" direction="ltr" dominant-baseline="alphabetic">SS</text><text x="0" y="234.528" font-family="Virgil, Segoe UI Emoji" font-size="28px" fill="#f08c00" text-anchor="start" style="white-space: pre;" direction="ltr" dominant-baseline="alphabetic"></text><text x="0" y="269.528" font-family="Virgil, Segoe UI Emoji" font-size="28px" fill="#f08c00" text-anchor="start" style="white-space: pre;" direction="ltr" dominant-baseline="alphabetic">CS , ES</text></g><g transform="translate(321.5015686113841 798.9530484729239) rotate(0 414.04998779296875 17.5)"><text x="0" y="24.528" font-family="Virgil, Segoe UI Emoji" font-size="28px" fill="#f08c00" text-anchor="start" style="white-space: pre;" direction="ltr" dominant-baseline="alphabetic">El tamano de este bloque de memoria es como minimo 0x67 </text></g><g transform="translate(1405.9825783841625 1736.5446995733105) rotate(0 9.633333206176758 17.5)"><text x="0" y="24.528" font-family="Virgil, Segoe UI Emoji" font-size="28px" fill="#f08c00" text-anchor="start" style="white-space: pre;" direction="ltr" dominant-baseline="alphabetic">0</text></g><g transform="translate(255.61273633918404 1728.4206160843141) rotate(0 13.333333015441895 17.5)"><text x="0" y="24.528" font-family="Virgil, Segoe UI Emoji" font-size="28px" fill="#f08c00" text-anchor="start" style="white-space: pre;" direction="ltr" dominant-baseline="alphabetic">31</text></g><g transform="translate(1457.2473271673662 1644.0373674852794) rotate(0 12 17.5)"><text x="0" y="24.528" font-family="Virgil, Segoe UI Emoji" font-size="28px" fill="#f08c00" text-anchor="start" style="white-space: pre;" direction="ltr" dominant-baseline="alphabetic">0</text></g><g transform="translate(1453.363382953854 887.7134355976345) rotate(0 35.439791277509585 17.5)"><text x="0" y="24.528" font-family="Virgil, Segoe UI Emoji" font-size="28px" fill="#f08c00" text-anchor="start" style="white-space: pre;" direction="ltr" dominant-baseline="alphabetic">100</text></g><g transform="translate(1462.7392994648576 1540.9022858642375) rotate(0 12 17.5)"><text x="0" y="24.528" font-family="Virgil, Segoe UI Emoji" font-size="28px" fill="#f08c00" text-anchor="start" style="white-space: pre;" direction="ltr" dominant-baseline="alphabetic">4</text></g><g stroke-linecap="round"><g transform="translate(1575.5792348566433 419.61909296522754) rotate(0 -367.22339668098414 171.89180270173688)"><path d="M-0.07 0.75 C-24.32 50.9, -23.87 243.88, -146.44 301.17 C-269.01 358.47, -637.38 337.32, -735.48 344.52 M-1.57 0.1 C-25.85 49.92, -25.23 242.57, -147.16 299.65 C-269.08 356.73, -635.13 335.48, -733.13 342.56" stroke="#f08c00" stroke-width="2" fill="none"></path></g><g transform="translate(1575.5792348566433 419.61909296522754) rotate(0 -367.22339668098414 171.89180270173688)"><path d="M-709.73 333.75 C-713.6 336.42, -718.08 335.88, -733.13 342.56 M-709.73 333.75 C-718.11 337.07, -726.57 340.67, -733.13 342.56" stroke="#f08c00" stroke-width="2" fill="none"></path></g><g transform="translate(1575.5792348566433 419.61909296522754) rotate(0 -367.22339668098414 171.89180270173688)"><path d="M-709.55 350.85 C-713.49 349.76, -718.01 345.47, -733.13 342.56 M-709.55 350.85 C-717.9 348, -726.43 345.42, -733.13 342.56" stroke="#f08c00" stroke-width="2" fill="none"></path></g></g><mask></mask><g transform="translate(1006.773633189076 685.270060777003) rotate(0 197.3333282470703 17.5)"><text x="0" y="24.528" font-family="Virgil, Segoe UI Emoji" font-size="28px" fill="#f08c00" text-anchor="start" style="white-space: pre;" direction="ltr" dominant-baseline="alphabetic">Es decir cargar en la tss ...</text></g><g stroke-linecap="round" transform="translate(1568.706666133906 1222.2141471679333) rotate(0 365.6235644722035 264.3890829113516)"><path d="M32 0 C176.73 1.91, 320.84 1.48, 699.25 0 M32 0 C200.06 1.25, 368.68 1.25, 699.25 0 M699.25 0 C719.29 1.42, 732.65 12.29, 731.25 32 M699.25 0 C719.9 0.03, 732.28 11.85, 731.25 32 M731.25 32 C730.33 135.46, 729.63 238.71, 731.25 496.78 M731.25 32 C729.63 139.59, 729.14 247.47, 731.25 496.78 M731.25 496.78 C729.66 519.49, 720.33 528.97, 699.25 528.78 M731.25 496.78 C732.44 520.33, 719.32 527.81, 699.25 528.78 M699.25 528.78 C526.44 528.18, 353.31 528.13, 32 528.78 M699.25 528.78 C527.44 528.21, 356.49 528.23, 32 528.78 M32 528.78 C10.5 527.96, 0.66 519.16, 0 496.78 M32 528.78 C11.32 527.57, 1.03 519.67, 0 496.78 M0 496.78 C-1.18 335.75, 0.12 174.48, 0 32 M0 496.78 C-2.07 360.9, -1.38 224.38, 0 32 M0 32 C-1.43 10.15, 11.58 -0.7, 32 0 M0 32 C-1.52 12.86, 8.6 -0.69, 32 0" stroke="#6741d9" stroke-width="2" fill="none"></path></g><g transform="translate(1590.3295651080684 1175.0369130424879) rotate(0 157.6999969482422 11.00694524405094)"><text x="0" y="15.427334454061764" font-family="Virgil, Segoe UI Emoji" font-size="17.611112390481466px" fill="#6741d9" text-anchor="start" style="white-space: pre;" direction="ltr" dominant-baseline="alphabetic">TSS ( TASK STATE SEGMENT ) T1</text></g><g stroke-linecap="round"><g transform="translate(1570.672384222466 1265.4599451162585) rotate(0 364.6407054279234 -0.982859044280076)"><path d="M-0.57 -0.58 C120.98 -1, 607.82 -2.28, 729.4 -2.65 M1.33 1.74 C122.73 1.47, 607.41 -0.87, 728.51 -1.46" stroke="#6741d9" stroke-width="2" fill="none"></path></g></g><mask></mask><g stroke-linecap="round"><g transform="translate(1569.5742558618515 1307.662881349188) rotate(0 364.6407054279234 -0.982859044280076)"><path d="M0.11 -0.68 C121.69 -1.04, 607.21 -2.39, 728.87 -2.74 M-1.29 1.58 C120.14 1.4, 605.87 -1.04, 727.71 -1.6" stroke="#6741d9" stroke-width="2" fill="none"></path></g></g><mask></mask><g stroke-linecap="round"><g transform="translate(1565.6428196847312 1360.7372697403143) rotate(0 364.6407054279234 -0.982859044280076)"><path d="M-0.41 -0.77 C121.25 -1.12, 608.61 -2.68, 730.1 -2.74 M1.57 1.44 C123.14 1.29, 608.01 -0.87, 729.58 -1.61" stroke="#6741d9" stroke-width="2" fill="none"></path></g></g><mask></mask><g stroke-linecap="round"><g transform="translate(1559.7456654190503 1421.6745304856818) rotate(0 364.6407054279234 -0.982859044280076)"><path d="M0.82 -0.77 C122.31 -0.83, 606.96 -1.08, 728.51 -1.11 M-0.21 1.43 C121.7 1.11, 609.15 -2.08, 730.81 -2.79" stroke="#6741d9" stroke-width="2" fill="none"></path></g></g><mask></mask><g stroke-linecap="round"><g transform="translate(1565.6428196847307 1472.7832007882485) rotate(0 364.6407054279234 -0.982859044280076)"><path d="M-0.77 0.85 C120.78 0.82, 608.5 -0.52, 730.12 -0.99 M1.02 0.26 C122.42 -0.03, 608.45 -2.46, 729.61 -2.6" stroke="#6741d9" stroke-width="2" fill="none"></path></g></g><mask></mask><g stroke-linecap="round"><g transform="translate(1559.7456654190503 1690.977908618434) rotate(0 364.6407054279234 -0.982859044280076)"><path d="M0.84 0.97 C122.46 0.51, 607.43 -1.56, 728.93 -1.95 M-0.18 0.44 C121.32 0.1, 606.21 0.23, 727.79 -0.41" stroke="#6741d9" stroke-width="2" fill="none"></path></g></g><mask></mask><g stroke-linecap="round"><g transform="translate(1561.7113835076107 1626.1092116959462) rotate(0 364.6407054279234 -0.982859044280076)"><path d="M-0.35 0.01 C121.14 -0.37, 608.37 -0.87, 729.82 -1.35 M1.66 -1.02 C122.97 -1.85, 607.64 -2.98, 729.16 -3.14" stroke="#6741d9" stroke-width="2" fill="none"></path></g></g><mask></mask><g transform="translate(1680.7525971818393 1485.6203710350046) rotate(0 249.98345837772342 66.04167146430541)"><text x="0" y="15.427334454061764" font-family="Virgil, Segoe UI Emoji" font-size="17.611112390481466px" fill="#6741d9" text-anchor="start" style="white-space: pre;" direction="ltr" dominant-baseline="alphabetic">REGISTROS (EDI, ESI, EBP, ESP, EBX, EDX, ECX, EAX)</text><text x="0" y="37.4412249421636" font-family="Virgil, Segoe UI Emoji" font-size="17.611112390481466px" fill="#6741d9" text-anchor="start" style="white-space: pre;" direction="ltr" dominant-baseline="alphabetic">EFLAGS</text><text x="0" y="59.45511543026543" font-family="Virgil, Segoe UI Emoji" font-size="17.611112390481466px" fill="#6741d9" text-anchor="start" style="white-space: pre;" direction="ltr" dominant-baseline="alphabetic">EIP</text><text x="0" y="81.46900591836726" font-family="Virgil, Segoe UI Emoji" font-size="17.611112390481466px" fill="#6741d9" text-anchor="start" style="white-space: pre;" direction="ltr" dominant-baseline="alphabetic">CR3</text><text x="0" y="103.4828964064691" font-family="Virgil, Segoe UI Emoji" font-size="17.611112390481466px" fill="#6741d9" text-anchor="start" style="white-space: pre;" direction="ltr" dominant-baseline="alphabetic">ESP0, ESP1, ESP2, ESP3</text><text x="0" y="125.49678689457093" font-family="Virgil, Segoe UI Emoji" font-size="17.611112390481466px" fill="#6741d9" text-anchor="start" style="white-space: pre;" direction="ltr" dominant-baseline="alphabetic">SS0, SS1, SS2</text></g><g stroke-linecap="round"><g transform="translate(1902.8787411891456 1218.2827109908126) rotate(0 1.9657180885602656 124.8230986235751)"><path d="M-0.93 -0.9 C-0.43 40.75, 2.75 208.78, 3.54 250.53 M0.79 1.24 C1.05 42.51, 2.03 207.26, 2.39 248.88" stroke="#6741d9" stroke-width="2" fill="none"></path></g></g><mask></mask><g stroke-linecap="round"><g transform="translate(1910.4399246444216 1623.9662884108102) rotate(0 0.982859044280076 66.83441501104812)"><path d="M-0.39 0.89 C0.07 23.31, 1.53 111.65, 1.83 133.65 M1.61 0.31 C1.98 23.01, 1.02 112.93, 0.81 135.17" stroke="#6741d9" stroke-width="2" fill="none"></path></g></g><mask></mask><g transform="translate(2007.0617998828377 1285.117126001861) rotate(0 33.38773310717988 88.05556195240729)"><text x="0" y="15.427334454061764" font-family="Virgil, Segoe UI Emoji" font-size="17.611112390481466px" fill="#6741d9" text-anchor="start" style="white-space: pre;" direction="ltr" dominant-baseline="alphabetic">GS</text><text x="0" y="37.4412249421636" font-family="Virgil, Segoe UI Emoji" font-size="17.611112390481466px" fill="#6741d9" text-anchor="start" style="white-space: pre;" direction="ltr" dominant-baseline="alphabetic"></text><text x="0" y="59.45511543026543" font-family="Virgil, Segoe UI Emoji" font-size="17.611112390481466px" fill="#6741d9" text-anchor="start" style="white-space: pre;" direction="ltr" dominant-baseline="alphabetic">FS</text><text x="0" y="81.46900591836726" font-family="Virgil, Segoe UI Emoji" font-size="17.611112390481466px" fill="#6741d9" text-anchor="start" style="white-space: pre;" direction="ltr" dominant-baseline="alphabetic"></text><text x="0" y="103.4828964064691" font-family="Virgil, Segoe UI Emoji" font-size="17.611112390481466px" fill="#6741d9" text-anchor="start" style="white-space: pre;" direction="ltr" dominant-baseline="alphabetic">DS</text><text x="0" y="125.49678689457093" font-family="Virgil, Segoe UI Emoji" font-size="17.611112390481466px" fill="#6741d9" text-anchor="start" style="white-space: pre;" direction="ltr" dominant-baseline="alphabetic">SS</text><text x="0" y="147.51067738267275" font-family="Virgil, Segoe UI Emoji" font-size="17.611112390481466px" fill="#6741d9" text-anchor="start" style="white-space: pre;" direction="ltr" dominant-baseline="alphabetic"></text><text x="0" y="169.5245678707746" font-family="Virgil, Segoe UI Emoji" font-size="17.611112390481466px" fill="#6741d9" text-anchor="start" style="white-space: pre;" direction="ltr" dominant-baseline="alphabetic">CS , ES</text></g><g transform="translate(2282.2623322812706 1768.6837757876783) rotate(0 6.059061206747742 11.00694524405094)"><text x="0" y="15.427334454061764" font-family="Virgil, Segoe UI Emoji" font-size="17.611112390481466px" fill="#6741d9" text-anchor="start" style="white-space: pre;" direction="ltr" dominant-baseline="alphabetic">0</text></g><g transform="translate(1558.7161687500377 1763.573984809308) rotate(0 8.38624379552374 11.00694524405094)"><text x="0" y="15.427334454061763" font-family="Virgil, Segoe UI Emoji" font-size="17.611112390481463px" fill="#6741d9" text-anchor="start" style="white-space: pre;" direction="ltr" dominant-baseline="alphabetic">31</text></g><g transform="translate(2314.5062341559424 1710.4995964181817) rotate(0 7.547619595920651 11.00694524405094)"><text x="0" y="15.427334454061764" font-family="Virgil, Segoe UI Emoji" font-size="17.611112390481466px" fill="#6741d9" text-anchor="start" style="white-space: pre;" direction="ltr" dominant-baseline="alphabetic">0</text></g><g transform="translate(2312.063356367995 1234.795818986605) rotate(0 22.29050526012236 11.00694524405094)"><text x="0" y="15.427334454061764" font-family="Virgil, Segoe UI Emoji" font-size="17.611112390481466px" fill="#6741d9" text-anchor="start" style="white-space: pre;" direction="ltr" dominant-baseline="alphabetic">100</text></g><g transform="translate(2317.9605106336758 1645.6308994956944) rotate(0 7.547619595920651 11.00694524405094)"><text x="0" y="15.427334454061764" font-family="Virgil, Segoe UI Emoji" font-size="17.611112390481466px" fill="#6741d9" text-anchor="start" style="white-space: pre;" direction="ltr" dominant-baseline="alphabetic">4</text></g><g stroke-linecap="round" transform="translate(2529.6462075961613 1216.341217843276) rotate(0 365.6235644722035 264.3890829113516)"><path d="M32 0 C234.3 -3.29, 435.73 -2.48, 699.25 0 M32 0 C209.18 -1.97, 386.85 -2.53, 699.25 0 M699.25 0 C719.76 1.21, 729.59 9.77, 731.25 32 M699.25 0 C722.75 0.88, 731.69 10.46, 731.25 32 M731.25 32 C731.77 162.47, 732.06 293.32, 731.25 496.78 M731.25 32 C731.56 203.33, 731.07 375.33, 731.25 496.78 M731.25 496.78 C731.7 516.61, 721.09 529.92, 699.25 528.78 M731.25 496.78 C730.53 516.21, 718.69 530.67, 699.25 528.78 M699.25 528.78 C542.88 529.05, 386.04 527.76, 32 528.78 M699.25 528.78 C534.93 527.09, 371.36 527.15, 32 528.78 M32 528.78 C9.27 528.54, -0.01 516.73, 0 496.78 M32 528.78 C12.82 527.02, 0.59 518.69, 0 496.78 M0 496.78 C0.75 336.68, 0.86 176.73, 0 32 M0 496.78 C-0.23 352.14, -0.16 208.46, 0 32 M0 32 C-1.9 12.35, 9.35 -1.58, 32 0 M0 32 C-0.66 10.07, 10.46 -0.66, 32 0" stroke="#1971c2" stroke-width="2" fill="none"></path></g><g transform="translate(2551.269106570324 1169.1639837178304) rotate(0 161.56666564941406 11.00694524405094)"><text x="0" y="15.427334454061764" font-family="Virgil, Segoe UI Emoji" font-size="17.611112390481466px" fill="#1971c2" text-anchor="start" style="white-space: pre;" direction="ltr" dominant-baseline="alphabetic">TSS ( TASK STATE SEGMENT ) T2</text></g><g stroke-linecap="round"><g transform="translate(2531.6119256847214 1259.587015791601) rotate(0 364.6407054279234 -0.982859044280076)"><path d="M0.15 -0.41 C121.75 -0.55, 607.2 -0.83, 728.53 -0.97 M-1.22 -1.67 C120.85 -2.12, 608.9 -2.32, 730.85 -2.57" stroke="#1971c2" stroke-width="2" fill="none"></path></g></g><mask></mask><g stroke-linecap="round"><g transform="translate(2530.5137973241067 1301.7899520245305) rotate(0 364.6407054279234 -0.982859044280076)"><path d="M-0.75 1 C120.58 0.86, 606.61 -0.57, 728.16 -1.22 M1.06 0.47 C122.73 0.03, 608.62 -2.52, 730.29 -2.95" stroke="#1971c2" stroke-width="2" fill="none"></path></g></g><mask></mask><g stroke-linecap="round"><g transform="translate(2526.5823611469864 1354.864340415657) rotate(0 364.6407054279234 -0.982859044280076)"><path d="M-1.12 0.75 C120.43 0.1, 606.89 -2.58, 728.54 -2.91 M0.49 0.1 C122.49 0.09, 609.65 -1.32, 730.86 -1.87" stroke="#1971c2" stroke-width="2" fill="none"></path></g></g><mask></mask><g stroke-linecap="round"><g transform="translate(2520.6852068813055 1415.8016011610248) rotate(0 364.6407054279234 -0.982859044280076)"><path d="M-0.74 -0.95 C120.91 -1.28, 607.29 -0.98, 728.79 -1.24 M1.07 1.17 C122.62 0.43, 605.99 -2.54, 727.58 -2.98" stroke="#1971c2" stroke-width="2" fill="none"></path></g></g><mask></mask><g stroke-linecap="round"><g transform="translate(2526.582361146986 1466.9102714635915) rotate(0 364.6407054279234 -0.982859044280076)"><path d="M-0.49 0.73 C121.01 0.47, 606.47 -2.13, 728.28 -2.5 M1.45 0.07 C123.38 0.05, 609.01 -0.63, 730.47 -1.25" stroke="#1971c2" stroke-width="2" fill="none"></path></g></g><mask></mask><g stroke-linecap="round"><g transform="translate(2520.6852068813055 1685.104979293777) rotate(0 364.6407054279234 -0.982859044280076)"><path d="M-1 -0.54 C120.82 -0.91, 608.66 -1.25, 730.41 -1.51 M0.68 1.8 C122.48 0.99, 608.69 -2.95, 730.06 -3.39" stroke="#1971c2" stroke-width="2" fill="none"></path></g></g><mask></mask><g stroke-linecap="round"><g transform="translate(2522.6509249698656 1620.2362823712888) rotate(0 364.6407054279234 -0.982859044280076)"><path d="M1.13 0.46 C122.88 0.2, 608.19 -1.73, 729.51 -2.07 M0.26 -0.34 C121.96 -0.36, 607.37 -0.02, 728.69 -0.59" stroke="#1971c2" stroke-width="2" fill="none"></path></g></g><mask></mask><g transform="translate(2641.6921386440945 1479.7474417103472) rotate(0 249.98345837772354 66.04167146430541)"><text x="0" y="15.427334454061764" font-family="Virgil, Segoe UI Emoji" font-size="17.611112390481466px" fill="#1971c2" text-anchor="start" style="white-space: pre;" direction="ltr" dominant-baseline="alphabetic">REGISTROS (EDI, ESI, EBP, ESP, EBX, EDX, ECX, EAX)</text><text x="0" y="37.4412249421636" font-family="Virgil, Segoe UI Emoji" font-size="17.611112390481466px" fill="#1971c2" text-anchor="start" style="white-space: pre;" direction="ltr" dominant-baseline="alphabetic">EFLAGS</text><text x="0" y="59.45511543026543" font-family="Virgil, Segoe UI Emoji" font-size="17.611112390481466px" fill="#1971c2" text-anchor="start" style="white-space: pre;" direction="ltr" dominant-baseline="alphabetic">EIP</text><text x="0" y="81.46900591836726" font-family="Virgil, Segoe UI Emoji" font-size="17.611112390481466px" fill="#1971c2" text-anchor="start" style="white-space: pre;" direction="ltr" dominant-baseline="alphabetic">CR3</text><text x="0" y="103.4828964064691" font-family="Virgil, Segoe UI Emoji" font-size="17.611112390481466px" fill="#1971c2" text-anchor="start" style="white-space: pre;" direction="ltr" dominant-baseline="alphabetic">ESP0, ESP1, ESP2, ESP3</text><text x="0" y="125.49678689457093" font-family="Virgil, Segoe UI Emoji" font-size="17.611112390481466px" fill="#1971c2" text-anchor="start" style="white-space: pre;" direction="ltr" dominant-baseline="alphabetic">SS0, SS1, SS2</text></g><g stroke-linecap="round"><g transform="translate(2863.8182826514003 1212.4097816661556) rotate(0 1.965718088560152 124.8230986235751)"><path d="M-0.24 0.35 C0.25 41.95, 2.41 207.93, 3.16 249.52 M-1.82 -0.52 C-0.97 41.29, 4.55 209.02, 5.46 251" stroke="#1971c2" stroke-width="2" fill="none"></path></g></g><mask></mask><g stroke-linecap="round"><g transform="translate(2871.379466106677 1618.0933590861528) rotate(0 0.982859044280076 66.83441501104812)"><path d="M-0.77 -0.12 C-0.35 22.14, 1.66 111.49, 2.31 133.93 M1.02 -1.23 C1.34 20.62, 1.21 109.64, 1.55 131.94" stroke="#1971c2" stroke-width="2" fill="none"></path></g></g><mask></mask><g transform="translate(2968.0013413450924 1279.2441966772035) rotate(0 33.38773310717988 88.05556195240729)"><text x="0" y="15.427334454061764" font-family="Virgil, Segoe UI Emoji" font-size="17.611112390481466px" fill="#1971c2" text-anchor="start" style="white-space: pre;" direction="ltr" dominant-baseline="alphabetic">GS</text><text x="0" y="37.4412249421636" font-family="Virgil, Segoe UI Emoji" font-size="17.611112390481466px" fill="#1971c2" text-anchor="start" style="white-space: pre;" direction="ltr" dominant-baseline="alphabetic"></text><text x="0" y="59.45511543026543" font-family="Virgil, Segoe UI Emoji" font-size="17.611112390481466px" fill="#1971c2" text-anchor="start" style="white-space: pre;" direction="ltr" dominant-baseline="alphabetic">FS</text><text x="0" y="81.46900591836726" font-family="Virgil, Segoe UI Emoji" font-size="17.611112390481466px" fill="#1971c2" text-anchor="start" style="white-space: pre;" direction="ltr" dominant-baseline="alphabetic"></text><text x="0" y="103.4828964064691" font-family="Virgil, Segoe UI Emoji" font-size="17.611112390481466px" fill="#1971c2" text-anchor="start" style="white-space: pre;" direction="ltr" dominant-baseline="alphabetic">DS</text><text x="0" y="125.49678689457093" font-family="Virgil, Segoe UI Emoji" font-size="17.611112390481466px" fill="#1971c2" text-anchor="start" style="white-space: pre;" direction="ltr" dominant-baseline="alphabetic">SS</text><text x="0" y="147.51067738267275" font-family="Virgil, Segoe UI Emoji" font-size="17.611112390481466px" fill="#1971c2" text-anchor="start" style="white-space: pre;" direction="ltr" dominant-baseline="alphabetic"></text><text x="0" y="169.5245678707746" font-family="Virgil, Segoe UI Emoji" font-size="17.611112390481466px" fill="#1971c2" text-anchor="start" style="white-space: pre;" direction="ltr" dominant-baseline="alphabetic">CS , ES</text></g><g transform="translate(3243.2018737435264 1762.8108464630209) rotate(0 6.059061206747629 11.00694524405094)"><text x="0" y="15.427334454061764" font-family="Virgil, Segoe UI Emoji" font-size="17.611112390481466px" fill="#1971c2" text-anchor="start" style="white-space: pre;" direction="ltr" dominant-baseline="alphabetic">0</text></g><g transform="translate(2519.655710212293 1757.7010554846506) rotate(0 8.386243795523683 11.00694524405094)"><text x="0" y="15.427334454061763" font-family="Virgil, Segoe UI Emoji" font-size="17.611112390481463px" fill="#1971c2" text-anchor="start" style="white-space: pre;" direction="ltr" dominant-baseline="alphabetic">31</text></g><g transform="translate(3275.4457756181973 1704.6266670935242) rotate(0 7.547619595920651 11.00694524405094)"><text x="0" y="15.427334454061764" font-family="Virgil, Segoe UI Emoji" font-size="17.611112390481466px" fill="#1971c2" text-anchor="start" style="white-space: pre;" direction="ltr" dominant-baseline="alphabetic">0</text></g><g transform="translate(3273.0028978302507 1228.9228896619475) rotate(0 22.290505260122472 11.00694524405094)"><text x="0" y="15.427334454061764" font-family="Virgil, Segoe UI Emoji" font-size="17.611112390481466px" fill="#1971c2" text-anchor="start" style="white-space: pre;" direction="ltr" dominant-baseline="alphabetic">100</text></g><g transform="translate(3278.9000520959307 1639.757970171037) rotate(0 7.547619595920651 11.00694524405094)"><text x="0" y="15.427334454061764" font-family="Virgil, Segoe UI Emoji" font-size="17.611112390481466px" fill="#1971c2" text-anchor="start" style="white-space: pre;" direction="ltr" dominant-baseline="alphabetic">4</text></g><g stroke-linecap="round"><g transform="translate(1759.1421002986408 729.805664204272) rotate(0 -7.124744978996546 219.5297274821196)"><path d="M0.53 0.42 C2.1 40.14, 12.35 165.5, 8.43 238.54 C4.51 311.57, -17.51 405.09, -23.01 438.62 M-0.66 -0.4 C1.37 38.98, 14.38 163.59, 10.59 236.95 C6.8 310.3, -17.5 406.28, -23.4 439.71" stroke="#6741d9" stroke-width="2" fill="none"></path></g><g transform="translate(1759.1421002986408 729.805664204272) rotate(0 -7.124744978996546 219.5297274821196)"><path d="M-27.02 414.97 C-25.49 418.55, -23.73 426.82, -23.4 439.71 M-27.02 414.97 C-26.36 421.63, -24.91 428.58, -23.4 439.71" stroke="#6741d9" stroke-width="2" fill="none"></path></g><g transform="translate(1759.1421002986408 729.805664204272) rotate(0 -7.124744978996546 219.5297274821196)"><path d="M-10.27 418.43 C-12.36 421.34, -14.21 428.86, -23.4 439.71 M-10.27 418.43 C-14 424.27, -16.96 430.31, -23.4 439.71" stroke="#6741d9" stroke-width="2" fill="none"></path></g></g><mask></mask><g stroke-linecap="round"><g transform="translate(1928.5235904800854 727.8567119287427) rotate(0 457.6960689819672 243.7422529572666)"><path d="M0.29 -0.19 C110.65 34.52, 509.23 126.4, 661.94 207.5 C814.65 288.59, 874.32 439.79, 916.53 486.39 M-1.02 -1.33 C109.2 33.58, 508.03 127.25, 660.93 208.66 C813.83 290.07, 873.96 440.58, 916.37 487.13" stroke="#1971c2" stroke-width="2" fill="none"></path></g><g transform="translate(1928.5235904800854 727.8567119287427) rotate(0 457.6960689819672 243.7422529572666)"><path d="M896 472.63 C901.27 476.44, 906.05 482.56, 916.37 487.13 M896 472.63 C900.61 476.41, 904.78 478.48, 916.37 487.13" stroke="#1971c2" stroke-width="2" fill="none"></path></g><g transform="translate(1928.5235904800854 727.8567119287427) rotate(0 457.6960689819672 243.7422529572666)"><path d="M910.08 462.93 C911.37 469.47, 912.23 478.3, 916.37 487.13 M910.08 462.93 C911.74 468.68, 912.98 472.77, 916.37 487.13" stroke="#1971c2" stroke-width="2" fill="none"></path></g></g><mask></mask><g stroke-linecap="round"><g transform="translate(2749.745102761728 418.74213318440707) rotate(0 336.4028558531063 946.2427568614617)"><path d="M0.93 0.61 C112.87 165.35, 614.36 673.88, 672.38 989.33 C730.4 1304.78, 402.99 1742.59, 349.05 1893.3 M-0.04 -0.11 C111.65 164.7, 613.21 675.34, 671.2 990.59 C729.2 1305.84, 401.73 1741.22, 347.93 1891.38" stroke="#2f9e44" stroke-width="2" fill="none"></path></g><g transform="translate(2749.745102761728 418.74213318440707) rotate(0 336.4028558531063 946.2427568614617)"><path d="M351.17 1866.59 C351.22 1874.82, 348.14 1883.34, 347.93 1891.38 M351.17 1866.59 C349.35 1876.03, 349.05 1885.81, 347.93 1891.38" stroke="#2f9e44" stroke-width="2" fill="none"></path></g><g transform="translate(2749.745102761728 418.74213318440707) rotate(0 336.4028558531063 946.2427568614617)"><path d="M366.35 1874.48 C360.88 1879.98, 352.34 1885.67, 347.93 1891.38 M366.35 1874.48 C359.01 1881.15, 353.13 1888.03, 347.93 1891.38" stroke="#2f9e44" stroke-width="2" fill="none"></path></g></g><mask></mask><g stroke-linecap="round" transform="translate(1757.740602740469 1974.423279258298) rotate(0 667.9074752195145 565.990941047196)"><path d="M32 0 C445.64 -3.92, 859.75 -2.66, 1303.81 0 M32 0 C484.92 3.1, 937.5 2.56, 1303.81 0 M1303.81 0 C1323.59 1.07, 1334.16 11.44, 1335.81 32 M1303.81 0 C1325.96 1.24, 1336.09 9.05, 1335.81 32 M1335.81 32 C1337.75 275.25, 1337.36 520.6, 1335.81 1099.98 M1335.81 32 C1337.87 395.47, 1338.08 759.76, 1335.81 1099.98 M1335.81 1099.98 C1337.21 1121.38, 1324.21 1131.43, 1303.81 1131.98 M1335.81 1099.98 C1337.34 1122.35, 1323.86 1133.9, 1303.81 1131.98 M1303.81 1131.98 C1044.43 1129.46, 785.87 1129.8, 32 1131.98 M1303.81 1131.98 C873.41 1129.71, 443.36 1129.75, 32 1131.98 M32 1131.98 C11.8 1131.55, -1.43 1119.97, 0 1099.98 M32 1131.98 C10.37 1131.01, -0.5 1119.84, 0 1099.98 M0 1099.98 C-1.5 706.46, -0.73 313.71, 0 32 M0 1099.98 C-0.73 771.41, -0.06 443.12, 0 32 M0 32 C-0.37 8.77, 10.2 -0.13, 32 0 M0 32 C-2.26 12.42, 8.99 1.01, 32 0" stroke="#2f9e44" stroke-width="2" fill="none"></path></g><g transform="translate(1796.3665772109953 1881.0771742878596) rotate(0 141.1855878567112 18.023692735555187)"><text x="0" y="25.262007738154118" font-family="Virgil, Segoe UI Emoji" font-size="28.837908376888265px" fill="#2f9e44" text-anchor="start" style="white-space: pre;" direction="ltr" dominant-baseline="alphabetic">CONTEXT SWITCH </text></g><g transform="translate(1798.285583460036 2000.7726227400399) rotate(0 626.3292738498649 126.16584914888608)"><text x="0" y="25.262007738154118" font-family="Virgil, Segoe UI Emoji" font-size="28.837908376888265px" fill="#2f9e44" text-anchor="start" style="white-space: pre;" direction="ltr" dominant-baseline="alphabetic">Para pasar de una tarea a otra tenemos que resguardar el estado de la tarea que</text><text x="0" y="61.30939320926445" font-family="Virgil, Segoe UI Emoji" font-size="28.837908376888265px" fill="#2f9e44" text-anchor="start" style="white-space: pre;" direction="ltr" dominant-baseline="alphabetic">sale y reanudar el estado de la que va a ejecutarse. Ya vimos la estructura en </text><text x="0" y="97.35677868037479" font-family="Virgil, Segoe UI Emoji" font-size="28.837908376888265px" fill="#2f9e44" text-anchor="start" style="white-space: pre;" direction="ltr" dominant-baseline="alphabetic">memoria que contiene esa informacion, ahora veamos paso a paso como es posible : </text><text x="0" y="133.4041641514851" font-family="Virgil, Segoe UI Emoji" font-size="28.837908376888265px" fill="#2f9e44" text-anchor="start" style="white-space: pre;" direction="ltr" dominant-baseline="alphabetic">Entre los registros del procesador encontramos uno llamado TR (TASK REGISTER )</text><text x="0" y="169.45154962259545" font-family="Virgil, Segoe UI Emoji" font-size="28.837908376888265px" fill="#2f9e44" text-anchor="start" style="white-space: pre;" direction="ltr" dominant-baseline="alphabetic">de 16 bits que contiene el selector de segmento. Este como los otros vistos, tiene su </text><text x="0" y="205.49893509370577" font-family="Virgil, Segoe UI Emoji" font-size="28.837908376888265px" fill="#2f9e44" text-anchor="start" style="white-space: pre;" direction="ltr" dominant-baseline="alphabetic">indice en la GDT, el TABLE INDICATOR (TI) y RPL para el nivel de privilegio </text><text x="0" y="241.5463205648161" font-family="Virgil, Segoe UI Emoji" font-size="28.837908376888265px" fill="#2f9e44" text-anchor="start" style="white-space: pre;" direction="ltr" dominant-baseline="alphabetic">solicitado. Buscara el descriptor en la GDT que se ve algo asi :</text></g><g stroke-linecap="round" transform="translate(1793.4269578607857 2286.9876502116394) rotate(0 611.6883313488498 89.86890176215365)"><path d="M32 0 C266.1 5.14, 499.84 5.07, 1191.38 0 M32 0 C338.32 -4.06, 644.37 -4.25, 1191.38 0 M1191.38 0 C1211.88 1.37, 1222.87 11.66, 1223.38 32 M1191.38 0 C1212.46 0.06, 1223.51 9.15, 1223.38 32 M1223.38 32 C1221.51 64.44, 1223.24 100.18, 1223.38 147.74 M1223.38 32 C1223.75 56.66, 1224.36 82.22, 1223.38 147.74 M1223.38 147.74 C1224.98 169.2, 1213.39 178.13, 1191.38 179.74 M1223.38 147.74 C1221.83 167.22, 1210.78 177.61, 1191.38 179.74 M1191.38 179.74 C935.46 179.35, 679.09 178.86, 32 179.74 M1191.38 179.74 C843.98 175.11, 496.62 175.6, 32 179.74 M32 179.74 C11.53 179.9, 0.64 168.1, 0 147.74 M32 179.74 C12.38 181.54, 1.35 168.44, 0 147.74 M0 147.74 C-1.26 122.41, -2.66 98.49, 0 32 M0 147.74 C-1.36 111.99, -0.4 74, 0 32 M0 32 C1.92 12.31, 12.42 1.29, 32 0 M0 32 C-1.35 10, 8.51 1.28, 32 0" stroke="#2f9e44" stroke-width="2" fill="none"></path></g><g stroke-linecap="round"><g transform="translate(1791.494293306761 2381.688213358855) rotate(0 609.755666794825 0)"><path d="M-1.13 0.47 C202.22 0.5, 1016.84 -0.01, 1220.33 -0.28 M0.48 -0.33 C203.72 -0.08, 1016.69 1.13, 1219.81 1.11" stroke="#2f9e44" stroke-width="2" fill="none"></path></g></g><mask></mask><g stroke-linecap="round"><g transform="translate(2398.350963270549 2383.62087791288) rotate(0 0 39.61962335750832)"><path d="M-0.15 -0.43 C-0.19 13.06, -0.16 66.58, -0.19 79.88 M-1.69 -1.7 C-1.91 11.53, -1.31 64.35, -1.23 78.09" stroke="#2f9e44" stroke-width="2" fill="none"></path></g></g><mask></mask><g stroke-linecap="round"><g transform="translate(2394.485634162499 2286.9876502116394) rotate(0 0.9663322770123841 57.01360434373146)"><path d="M-0.26 -0.42 C0.25 18.42, 1.77 94.09, 2.25 113.22 M1.81 -1.68 C2.25 17.28, 1.4 94.75, 1.47 114.33" stroke="#2f9e44" stroke-width="2" fill="none"></path></g></g><mask></mask><g stroke-linecap="round"><g transform="translate(2102.653286504754 2290.8529793196894) rotate(0 0 45.41761701958285)"><path d="M0.4 0.27 C0.12 15.31, -0.95 76.23, -0.99 91.42 M-0.85 -0.64 C-0.83 14.56, 1.14 74.6, 1.2 89.6" stroke="#2f9e44" stroke-width="2" fill="none"></path></g></g><mask></mask><g stroke-linecap="round"><g transform="translate(2236.0071407324654 2290.8529793196894) rotate(0 0 43.48495246555785)"><path d="M-0.56 0.01 C-0.83 14.41, -1.03 72.42, -0.93 86.74 M1.35 -1.04 C1.39 13.52, 1.64 73.54, 1.3 88.15" stroke="#2f9e44" stroke-width="2" fill="none"></path></g></g><mask></mask><g stroke-linecap="round"><g transform="translate(2446.667577121169 2288.9203147656644) rotate(0 -0.9663322770123841 46.38394929659535)"><path d="M-1.13 0.23 C-1.2 15.59, -0.72 76.71, -0.8 91.95 M0.48 -0.7 C0.38 14.82, -0.71 77.54, -1.15 93.06" stroke="#2f9e44" stroke-width="2" fill="none"></path></g></g><mask></mask><g stroke-linecap="round"><g transform="translate(2510.4455074039874 2285.0549856576145) rotate(0 0 47.350281573607845)"><path d="M-0.58 -0.4 C-0.6 15.52, -0.86 78.69, -0.61 94.69 M1.32 -1.65 C1.74 14.54, 1.89 80.33, 1.78 96.22" stroke="#2f9e44" stroke-width="2" fill="none"></path></g></g><mask></mask><g stroke-linecap="round"><g transform="translate(2549.0987984844833 2286.9876502116394) rotate(0 0 47.350281573607845)"><path d="M-0.38 0.44 C-0.52 16.43, 0.1 79.18, 0.09 94.79 M1.62 -0.38 C1.25 15.94, -0.31 80.46, -0.82 96.38" stroke="#2f9e44" stroke-width="2" fill="none"></path></g></g><mask></mask><g stroke-linecap="round"><g transform="translate(2723.038608346716 2290.8529793196894) rotate(0 0 43.48495246555785)"><path d="M0.12 -1.1 C0.3 13.22, 0.99 72.27, 1 86.92 M-1.27 0.94 C-1.16 15.98, 0.44 73.92, 0.57 88.43" stroke="#2f9e44" stroke-width="2" fill="none"></path></g></g><mask></mask><g transform="translate(2566.4927794707073 2412.6108462232514) rotate(0 56.697386933790085 18.02369273555496)"><text x="0" y="25.262007738154118" font-family="Virgil, Segoe UI Emoji" font-size="28.837908376888265px" fill="#2f9e44" text-anchor="start" style="white-space: pre;" direction="ltr" dominant-baseline="alphabetic">LIMITE</text></g><g transform="translate(2260.4816650677176 2313.4152422186553) rotate(0 56.697386933790085 18.02369273555496)"><text x="0" y="25.262007738154118" font-family="Virgil, Segoe UI Emoji" font-size="28.837908376888265px" fill="#2f9e44" text-anchor="start" style="white-space: pre;" direction="ltr" dominant-baseline="alphabetic">LIMITE</text></g><g transform="translate(2038.2252413548651 2413.913799027944) rotate(0 38.433378033170584 18.02369273555496)"><text x="0" y="25.262007738154118" font-family="Virgil, Segoe UI Emoji" font-size="28.837908376888265px" fill="#2f9e44" text-anchor="start" style="white-space: pre;" direction="ltr" dominant-baseline="alphabetic">BASE</text></g><g transform="translate(1903.8087504875245 2319.2132358807294) rotate(0 38.433378033170584 18.02369273555496)"><text x="0" y="25.262007738154118" font-family="Virgil, Segoe UI Emoji" font-size="28.837908376888265px" fill="#2f9e44" text-anchor="start" style="white-space: pre;" direction="ltr" dominant-baseline="alphabetic">BASE</text></g><g transform="translate(2806.3630972171077 2321.145900434756) rotate(0 38.433378033170584 18.02369273555496)"><text x="0" y="25.262007738154118" font-family="Virgil, Segoe UI Emoji" font-size="28.837908376888265px" fill="#2f9e44" text-anchor="start" style="white-space: pre;" direction="ltr" dominant-baseline="alphabetic">BASE</text></g><g transform="translate(2116.401851430253 2315.3479067726776) rotate(0 51.18728815474731 18.02369273555496)"><text x="0" y="25.262007738154118" font-family="Virgil, Segoe UI Emoji" font-size="28.837908376888265px" fill="#2f9e44" text-anchor="start" style="white-space: pre;" direction="ltr" dominant-baseline="alphabetic">ATTRS</text></g><g transform="translate(2404.368869979949 2317.2805713267053) rotate(0 9.526809017364826 18.02369273555496)"><text x="0" y="25.262007738154118" font-family="Virgil, Segoe UI Emoji" font-size="28.837908376888265px" fill="#2f9e44" text-anchor="start" style="white-space: pre;" direction="ltr" dominant-baseline="alphabetic">P</text></g><g transform="translate(2467.241251859816 2296.021261232432) rotate(0 14.553422895290396 40.97357816242311)"><text x="0" y="19.142855717484025" font-family="Virgil, Segoe UI Emoji" font-size="21.85257501995893px" fill="#2f9e44" text-anchor="start" style="white-space: pre;" direction="ltr" dominant-baseline="alphabetic">D</text><text x="0" y="46.45857449243269" font-family="Virgil, Segoe UI Emoji" font-size="21.85257501995893px" fill="#2f9e44" text-anchor="start" style="white-space: pre;" direction="ltr" dominant-baseline="alphabetic">P</text><text x="0" y="73.77429326738135" font-family="Virgil, Segoe UI Emoji" font-size="21.85257501995893px" fill="#2f9e44" text-anchor="start" style="white-space: pre;" direction="ltr" dominant-baseline="alphabetic">L</text></g><g transform="translate(2518.3126793728457 2319.2132358807294) rotate(0 9.921613584420015 18.02369273555496)"><text x="0" y="25.262007738154118" font-family="Virgil, Segoe UI Emoji" font-size="28.837908376888265px" fill="#2f9e44" text-anchor="start" style="white-space: pre;" direction="ltr" dominant-baseline="alphabetic">0</text></g><g transform="translate(2578.0887667948555 2317.9102830760366) rotate(0 39.44613817261575 18.02369273555496)"><text x="0" y="25.262007738154118" font-family="Virgil, Segoe UI Emoji" font-size="28.837908376888265px" fill="#2f9e44" text-anchor="start" style="white-space: pre;" direction="ltr" dominant-baseline="alphabetic">TIPO</text></g><g stroke-linecap="round" transform="translate(1824.3495907251825 2520.840061248641) rotate(0 13.528651878173605 14.494984155186103)"><path d="M12.06 0.15 C14.85 -0.44, 18.71 0.45, 21.05 2.11 C23.4 3.78, 25.25 7.23, 26.11 10.14 C26.98 13.05, 27.21 16.63, 26.24 19.56 C25.27 22.49, 22.94 26.19, 20.3 27.7 C17.66 29.21, 13.29 29.36, 10.4 28.62 C7.51 27.89, 4.67 25.65, 2.96 23.29 C1.25 20.92, 0.04 17.48, 0.15 14.43 C0.25 11.38, 1.69 7.3, 3.6 4.98 C5.51 2.66, 10.19 1.31, 11.62 0.5 C13.05 -0.3, 12.1 -0.01, 12.17 0.16 M12.33 0.3 C14.95 -0.01, 18.35 0.77, 20.66 2.59 C22.96 4.41, 25.3 8.13, 26.16 11.22 C27.03 14.3, 27.11 18.29, 25.83 21.12 C24.55 23.94, 21.13 26.85, 18.46 28.19 C15.79 29.52, 12.38 30.13, 9.8 29.1 C7.22 28.08, 4.56 24.64, 2.98 22.02 C1.39 19.39, 0.13 16.4, 0.28 13.35 C0.44 10.29, 1.99 5.94, 3.9 3.71 C5.8 1.48, 10.17 0.4, 11.71 -0.04 C13.25 -0.49, 12.89 0.75, 13.14 1.02" stroke="#2f9e44" stroke-width="2" fill="none"></path></g><g transform="translate(1886.194856453976 2520.840061248641) rotate(0 567.1821451080156 36.047385471110374)"><text x="0" y="25.262007738154118" font-family="Virgil, Segoe UI Emoji" font-size="28.837908376888265px" fill="#2f9e44" text-anchor="start" style="white-space: pre;" direction="ltr" dominant-baseline="alphabetic">TIPO es 1 0 B 1 : indicando un TSS de 32 bits disponible, si B = 1 es porque </text><text x="0" y="61.30939320926445" font-family="Virgil, Segoe UI Emoji" font-size="28.837908376888265px" fill="#2f9e44" text-anchor="start" style="white-space: pre;" direction="ltr" dominant-baseline="alphabetic">esta BUSY</text></g><g transform="translate(1821.3422989496246 2659.760011026812) rotate(0 623.9853258342852 192.5)"><text x="0" y="24.528" font-family="Virgil, Segoe UI Emoji" font-size="28px" fill="#2f9e44" text-anchor="start" style="white-space: pre;" direction="ltr" dominant-baseline="alphabetic">Entonces con TR vamos a la GDT, capturamos el descriptor de segmento de la TSS</text><text x="0" y="59.528" font-family="Virgil, Segoe UI Emoji" font-size="28px" fill="#2f9e44" text-anchor="start" style="white-space: pre;" direction="ltr" dominant-baseline="alphabetic">con BASE nos vamos  a ... (con un registro cache oculto ..  etc)</text><text x="0" y="94.52799999999999" font-family="Virgil, Segoe UI Emoji" font-size="28px" fill="#2f9e44" text-anchor="start" style="white-space: pre;" direction="ltr" dominant-baseline="alphabetic">y e ahi ya estamos parados en la TSS. </text><text x="0" y="129.528" font-family="Virgil, Segoe UI Emoji" font-size="28px" fill="#2f9e44" text-anchor="start" style="white-space: pre;" direction="ltr" dominant-baseline="alphabetic">Para resumir entonces algunas cosas, parados en la TAREA ACTUAL miramos a nuestra</text><text x="0" y="164.528" font-family="Virgil, Segoe UI Emoji" font-size="28px" fill="#2f9e44" text-anchor="start" style="white-space: pre;" direction="ltr" dominant-baseline="alphabetic">TSS, SE COPIA LOS REGISTROS DE LA TAREA ACTUAL. </text><text x="0" y="199.528" font-family="Virgil, Segoe UI Emoji" font-size="28px" fill="#2f9e44" text-anchor="start" style="white-space: pre;" direction="ltr" dominant-baseline="alphabetic">Para pasar a la siguiente y hacer efectivo el CONTEXT SWITCH se debe proveer del </text><text x="0" y="234.528" font-family="Virgil, Segoe UI Emoji" font-size="28px" fill="#2f9e44" text-anchor="start" style="white-space: pre;" direction="ltr" dominant-baseline="alphabetic">selector de segmento de la siguiente instruccion. Eso es llevado a cabo por </text><text x="0" y="269.528" font-family="Virgil, Segoe UI Emoji" font-size="28px" fill="#2f9e44" text-anchor="start" style="white-space: pre;" direction="ltr" dominant-baseline="alphabetic">SCHED_NEXT_TASK (recordar que es de 16 bits el selector) hace falta pasar 32 bits </text><text x="0" y="304.528" font-family="Virgil, Segoe UI Emoji" font-size="28px" fill="#2f9e44" text-anchor="start" style="white-space: pre;" direction="ltr" dominant-baseline="alphabetic">mas de offset (que de todos modos no importa pues la ejecucion continua desde donde </text><text x="0" y="339.528" font-family="Virgil, Segoe UI Emoji" font-size="28px" fill="#2f9e44" text-anchor="start" style="white-space: pre;" direction="ltr" dominant-baseline="alphabetic">apunte el EIP) . Se COPIAN LOS REGISTROS DE LA NUEVA TAREA DESDE SU TSS </text><text x="0" y="374.528" font-family="Virgil, Segoe UI Emoji" font-size="28px" fill="#2f9e44" text-anchor="start" style="white-space: pre;" direction="ltr" dominant-baseline="alphabetic">HACIA LA CPU, se ACTUALIZA TR y voila, ya es efectivo el cambio de contexto</text></g><g stroke-linecap="round"><g transform="translate(1813.055164615742 2934.1807526819975) rotate(0 -257.9900266964552 -601.537945977168)"><path d="M1.02 0.93 C-85 -132.52, -444.43 -599.93, -514.92 -800.68 C-585.42 -1001.42, -437.44 -1136.43, -421.97 -1203.53 M0.1 0.38 C-86.09 -132.9, -444.89 -598.75, -515.32 -799.23 C-585.75 -999.7, -438.08 -1135.28, -422.47 -1202.46" stroke="#2f9e44" stroke-width="2" fill="none"></path></g><g transform="translate(1813.055164615742 2934.1807526819975) rotate(0 -257.9900266964552 -601.537945977168)"><path d="M-425.53 -1177.64 C-422.77 -1185.82, -423.37 -1196.62, -422.47 -1202.46 M-425.53 -1177.64 C-424.86 -1183.54, -423.56 -1191.35, -422.47 -1202.46" stroke="#2f9e44" stroke-width="2" fill="none"></path></g><g transform="translate(1813.055164615742 2934.1807526819975) rotate(0 -257.9900266964552 -601.537945977168)"><path d="M-440.77 -1185.42 C-431.92 -1190.62, -426.44 -1198.32, -422.47 -1202.46 M-440.77 -1185.42 C-436.08 -1189.26, -430.79 -1195.03, -422.47 -1202.46" stroke="#2f9e44" stroke-width="2" fill="none"></path></g></g><mask></mask><g stroke-linecap="round" transform="translate(530.5941581473625 2149.939151130273) rotate(0 320.4898137518976 450.795537065153)"><path d="M32 0 C211.78 0.07, 391.76 0.76, 608.98 0 M32 0 C254.5 -1.93, 477.73 -1.9, 608.98 0 M608.98 0 C629.46 -1.37, 642.65 10.91, 640.98 32 M608.98 0 C632.59 -0.84, 639.52 10.52, 640.98 32 M640.98 32 C641.93 221.31, 641.27 411.73, 640.98 869.59 M640.98 32 C640.99 351.89, 641.06 672.87, 640.98 869.59 M640.98 869.59 C639.04 891.62, 628.39 901.89, 608.98 901.59 M640.98 869.59 C641.75 889.36, 629.72 903.32, 608.98 901.59 M608.98 901.59 C411.22 899.9, 213.53 899.72, 32 901.59 M608.98 901.59 C417.98 901.87, 227.88 901.39, 32 901.59 M32 901.59 C10.54 902.76, 1.62 891, 0 869.59 M32 901.59 C11.5 901.48, -2.22 890.74, 0 869.59 M0 869.59 C1.1 619.87, 1.35 371.02, 0 32 M0 869.59 C1.81 581.78, 1.24 293.75, 0 32 M0 32 C1.98 12.33, 12.01 1.13, 32 0 M0 32 C1.85 12.78, 9.65 0.16, 32 0" stroke="#0c8599" stroke-width="2" fill="none"></path></g><g transform="translate(203.21440914707932 2074.394374219531) rotate(0 523.1835737032404 14.75419018598268)"><text x="0" y="20.67947296467335" font-family="Virgil, Segoe UI Emoji" font-size="23.60670429757232px" fill="#0c8599" text-anchor="start" style="white-space: pre;" direction="ltr" dominant-baseline="alphabetic">IMPLEMENTACION DE CONTEXT SWITCH CON RUTINA DE INTERRUPCION DE RELOJ</text></g><g transform="translate(628.5905847641602 2201.7486545943866) rotate(0 203.06666564941406 385)"><text x="0" y="24.528" font-family="Virgil, Segoe UI Emoji" font-size="28px" fill="#0c8599" text-anchor="start" style="white-space: pre;" direction="ltr" dominant-baseline="alphabetic">offset : dd 0</text><text x="0" y="59.528" font-family="Virgil, Segoe UI Emoji" font-size="28px" fill="#0c8599" text-anchor="start" style="white-space: pre;" direction="ltr" dominant-baseline="alphabetic">selector: dw 0</text><text x="0" y="94.52799999999999" font-family="Virgil, Segoe UI Emoji" font-size="28px" fill="#0c8599" text-anchor="start" style="white-space: pre;" direction="ltr" dominant-baseline="alphabetic">...</text><text x="0" y="129.528" font-family="Virgil, Segoe UI Emoji" font-size="28px" fill="#0c8599" text-anchor="start" style="white-space: pre;" direction="ltr" dominant-baseline="alphabetic">global _isr32</text><text x="0" y="164.528" font-family="Virgil, Segoe UI Emoji" font-size="28px" fill="#0c8599" text-anchor="start" style="white-space: pre;" direction="ltr" dominant-baseline="alphabetic"></text><text x="0" y="199.528" font-family="Virgil, Segoe UI Emoji" font-size="28px" fill="#0c8599" text-anchor="start" style="white-space: pre;" direction="ltr" dominant-baseline="alphabetic">_isr32:</text><text x="0" y="234.528" font-family="Virgil, Segoe UI Emoji" font-size="28px" fill="#0c8599" text-anchor="start" style="white-space: pre;" direction="ltr" dominant-baseline="alphabetic">    pushad</text><text x="0" y="269.528" font-family="Virgil, Segoe UI Emoji" font-size="28px" fill="#0c8599" text-anchor="start" style="white-space: pre;" direction="ltr" dominant-baseline="alphabetic">    </text><text x="0" y="304.528" font-family="Virgil, Segoe UI Emoji" font-size="28px" fill="#0c8599" text-anchor="start" style="white-space: pre;" direction="ltr" dominant-baseline="alphabetic">    call pic_finish1</text><text x="0" y="339.528" font-family="Virgil, Segoe UI Emoji" font-size="28px" fill="#0c8599" text-anchor="start" style="white-space: pre;" direction="ltr" dominant-baseline="alphabetic">    call SCHED_NEXT_TASK</text><text x="0" y="374.528" font-family="Virgil, Segoe UI Emoji" font-size="28px" fill="#0c8599" text-anchor="start" style="white-space: pre;" direction="ltr" dominant-baseline="alphabetic">    </text><text x="0" y="409.528" font-family="Virgil, Segoe UI Emoji" font-size="28px" fill="#0c8599" text-anchor="start" style="white-space: pre;" direction="ltr" dominant-baseline="alphabetic">    str cx</text><text x="0" y="444.528" font-family="Virgil, Segoe UI Emoji" font-size="28px" fill="#0c8599" text-anchor="start" style="white-space: pre;" direction="ltr" dominant-baseline="alphabetic">    cmp ax, cx</text><text x="0" y="479.528" font-family="Virgil, Segoe UI Emoji" font-size="28px" fill="#0c8599" text-anchor="start" style="white-space: pre;" direction="ltr" dominant-baseline="alphabetic">    je fin</text><text x="0" y="514.528" font-family="Virgil, Segoe UI Emoji" font-size="28px" fill="#0c8599" text-anchor="start" style="white-space: pre;" direction="ltr" dominant-baseline="alphabetic">    </text><text x="0" y="549.528" font-family="Virgil, Segoe UI Emoji" font-size="28px" fill="#0c8599" text-anchor="start" style="white-space: pre;" direction="ltr" dominant-baseline="alphabetic">    mov [selector], ax</text><text x="0" y="584.528" font-family="Virgil, Segoe UI Emoji" font-size="28px" fill="#0c8599" text-anchor="start" style="white-space: pre;" direction="ltr" dominant-baseline="alphabetic">    jmp far [offset]</text><text x="0" y="619.528" font-family="Virgil, Segoe UI Emoji" font-size="28px" fill="#0c8599" text-anchor="start" style="white-space: pre;" direction="ltr" dominant-baseline="alphabetic">    </text><text x="0" y="654.528" font-family="Virgil, Segoe UI Emoji" font-size="28px" fill="#0c8599" text-anchor="start" style="white-space: pre;" direction="ltr" dominant-baseline="alphabetic">    fin:</text><text x="0" y="689.528" font-family="Virgil, Segoe UI Emoji" font-size="28px" fill="#0c8599" text-anchor="start" style="white-space: pre;" direction="ltr" dominant-baseline="alphabetic">    popad</text><text x="0" y="724.528" font-family="Virgil, Segoe UI Emoji" font-size="28px" fill="#0c8599" text-anchor="start" style="white-space: pre;" direction="ltr" dominant-baseline="alphabetic">    iret</text><text x="0" y="759.528" font-family="Virgil, Segoe UI Emoji" font-size="28px" fill="#0c8599" text-anchor="start" style="white-space: pre;" direction="ltr" dominant-baseline="alphabetic"></text></g></svg>