<svg version="1.1" xmlns="http://www.w3.org/2000/svg" viewBox="0 0 3409.2353692640595 3526.452767737459" width="6818.470738528119" height="7052.905535474918">
  <!-- svg-source:excalidraw -->
  
  <defs>
    <style class="style-fonts">
      @font-face {
        font-family: "Virgil";
        src: url("https://excalidraw.com/Virgil.woff2");
      }
      @font-face {
        font-family: "Cascadia";
        src: url("https://excalidraw.com/Cascadia.woff2");
      }
      @font-face {
        font-family: "Assistant";
        src: url("https://excalidraw.com/Assistant-Regular.woff2");
      }
    </style>
    
  </defs>
  <rect x="0" y="0" width="3409.2353692640595" height="3526.452767737459" fill="#ffffff"></rect><g stroke-linecap="round" transform="translate(779.0684465214711 93.8865340004919) rotate(0 295.0356371618399 244.5482554015249)"><path d="M32 0 C204.86 1.27, 376.88 0.65, 558.07 0 M32 0 C186.67 0.69, 340.79 1.3, 558.07 0 M558.07 0 C579.2 1.48, 589.1 10.78, 590.07 32 M558.07 0 C579.08 -1.73, 592.17 10.87, 590.07 32 M590.07 32 C590.12 163.63, 589.14 295.79, 590.07 457.1 M590.07 32 C591.98 157.63, 592.53 283.2, 590.07 457.1 M590.07 457.1 C588.18 477.97, 579.52 490.93, 558.07 489.1 M590.07 457.1 C589.44 480.3, 580.31 488.56, 558.07 489.1 M558.07 489.1 C381.94 489.57, 206.2 490.15, 32 489.1 M558.07 489.1 C405.98 488.3, 253.78 488.1, 32 489.1 M32 489.1 C10.84 487.27, 1.88 476.54, 0 457.1 M32 489.1 C8.67 489.58, -1.09 477.8, 0 457.1 M0 457.1 C1.1 314.48, 2.08 169.66, 0 32 M0 457.1 C-2.6 297.88, -2.51 139.11, 0 32 M0 32 C1.62 10.17, 10.18 1.05, 32 0 M0 32 C0.43 8.93, 12.14 -1.59, 32 0" stroke="#2f9e44" stroke-width="2" fill="none"></path></g><g transform="translate(839.0222123618453 10) rotate(0 80.30000305175781 22.500000000000057)"><text x="0" y="31.536" font-family="Virgil, Segoe UI Emoji" font-size="36px" fill="#2f9e44" text-anchor="start" style="white-space: pre;" direction="ltr" dominant-baseline="alphabetic">PAGO_T</text></g><g transform="translate(864.2659032420024 141.21845440078698) rotate(0 151.03334045410156 22.5)"><text x="0" y="31.536" font-family="Virgil, Segoe UI Emoji" font-size="36px" fill="#2f9e44" text-anchor="start" style="white-space: pre;" direction="ltr" dominant-baseline="alphabetic">MONTO (UINT8)</text></g><g transform="translate(857.9549805219631 248.50414064145605) rotate(0 174.61666870117188 22.5)"><text x="0" y="31.536" font-family="Virgil, Segoe UI Emoji" font-size="36px" fill="#2f9e44" text-anchor="start" style="white-space: pre;" direction="ltr" dominant-baseline="alphabetic">COMERCIO (CHAR*)</text></g><g transform="translate(854.7995191619434 358.9452882421448) rotate(0 167.5833282470703 22.5)"><text x="0" y="31.536" font-family="Virgil, Segoe UI Emoji" font-size="36px" fill="#2f9e44" text-anchor="start" style="white-space: pre;" direction="ltr" dominant-baseline="alphabetic">CLIENTE (UINT8)</text></g><g transform="translate(854.7995191619434 472.54189720285297) rotate(0 186 22.5)"><text x="0" y="31.536" font-family="Virgil, Segoe UI Emoji" font-size="36px" fill="#2f9e44" text-anchor="start" style="white-space: pre;" direction="ltr" dominant-baseline="alphabetic">APROBADO (UINT8)</text></g><g stroke-linecap="round"><g transform="translate(1230.2994210042848 377.8780564022628) rotate(0 190.90541228119037 0)"><path d="M-0.69 -1.15 C62.78 -1.22, 317.7 -0.52, 381.46 -0.16 M1.15 0.87 C64.37 0.96, 317 1.57, 380.32 1.3" stroke="#2f9e44" stroke-width="2" fill="none"></path></g><g transform="translate(1230.2994210042848 377.8780564022628) rotate(0 190.90541228119037 0)"><path d="M356.84 9.86 C363.26 6.36, 373.26 3.98, 380.32 1.3 M356.84 9.86 C366.39 6.05, 375.99 3.21, 380.32 1.3" stroke="#2f9e44" stroke-width="2" fill="none"></path></g><g transform="translate(1230.2994210042848 377.8780564022628) rotate(0 190.90541228119037 0)"><path d="M356.83 -7.24 C363.29 -4.66, 373.29 -0.96, 380.32 1.3 M356.83 -7.24 C366.25 -4.46, 375.85 -0.72, 380.32 1.3" stroke="#2f9e44" stroke-width="2" fill="none"></path></g></g><mask></mask><g transform="translate(1646.8203205268824 358.9452882421448) rotate(0 123.38333129882812 22.5)"><text x="0" y="31.536" font-family="Virgil, Segoe UI Emoji" font-size="36px" fill="#2f9e44" text-anchor="start" style="white-space: pre;" direction="ltr" dominant-baseline="alphabetic">Nro de cliente</text></g><g stroke-linecap="round"><g transform="translate(1261.8540346044817 494.63012672299067) rotate(0 170.39491344106239 1.5777306800098359)"><path d="M-0.48 -0.87 C56.4 -0.09, 284 3.32, 340.9 4.01 M1.47 1.29 C58.24 1.79, 283.56 1.77, 340 2.34" stroke="#2f9e44" stroke-width="2" fill="none"></path></g><g transform="translate(1261.8540346044817 494.63012672299067) rotate(0 170.39491344106239 1.5777306800098359)"><path d="M316.47 10.79 C321.36 8.8, 330.52 6.51, 340 2.34 M316.47 10.79 C324.03 7.23, 330.44 6.27, 340 2.34" stroke="#2f9e44" stroke-width="2" fill="none"></path></g><g transform="translate(1261.8540346044817 494.63012672299067) rotate(0 170.39491344106239 1.5777306800098359)"><path d="M316.55 -6.31 C321.32 -3.73, 330.46 -1.45, 340 2.34 M316.55 -6.31 C323.97 -4.53, 330.37 -0.16, 340 2.34" stroke="#2f9e44" stroke-width="2" fill="none"></path></g></g><mask></mask><g transform="translate(1643.6648591668627 466.2309744828136) rotate(0 108.16666412353516 22.5)"><text x="0" y="31.536" font-family="Virgil, Segoe UI Emoji" font-size="36px" fill="#2f9e44" text-anchor="start" style="white-space: pre;" direction="ltr" dominant-baseline="alphabetic">bool (T / F)</text></g><g stroke-linecap="round" transform="translate(1482.7363298058597 706.0460378443084) rotate(0 317.12386668197735 59.953765840373876)"><path d="M29.98 0 C229.16 2.64, 427.28 1.9, 604.27 0 M29.98 0 C255.77 -2.18, 482.39 -2.59, 604.27 0 M604.27 0 C623.11 1.63, 635.14 10.64, 634.25 29.98 M604.27 0 C625.12 0.42, 636.06 10.85, 634.25 29.98 M634.25 29.98 C635.09 45.6, 635.42 63.54, 634.25 89.93 M634.25 29.98 C634.38 52.31, 634.8 75.56, 634.25 89.93 M634.25 89.93 C633.83 110.02, 625.02 119.55, 604.27 119.91 M634.25 89.93 C633.98 109.95, 624.15 122.04, 604.27 119.91 M604.27 119.91 C413.71 120.96, 222.42 120.61, 29.98 119.91 M604.27 119.91 C411.67 118.38, 219.11 118.25, 29.98 119.91 M29.98 119.91 C9.04 119.85, 0.91 108.14, 0 89.93 M29.98 119.91 C12.19 121.96, -0.19 108.24, 0 89.93 M0 89.93 C-0.24 67.53, -1.12 46.41, 0 29.98 M0 89.93 C-0.46 74.42, -0.06 60.65, 0 29.98 M0 29.98 C-0.5 10.95, 9.1 1.2, 29.98 0 M0 29.98 C-0.1 8.87, 8.25 -1.92, 29.98 0" stroke="#1971c2" stroke-width="2" fill="none"></path></g><g transform="translate(1495.3581752459393 737.6006514445052) rotate(0 290.2833251953125 22.5)"><text x="0" y="31.536" font-family="Virgil, Segoe UI Emoji" font-size="36px" fill="#1971c2" text-anchor="start" style="white-space: pre;" direction="ltr" dominant-baseline="alphabetic">CANTIDAD DE PAGOS (UINT8)</text></g><g stroke-linecap="round" transform="translate(726.6829958230854 1064.5569101310402) rotate(0 148.80509767162607 123.34112373851349)"><path d="M32 0 C97.12 0.92, 160.71 0.85, 265.61 0 M32 0 C103.58 -1.28, 172.86 -2.22, 265.61 0 M265.61 0 C286.43 0.23, 298.78 8.75, 297.61 32 M265.61 0 C287.96 1.2, 295.93 11.04, 297.61 32 M297.61 32 C296.33 79.26, 298 128.24, 297.61 214.68 M297.61 32 C297.04 69.11, 297.8 107.08, 297.61 214.68 M297.61 214.68 C298.01 236.19, 287.9 248.38, 265.61 246.68 M297.61 214.68 C297.39 236.26, 288.13 246.18, 265.61 246.68 M265.61 246.68 C186.18 245.64, 107.95 246.16, 32 246.68 M265.61 246.68 C201.15 247.69, 136.5 247.56, 32 246.68 M32 246.68 C9.63 244.89, -1.31 234.86, 0 214.68 M32 246.68 C8.69 247.46, 0.32 234.68, 0 214.68 M0 214.68 C1.44 158.44, -1.08 99.95, 0 32 M0 214.68 C-0.5 146.78, -0.41 79.4, 0 32 M0 32 C-0.33 10.53, 9.05 0.11, 32 0 M0 32 C-0.83 12.48, 10.28 -0.66, 32 0" stroke="#2f9e44" stroke-width="2" fill="none"></path></g><g transform="translate(756.9214648686567 1022.247635206296) rotate(0 40.500360946545996 11.348170444152174)"><text x="0" y="15.905595694523644" font-family="Virgil, Segoe UI Emoji" font-size="18.157072710643426px" fill="#2f9e44" text-anchor="start" style="white-space: pre;" direction="ltr" dominant-baseline="alphabetic">PAGO_T</text></g><g transform="translate(769.6534518352128 1088.4293856933332) rotate(0 76.17564845434681 11.348170444152174)"><text x="0" y="15.905595694523644" font-family="Virgil, Segoe UI Emoji" font-size="18.157072710643426px" fill="#2f9e44" text-anchor="start" style="white-space: pre;" direction="ltr" dominant-baseline="alphabetic">MONTO (UINT8)</text></g><g transform="translate(766.4704550935737 1142.5403303011972) rotate(0 88.07020972493089 11.348170444152174)"><text x="0" y="15.905595694523644" font-family="Virgil, Segoe UI Emoji" font-size="18.157072710643426px" fill="#2f9e44" text-anchor="start" style="white-space: pre;" direction="ltr" dominant-baseline="alphabetic">COMERCIO (CHAR*)</text></g><g transform="translate(764.8789567227542 1198.2427732798806) rotate(0 84.52285211315778 11.348170444152174)"><text x="0" y="15.905595694523644" font-family="Virgil, Segoe UI Emoji" font-size="18.157072710643426px" fill="#2f9e44" text-anchor="start" style="white-space: pre;" direction="ltr" dominant-baseline="alphabetic">CLIENTE (UINT8)</text></g><g transform="translate(764.8789567227542 1255.5367146293834) rotate(0 93.81154233832437 11.348170444152174)"><text x="0" y="15.905595694523644" font-family="Virgil, Segoe UI Emoji" font-size="18.157072710643426px" fill="#2f9e44" text-anchor="start" style="white-space: pre;" direction="ltr" dominant-baseline="alphabetic">APROBADO (UINT8)</text></g><g stroke-linecap="round"><g transform="translate(954.2672628502783 1207.791763504798) rotate(0 96.28565143458151 0)"><path d="M-0.31 0.14 C32.07 0.03, 161.04 -1.23, 193.27 -1.15 M1.73 -0.84 C34.1 -0.8, 160.88 -0.12, 192.69 -0.21" stroke="#2f9e44" stroke-width="2" fill="none"></path></g><g transform="translate(954.2672628502783 1207.791763504798) rotate(0 96.28565143458151 0)"><path d="M169.18 8.29 C174.57 7.66, 177.56 5.52, 192.69 -0.21 M169.18 8.29 C177.15 5.39, 184.89 1.51, 192.69 -0.21" stroke="#2f9e44" stroke-width="2" fill="none"></path></g><g transform="translate(954.2672628502783 1207.791763504798) rotate(0 96.28565143458151 0)"><path d="M169.21 -8.81 C174.53 -5.71, 177.51 -4.11, 192.69 -0.21 M169.21 -8.81 C177.04 -5.69, 184.77 -3.55, 192.69 -0.21" stroke="#2f9e44" stroke-width="2" fill="none"></path></g></g><mask></mask><g transform="translate(1164.3450477984563 1198.2427732798806) rotate(0 62.23000326872858 11.348170444152174)"><text x="0" y="15.905595694523644" font-family="Virgil, Segoe UI Emoji" font-size="18.157072710643426px" fill="#2f9e44" text-anchor="start" style="white-space: pre;" direction="ltr" dominant-baseline="alphabetic">Nro de cliente</text></g><g stroke-linecap="round"><g transform="translate(970.1822465584735 1266.6772032251201) rotate(0 85.94091202425452 0.7957491854097043)"><path d="M0.53 0.63 C28.91 1.12, 142.52 1.6, 171.01 1.78 M-0.65 -0.09 C28.05 0.11, 144.74 -0.78, 173.26 -0.24" stroke="#2f9e44" stroke-width="2" fill="none"></path></g><g transform="translate(970.1822465584735 1266.6772032251201) rotate(0 85.94091202425452 0.7957491854097043)"><path d="M149.73 8.23 C159.29 3.63, 166.99 1.31, 173.26 -0.24 M149.73 8.23 C156.82 5.84, 164.69 2.16, 173.26 -0.24" stroke="#2f9e44" stroke-width="2" fill="none"></path></g><g transform="translate(970.1822465584735 1266.6772032251201) rotate(0 85.94091202425452 0.7957491854097043)"><path d="M149.8 -8.88 C159.16 -7.35, 166.84 -3.54, 173.26 -0.24 M149.8 -8.88 C156.71 -5.92, 164.56 -4.25, 173.26 -0.24" stroke="#2f9e44" stroke-width="2" fill="none"></path></g></g><mask></mask><g transform="translate(1162.7535494276367 1252.3537178877446) rotate(0 54.55527737107704 11.348170444152174)"><text x="0" y="15.905595694523644" font-family="Virgil, Segoe UI Emoji" font-size="18.157072710643426px" fill="#2f9e44" text-anchor="start" style="white-space: pre;" direction="ltr" dominant-baseline="alphabetic">bool (T / F)</text></g><g stroke-linecap="round" transform="translate(1337.3601390302913 1064.5569101310393) rotate(0 148.80509767162607 123.34112373851349)"><path d="M32 0 C108.2 1.96, 183.18 0.01, 265.61 0 M32 0 C80.69 -0.36, 130.2 -1.82, 265.61 0 M265.61 0 C287.65 -1.58, 296.99 12.04, 297.61 32 M265.61 0 C287.74 -2.05, 297.59 8.4, 297.61 32 M297.61 32 C297.49 85.81, 299.29 136.24, 297.61 214.68 M297.61 32 C299.45 90.31, 298.68 148.72, 297.61 214.68 M297.61 214.68 C298.03 236.81, 288.37 247.48, 265.61 246.68 M297.61 214.68 C297.29 235.19, 284.79 246.27, 265.61 246.68 M265.61 246.68 C201.5 245.14, 136.31 246.04, 32 246.68 M265.61 246.68 C176.28 245.69, 87.63 245.66, 32 246.68 M32 246.68 C8.79 248, 0.3 236.32, 0 214.68 M32 246.68 C8.57 245.81, -1.9 236.57, 0 214.68 M0 214.68 C0.28 173.15, 2.67 134.85, 0 32 M0 214.68 C2.34 172.13, 1.43 130.43, 0 32 M0 32 C-1.58 12.43, 11.62 -1.1, 32 0 M0 32 C-1.43 10.48, 11.28 0.73, 32 0" stroke="#2f9e44" stroke-width="2" fill="none"></path></g><g transform="translate(1367.5986080758626 1022.2476352062951) rotate(0 40.50036094654598 11.348170444152174)"><text x="0" y="15.905595694523644" font-family="Virgil, Segoe UI Emoji" font-size="18.157072710643426px" fill="#2f9e44" text-anchor="start" style="white-space: pre;" direction="ltr" dominant-baseline="alphabetic">PAGO_T</text></g><g transform="translate(1380.3305950424187 1088.4293856933327) rotate(0 76.1756484543468 11.348170444152174)"><text x="0" y="15.905595694523644" font-family="Virgil, Segoe UI Emoji" font-size="18.157072710643426px" fill="#2f9e44" text-anchor="start" style="white-space: pre;" direction="ltr" dominant-baseline="alphabetic">MONTO (UINT8)</text></g><g transform="translate(1377.1475983007795 1142.5403303011972) rotate(0 88.07020972493086 11.348170444152174)"><text x="0" y="15.905595694523644" font-family="Virgil, Segoe UI Emoji" font-size="18.157072710643426px" fill="#2f9e44" text-anchor="start" style="white-space: pre;" direction="ltr" dominant-baseline="alphabetic">COMERCIO (CHAR*)</text></g><g transform="translate(1375.55609992996 1198.2427732798806) rotate(0 84.5228521131578 11.348170444152174)"><text x="0" y="15.905595694523644" font-family="Virgil, Segoe UI Emoji" font-size="18.157072710643426px" fill="#2f9e44" text-anchor="start" style="white-space: pre;" direction="ltr" dominant-baseline="alphabetic">CLIENTE (UINT8)</text></g><g transform="translate(1375.55609992996 1255.536714629383) rotate(0 93.81154233832439 11.348170444152174)"><text x="0" y="15.905595694523644" font-family="Virgil, Segoe UI Emoji" font-size="18.157072710643426px" fill="#2f9e44" text-anchor="start" style="white-space: pre;" direction="ltr" dominant-baseline="alphabetic">APROBADO (UINT8)</text></g><g stroke-linecap="round"><g transform="translate(1564.9444060574842 1207.791763504798) rotate(0 96.2856514345815 0)"><path d="M0.43 -0.95 C32.49 -0.64, 160.11 0.84, 192.2 0.82 M-0.81 1.17 C31.08 1.23, 158.85 -0.62, 191.06 -0.87" stroke="#2f9e44" stroke-width="2" fill="none"></path></g><g transform="translate(1564.9444060574842 1207.791763504798) rotate(0 96.2856514345815 0)"><path d="M167.66 7.95 C172.82 4.74, 182.43 3.54, 191.06 -0.87 M167.66 7.95 C172.47 6.33, 177.76 4.38, 191.06 -0.87" stroke="#2f9e44" stroke-width="2" fill="none"></path></g><g transform="translate(1564.9444060574842 1207.791763504798) rotate(0 96.2856514345815 0)"><path d="M167.47 -9.15 C172.53 -7.5, 182.2 -3.83, 191.06 -0.87 M167.47 -9.15 C172.32 -7.16, 177.65 -5.5, 191.06 -0.87" stroke="#2f9e44" stroke-width="2" fill="none"></path></g></g><mask></mask><g transform="translate(1775.022191005662 1198.2427732798806) rotate(0 62.23000326872858 11.348170444152174)"><text x="0" y="15.905595694523644" font-family="Virgil, Segoe UI Emoji" font-size="18.157072710643426px" fill="#2f9e44" text-anchor="start" style="white-space: pre;" direction="ltr" dominant-baseline="alphabetic">Nro de cliente</text></g><g stroke-linecap="round"><g transform="translate(1580.8593897656792 1266.6772032251192) rotate(0 85.94091202425449 0.7957491854097043)"><path d="M0.42 -1.07 C29.12 -1.14, 143.32 -0.04, 171.87 0.41 M-0.82 0.99 C27.76 0.94, 142.3 1, 170.92 1.32" stroke="#2f9e44" stroke-width="2" fill="none"></path></g><g transform="translate(1580.8593897656792 1266.6772032251192) rotate(0 85.94091202425449 0.7957491854097043)"><path d="M147.38 9.75 C151.88 7.39, 158.02 4.88, 170.92 1.32 M147.38 9.75 C155.14 8.05, 161.22 4.85, 170.92 1.32" stroke="#2f9e44" stroke-width="2" fill="none"></path></g><g transform="translate(1580.8593897656792 1266.6772032251192) rotate(0 85.94091202425449 0.7957491854097043)"><path d="M147.47 -7.35 C152.06 -5.11, 158.18 -3.02, 170.92 1.32 M147.47 -7.35 C155.24 -3.89, 161.29 -1.93, 170.92 1.32" stroke="#2f9e44" stroke-width="2" fill="none"></path></g></g><mask></mask><g transform="translate(1773.4306926348427 1252.353717887744) rotate(0 54.55527737107707 11.348170444152174)"><text x="0" y="15.905595694523644" font-family="Virgil, Segoe UI Emoji" font-size="18.157072710643426px" fill="#2f9e44" text-anchor="start" style="white-space: pre;" direction="ltr" dominant-baseline="alphabetic">bool (T / F)</text></g><g stroke-linecap="round" transform="translate(1943.2087201540692 1077.1787555711198) rotate(0 148.80509767162607 123.34112373851349)"><path d="M32 0 C119.4 -0.21, 203.68 2.8, 265.61 0 M32 0 C97.85 0.48, 163.26 0.68, 265.61 0 M265.61 0 C285.45 -0.09, 299.37 10.53, 297.61 32 M265.61 0 C286.32 0.45, 299.53 10.22, 297.61 32 M297.61 32 C294.68 95.72, 297.24 160.5, 297.61 214.68 M297.61 32 C297.86 82.5, 298.01 135.04, 297.61 214.68 M297.61 214.68 C299 235.99, 288.81 247.94, 265.61 246.68 M297.61 214.68 C296.99 236.82, 286.94 244.83, 265.61 246.68 M265.61 246.68 C197.38 245.54, 128.57 247.39, 32 246.68 M265.61 246.68 C171.91 246.8, 79.3 246.84, 32 246.68 M32 246.68 C10.59 246.94, -0.5 235.37, 0 214.68 M32 246.68 C12.45 248.34, -1.94 237.03, 0 214.68 M0 214.68 C2.02 171.97, 1.05 130.79, 0 32 M0 214.68 C-1.45 150.44, -0.5 87.52, 0 32 M0 32 C0.94 10.58, 11.33 0.15, 32 0 M0 32 C-1.82 11.67, 12.48 1.2, 32 0" stroke="#2f9e44" stroke-width="2" fill="none"></path></g><g transform="translate(1973.4471891996404 1034.8694806463755) rotate(0 40.50036094654604 11.348170444152174)"><text x="0" y="15.905595694523644" font-family="Virgil, Segoe UI Emoji" font-size="18.157072710643426px" fill="#2f9e44" text-anchor="start" style="white-space: pre;" direction="ltr" dominant-baseline="alphabetic">PAGO_T</text></g><g transform="translate(1986.1791761661966 1101.0512311334123) rotate(0 76.17564845434686 11.348170444152174)"><text x="0" y="15.905595694523644" font-family="Virgil, Segoe UI Emoji" font-size="18.157072710643426px" fill="#2f9e44" text-anchor="start" style="white-space: pre;" direction="ltr" dominant-baseline="alphabetic">MONTO (UINT8)</text></g><g transform="translate(1982.9961794245573 1155.1621757412759) rotate(0 88.07020972493092 11.348170444152174)"><text x="0" y="15.905595694523644" font-family="Virgil, Segoe UI Emoji" font-size="18.157072710643426px" fill="#2f9e44" text-anchor="start" style="white-space: pre;" direction="ltr" dominant-baseline="alphabetic">COMERCIO (CHAR*)</text></g><g transform="translate(1981.404681053738 1210.8646187199593) rotate(0 84.5228521131578 11.348170444152174)"><text x="0" y="15.905595694523644" font-family="Virgil, Segoe UI Emoji" font-size="18.157072710643426px" fill="#2f9e44" text-anchor="start" style="white-space: pre;" direction="ltr" dominant-baseline="alphabetic">CLIENTE (UINT8)</text></g><g transform="translate(1981.404681053738 1268.1585600694625) rotate(0 93.81154233832433 11.348170444152174)"><text x="0" y="15.905595694523644" font-family="Virgil, Segoe UI Emoji" font-size="18.157072710643426px" fill="#2f9e44" text-anchor="start" style="white-space: pre;" direction="ltr" dominant-baseline="alphabetic">APROBADO (UINT8)</text></g><g stroke-linecap="round"><g transform="translate(2170.792987181262 1220.4136089448766) rotate(0 96.2856514345815 0)"><path d="M-0.9 -0.06 C31.38 -0.1, 161.43 -0.13, 193.62 -0.08 M0.83 -1.13 C33.04 -0.99, 161.48 0.94, 193.23 1.41" stroke="#2f9e44" stroke-width="2" fill="none"></path></g><g transform="translate(2170.792987181262 1220.4136089448766) rotate(0 96.2856514345815 0)"><path d="M169.61 9.61 C176.56 9.1, 183.55 4.35, 193.23 1.41 M169.61 9.61 C177.56 6.18, 184.88 3.73, 193.23 1.41" stroke="#2f9e44" stroke-width="2" fill="none"></path></g><g transform="translate(2170.792987181262 1220.4136089448766) rotate(0 96.2856514345815 0)"><path d="M169.87 -7.49 C176.76 -2.9, 183.68 -2.54, 193.23 1.41 M169.87 -7.49 C177.88 -5.46, 185.12 -2.43, 193.23 1.41" stroke="#2f9e44" stroke-width="2" fill="none"></path></g></g><mask></mask><g transform="translate(2380.87077212944 1210.8646187199593) rotate(0 62.23000326872864 11.348170444152174)"><text x="0" y="15.905595694523644" font-family="Virgil, Segoe UI Emoji" font-size="18.157072710643426px" fill="#2f9e44" text-anchor="start" style="white-space: pre;" direction="ltr" dominant-baseline="alphabetic">Nro de cliente</text></g><g stroke-linecap="round"><g transform="translate(2186.707970889457 1279.2990486651997) rotate(0 85.94091202425454 0.7957491854097043)"><path d="M-0.32 0.24 C28.31 0.48, 144.09 1.31, 172.88 1.36 M1.71 -0.68 C30.18 -0.25, 144.09 2.44, 172.46 2.78" stroke="#2f9e44" stroke-width="2" fill="none"></path></g><g transform="translate(2186.707970889457 1279.2990486651997) rotate(0 85.94091202425454 0.7957491854097043)"><path d="M148.82 10.89 C158.39 9.48, 166.78 5.6, 172.46 2.78 M148.82 10.89 C154.06 9.92, 159.84 7.37, 172.46 2.78" stroke="#2f9e44" stroke-width="2" fill="none"></path></g><g transform="translate(2186.707970889457 1279.2990486651997) rotate(0 85.94091202425454 0.7957491854097043)"><path d="M149.13 -6.21 C158.57 -0.99, 166.84 1.76, 172.46 2.78 M149.13 -6.21 C154.35 -3.52, 160.07 -2.4, 172.46 2.78" stroke="#2f9e44" stroke-width="2" fill="none"></path></g></g><mask></mask><g transform="translate(2379.2792737586205 1264.9755633278237) rotate(0 54.55527737107707 11.348170444152174)"><text x="0" y="15.905595694523644" font-family="Virgil, Segoe UI Emoji" font-size="18.157072710643426px" fill="#2f9e44" text-anchor="start" style="white-space: pre;" direction="ltr" dominant-baseline="alphabetic">bool (T / F)</text></g><g stroke-linecap="round" transform="translate(646.5390694006448 930.0837944057063) rotate(0 1156.4765884472113 239.81506336149528)"><path d="M32 0 C913.95 -0.32, 1796.38 0.18, 2280.95 0 M32 0 C555 -8.04, 1078.42 -7.83, 2280.95 0 M2280.95 0 C2302.56 1.7, 2313.11 12.58, 2312.95 32 M2280.95 0 C2301.81 2.06, 2312.47 9.68, 2312.95 32 M2312.95 32 C2313.94 124.04, 2315.11 216.65, 2312.95 447.63 M2312.95 32 C2312.44 146.45, 2312.16 262.05, 2312.95 447.63 M2312.95 447.63 C2311.22 467.15, 2303.98 479.33, 2280.95 479.63 M2312.95 447.63 C2311.47 467.7, 2303.67 477.93, 2280.95 479.63 M2280.95 479.63 C1689.45 488.72, 1099.03 488.6, 32 479.63 M2280.95 479.63 C1788.3 471.51, 1296.47 470.96, 32 479.63 M32 479.63 C9.85 478.42, -0.04 468.5, 0 447.63 M32 479.63 C12.11 481.58, -2.18 470.86, 0 447.63 M0 447.63 C-0.21 350.63, 1.05 252.68, 0 32 M0 447.63 C-0.26 298.76, -0.72 150.81, 0 32 M0 32 C-1.89 11.79, 9.42 1.84, 32 0 M0 32 C1.32 9.53, 12.72 1.51, 32 0" stroke="#1971c2" stroke-width="2" fill="none"></path></g><g transform="translate(729.7150586874134 882.1109209166572) rotate(0 192.46665954589844 22.5)"><text x="0" y="31.536" font-family="Virgil, Segoe UI Emoji" font-size="36px" fill="#1971c2" text-anchor="start" style="white-space: pre;" direction="ltr" dominant-baseline="alphabetic">ARREGLO DE PAGOS</text></g><g stroke-linecap="round" transform="translate(773.8915177276892 1865.6041315259158) rotate(0 121.48526236075759 102.55249420063933)"><path d="M32 0 C98.57 -0.28, 167.5 -1.36, 210.97 0 M32 0 C84.54 1.75, 137.21 1.8, 210.97 0 M210.97 0 C232.94 -0.45, 243.87 9.28, 242.97 32 M210.97 0 C230.75 -1.52, 243.6 11.55, 242.97 32 M242.97 32 C243.36 63.57, 245.09 93.31, 242.97 173.1 M242.97 32 C242.63 85.73, 242.54 137.11, 242.97 173.1 M242.97 173.1 C243.99 193.55, 233.28 203.98, 210.97 205.1 M242.97 173.1 C240.8 194.79, 234.43 205.61, 210.97 205.1 M210.97 205.1 C141.94 205.28, 73.67 208.71, 32 205.1 M210.97 205.1 C155.43 204.35, 102.52 204.9, 32 205.1 M32 205.1 C11.87 204.56, -0.87 195.92, 0 173.1 M32 205.1 C10.78 204.25, -1.58 195.01, 0 173.1 M0 173.1 C0.47 141.72, 3.01 113.71, 0 32 M0 173.1 C0.04 129.63, 0.29 85.82, 0 32 M0 32 C-0.47 9.67, 9.51 -1.78, 32 0 M0 32 C0.76 10.97, 11.74 0.23, 32 0" stroke="#e03131" stroke-width="2" fill="none"></path></g><g transform="translate(798.110109861396 1945.6566257265554) rotate(0 97.26667022705078 22.5)"><text x="97.26667022705078" y="31.536" font-family="Virgil, Segoe UI Emoji" font-size="36px" fill="#e03131" text-anchor="middle" style="white-space: pre;" direction="ltr" dominant-baseline="alphabetic">COMERCIO</text></g><g stroke-linecap="round"><g transform="translate(903.265433488496 2017.06627680686) rotate(0 175.128105481092 0)"><path d="M-1.01 -1.16 C57.39 -0.89, 290.57 0.75, 349.25 0.99 M0.66 0.85 C59.52 0.85, 293.09 -0.76, 351.44 -0.61" stroke="#e03131" stroke-width="2" fill="none"></path></g><g transform="translate(903.265433488496 2017.06627680686) rotate(0 175.128105481092 0)"><path d="M327.97 8.01 C330.89 4.77, 339.28 6.05, 351.44 -0.61 M327.97 8.01 C336.27 5.81, 343.71 1.85, 351.44 -0.61" stroke="#e03131" stroke-width="2" fill="none"></path></g><g transform="translate(903.265433488496 2017.06627680686) rotate(0 175.128105481092 0)"><path d="M327.92 -9.09 C330.76 -8.83, 339.16 -4.05, 351.44 -0.61 M327.92 -9.09 C336.16 -5.73, 343.6 -4.14, 351.44 -0.61" stroke="#e03131" stroke-width="2" fill="none"></path></g></g><mask></mask><g transform="translate(1117.836805969834 1963.4234336865252) rotate(0 163.53334045410156 22.5)"><text x="0" y="31.536" font-family="Virgil, Segoe UI Emoji" font-size="36px" fill="#e03131" text-anchor="start" style="white-space: pre;" direction="ltr" dominant-baseline="alphabetic">PUNTERO A CHAR</text></g><g stroke-linecap="round" transform="translate(1489.1541660390678 1867.181862205925) rotate(0 121.48526236075759 102.55249420063933)"><path d="M32 0 C89.82 0.71, 150.73 2.45, 210.97 0 M32 0 C102.84 -0.28, 173.25 -0.18, 210.97 0 M210.97 0 C232.81 -0.4, 241.63 10.58, 242.97 32 M210.97 0 C233.05 1.45, 245.08 12.95, 242.97 32 M242.97 32 C242.17 86.96, 243.07 144.87, 242.97 173.1 M242.97 32 C243.67 75.68, 243.9 121.46, 242.97 173.1 M242.97 173.1 C241.83 192.83, 231.42 204.28, 210.97 205.1 M242.97 173.1 C242.38 194.62, 231.96 204, 210.97 205.1 M210.97 205.1 C158.49 202.66, 103.34 205.13, 32 205.1 M210.97 205.1 C150.86 203.8, 89.97 205.18, 32 205.1 M32 205.1 C12.62 207, -1.76 195.1, 0 173.1 M32 205.1 C11.19 206.45, -0.69 195.32, 0 173.1 M0 173.1 C-0.89 129.33, -1.26 82.95, 0 32 M0 173.1 C-0.57 136.58, -0.75 100.31, 0 32 M0 32 C-0.84 11.1, 10.82 -0.09, 32 0 M0 32 C-2.3 8.9, 9.82 -0.68, 32 0" stroke="#e03131" stroke-width="2" fill="none"></path></g><g transform="translate(1513.3727581727746 1947.2343564065645) rotate(0 97.26667022705078 22.5)"><text x="97.26667022705078" y="31.536" font-family="Virgil, Segoe UI Emoji" font-size="36px" fill="#e03131" text-anchor="middle" style="white-space: pre;" direction="ltr" dominant-baseline="alphabetic">COMERCIO</text></g><g stroke-linecap="round"><g transform="translate(1618.5280817998746 2018.6440074868692) rotate(0 175.128105481092 0)"><path d="M0.74 1.12 C59.25 1.11, 292.47 0.32, 350.81 0.11 M-0.34 0.66 C58.1 0.86, 291.71 1.63, 350.15 1.7" stroke="#e03131" stroke-width="2" fill="none"></path></g><g transform="translate(1618.5280817998746 2018.6440074868692) rotate(0 175.128105481092 0)"><path d="M326.64 10.2 C334.95 8.64, 339.73 6.31, 350.15 1.7 M326.64 10.2 C333.64 7.55, 339.5 5.25, 350.15 1.7" stroke="#e03131" stroke-width="2" fill="none"></path></g><g transform="translate(1618.5280817998746 2018.6440074868692) rotate(0 175.128105481092 0)"><path d="M326.68 -6.9 C335 -3.76, 339.77 -1.4, 350.15 1.7 M326.68 -6.9 C333.75 -4.61, 339.6 -1.98, 350.15 1.7" stroke="#e03131" stroke-width="2" fill="none"></path></g></g><mask></mask><g transform="translate(1833.0994542812125 1965.0011643665343) rotate(0 163.53334045410156 22.5)"><text x="0" y="31.536" font-family="Virgil, Segoe UI Emoji" font-size="36px" fill="#e03131" text-anchor="start" style="white-space: pre;" direction="ltr" dominant-baseline="alphabetic">PUNTERO A CHAR</text></g><g stroke-linecap="round" transform="translate(2214.910278843593 1870.3373235659446) rotate(0 121.48526236075759 102.55249420063933)"><path d="M32 0 C83.85 0.98, 139.61 -2.66, 210.97 0 M32 0 C96.58 2.24, 164.05 2.65, 210.97 0 M210.97 0 C233.8 -0.38, 243.33 11.91, 242.97 32 M210.97 0 C230.8 -0.7, 245.18 11.58, 242.97 32 M242.97 32 C245.05 71.03, 242.08 109.69, 242.97 173.1 M242.97 32 C241.24 77.97, 241.4 121.66, 242.97 173.1 M242.97 173.1 C243.02 192.48, 232.61 203.61, 210.97 205.1 M242.97 173.1 C242.17 192.2, 230.31 203.31, 210.97 205.1 M210.97 205.1 C144.77 203.62, 79.52 205.49, 32 205.1 M210.97 205.1 C141.12 205.77, 70.24 205.98, 32 205.1 M32 205.1 C10.43 205.61, -1.78 193.76, 0 173.1 M32 205.1 C10.52 203.06, 0.05 195.15, 0 173.1 M0 173.1 C1.46 144.06, 1.59 114.8, 0 32 M0 173.1 C0.48 139.07, 1.8 106.41, 0 32 M0 32 C-0.19 8.75, 10.08 -0.84, 32 0 M0 32 C-0.82 9.85, 11.99 0.31, 32 0" stroke="#e03131" stroke-width="2" fill="none"></path></g><g transform="translate(2239.1288709773 1950.3898177665842) rotate(0 97.26667022705078 22.5)"><text x="97.26667022705078" y="31.536" font-family="Virgil, Segoe UI Emoji" font-size="36px" fill="#e03131" text-anchor="middle" style="white-space: pre;" direction="ltr" dominant-baseline="alphabetic">COMERCIO</text></g><g stroke-linecap="round"><g transform="translate(2344.2841946044 2021.7994688468889) rotate(0 175.128105481092 0)"><path d="M-1.13 0.79 C57.06 0.55, 291.8 -1.14, 350.17 -1.17 M0.48 0.17 C58.41 0, 290.69 0.02, 349.18 -0.25" stroke="#e03131" stroke-width="2" fill="none"></path></g><g transform="translate(2344.2841946044 2021.7994688468889) rotate(0 175.128105481092 0)"><path d="M325.7 8.35 C336.11 5.09, 341.94 -0.02, 349.18 -0.25 M325.7 8.35 C334.58 4.94, 342.22 2.75, 349.18 -0.25" stroke="#e03131" stroke-width="2" fill="none"></path></g><g transform="translate(2344.2841946044 2021.7994688468889) rotate(0 175.128105481092 0)"><path d="M325.67 -8.75 C336.13 -5.38, 341.98 -3.85, 349.18 -0.25 M325.67 -8.75 C334.72 -6.18, 342.38 -2.39, 349.18 -0.25" stroke="#e03131" stroke-width="2" fill="none"></path></g></g><mask></mask><g transform="translate(2558.8555670857377 1968.156625726554) rotate(0 163.53334045410156 22.5)"><text x="0" y="31.536" font-family="Virgil, Segoe UI Emoji" font-size="36px" fill="#e03131" text-anchor="start" style="white-space: pre;" direction="ltr" dominant-baseline="alphabetic">PUNTERO A CHAR</text></g><g stroke-linecap="round" transform="translate(628.7402951667841 1752.0075225652072) rotate(0 1266.9177360479 224.03775656139692)"><path d="M32 0 C930.47 -7.7, 1830.09 -7.97, 2501.84 0 M32 0 C537.18 2.81, 1042.26 2.56, 2501.84 0 M2501.84 0 C2521.24 0.74, 2533.08 12, 2533.84 32 M2501.84 0 C2521.27 -0.41, 2535.11 11.67, 2533.84 32 M2533.84 32 C2534.84 143.44, 2533.39 257.47, 2533.84 416.08 M2533.84 32 C2536.07 183.75, 2535.32 335.89, 2533.84 416.08 M2533.84 416.08 C2533.17 439.17, 2524.96 448.93, 2501.84 448.08 M2533.84 416.08 C2531.78 439.4, 2525.03 449.31, 2501.84 448.08 M2501.84 448.08 C1939.81 448.37, 1376.48 447.71, 32 448.08 M2501.84 448.08 C1723.78 449.27, 945.49 449.18, 32 448.08 M32 448.08 C10.75 447.43, 1.54 437.72, 0 416.08 M32 448.08 C11.46 446.94, 0.16 435.51, 0 416.08 M0 416.08 C-0.04 281.45, -2.32 148.05, 0 32 M0 416.08 C0.03 281.07, 0.25 146.32, 0 32 M0 32 C-0.88 11.87, 9.62 0.25, 32 0 M0 32 C-0.79 11.25, 11.48 -0.33, 32 0" stroke="#6741d9" stroke-width="2" fill="none"></path></g><g transform="translate(685.5385996471382 1651.0327590445768) rotate(0 238.76666259765625 22.5)"><text x="0" y="31.536" font-family="Virgil, Segoe UI Emoji" font-size="36px" fill="#6741d9" text-anchor="start" style="white-space: pre;" direction="ltr" dominant-baseline="alphabetic">ARREGLO DE COMERCIOS</text></g><g stroke-linecap="round" transform="translate(483.5890726058785 635.1714174532427) rotate(0 1457.8231483290906 829.886337685175)"><path d="M32 0 C956.88 4.92, 1880.96 4.95, 2883.65 0 M32 0 C908.76 -10.54, 1785.26 -10.73, 2883.65 0 M2883.65 0 C2906.76 1.53, 2916.83 9.02, 2915.65 32 M2883.65 0 C2904.31 0.37, 2913.6 10.69, 2915.65 32 M2915.65 32 C2912.19 641.4, 2912.18 1249.91, 2915.65 1627.77 M2915.65 32 C2913.23 590.3, 2913.63 1148.62, 2915.65 1627.77 M2915.65 1627.77 C2915.65 1647.96, 2904.64 1660.96, 2883.65 1659.77 M2915.65 1627.77 C2914.63 1647.11, 2907.24 1660.49, 2883.65 1659.77 M2883.65 1659.77 C2171.25 1666.57, 1459.02 1665.32, 32 1659.77 M2883.65 1659.77 C1948.52 1665.48, 1013.54 1665.44, 32 1659.77 M32 1659.77 C10.59 1660.93, -1.37 1650.55, 0 1627.77 M32 1659.77 C10.62 1658.42, 1.9 1647.3, 0 1627.77 M0 1627.77 C-2.33 1179.71, -1.53 730.18, 0 32 M0 1627.77 C-4.67 1020.67, -4.46 413.21, 0 32 M0 32 C-1.7 9.56, 9.2 1.42, 32 0 M0 32 C-0.55 12.57, 10.07 -2.23, 32 0" stroke="#c2255c" stroke-width="2" fill="none"></path></g><g transform="translate(2642.607153470072 546.8184993726919) rotate(0 331.75836152411466 35.12184544007869)"><text x="0" y="49.22677856881429" font-family="Virgil, Segoe UI Emoji" font-size="56.194952704125896px" fill="#c2255c" text-anchor="start" style="white-space: pre;" direction="ltr" dominant-baseline="alphabetic">BLACKLISTCOMERCIOS</text></g><g stroke-linecap="round"><g transform="translate(1007.1984420341432 841.1638793620265) rotate(0 217.7268338413577 -37.86553632023606)"><path d="M-0.06 -1.09 C72.33 -13.98, 362.99 -64.13, 435.46 -76.67 M-1.54 0.95 C70.58 -11.88, 361.99 -62.91, 434.52 -75.63" stroke="#1971c2" stroke-width="2" fill="none"></path></g><g transform="translate(1007.1984420341432 841.1638793620265) rotate(0 217.7268338413577 -37.86553632023606)"><path d="M412.86 -63.15 C419.53 -68.06, 428.36 -74.15, 434.52 -75.63 M412.86 -63.15 C418.72 -66.93, 423.62 -70.08, 434.52 -75.63" stroke="#1971c2" stroke-width="2" fill="none"></path></g><g transform="translate(1007.1984420341432 841.1638793620265) rotate(0 217.7268338413577 -37.86553632023606)"><path d="M409.9 -80 C417.84 -78.24, 427.84 -77.66, 434.52 -75.63 M409.9 -80 C416.58 -79.64, 422.21 -78.64, 434.52 -75.63" stroke="#1971c2" stroke-width="2" fill="none"></path></g></g><mask></mask><g stroke-linecap="round" transform="translate(1497.8726835172035 1516.432610406237) rotate(0 362.8780564022628 59.95376584037399)"><path d="M29.98 0 C285.12 -1.59, 539.69 -1.52, 695.78 0 M29.98 0 C244.68 1.42, 459.73 1.7, 695.78 0 M695.78 0 C716.56 -1.37, 725 10.06, 725.76 29.98 M695.78 0 C715.63 1.85, 724.4 9.05, 725.76 29.98 M725.76 29.98 C725.04 51.38, 726.4 70.91, 725.76 89.93 M725.76 29.98 C725.16 46.34, 725.2 63.47, 725.76 89.93 M725.76 89.93 C727.48 108.47, 714.48 120.83, 695.78 119.91 M725.76 89.93 C724.51 111.35, 714.55 120.69, 695.78 119.91 M695.78 119.91 C489.91 118.36, 283.32 119.27, 29.98 119.91 M695.78 119.91 C543.16 120.1, 391.48 120.27, 29.98 119.91 M29.98 119.91 C11.87 121.5, -1.59 109.05, 0 89.93 M29.98 119.91 C7.81 119.32, 0.85 111.44, 0 89.93 M0 89.93 C0.51 67.4, 1.78 46.98, 0 29.98 M0 89.93 C0.47 71.55, 1.48 54.06, 0 29.98 M0 29.98 C0.13 10.48, 9.09 -0.47, 29.98 0 M0 29.98 C-0.4 8.45, 11.65 0.45, 29.98 0" stroke="#6741d9" stroke-width="2" fill="none"></path></g><g transform="translate(1507.339067597263 1560.6090694465129) rotate(0 336.5833435058594 22.5)"><text x="0" y="31.536" font-family="Virgil, Segoe UI Emoji" font-size="36px" fill="#6741d9" text-anchor="start" style="white-space: pre;" direction="ltr" dominant-baseline="alphabetic">CANTIDAD DE COMERCIOS (UINT8)</text></g><g stroke-linecap="round"><g transform="translate(1227.0946555605146 1649.7015487833182) rotate(0 124.64072372077715 -29.97688292018688)"><path d="M0.81 0.8 C42.33 -9.41, 208.34 -49.89, 249.69 -60.04 M-0.22 0.17 C41.12 -9.33, 207.59 -48.71, 248.96 -58.54" stroke="#6741d9" stroke-width="2" fill="none"></path></g><g transform="translate(1227.0946555605146 1649.7015487833182) rotate(0 124.64072372077715 -29.97688292018688)"><path d="M228.07 -44.81 C236.59 -49.08, 242.45 -55.13, 248.96 -58.54 M228.07 -44.81 C234.58 -48.59, 240.62 -53.64, 248.96 -58.54" stroke="#6741d9" stroke-width="2" fill="none"></path></g><g transform="translate(1227.0946555605146 1649.7015487833182) rotate(0 124.64072372077715 -29.97688292018688)"><path d="M224.13 -61.45 C234.19 -59.91, 241.44 -60.12, 248.96 -58.54 M224.13 -61.45 C231.78 -60.44, 238.97 -60.68, 248.96 -58.54" stroke="#6741d9" stroke-width="2" fill="none"></path></g></g><mask></mask><g stroke-linecap="round"><g transform="translate(447.69569963565436 2027.0750058081703) rotate(0 -134.10710780083627 282.41379083465836)"><path d="M-1.04 0.71 C-73.88 41.6, -464.44 150.3, -436.24 244.4 C-408.05 338.5, 67.44 511.82, 168.13 565.31 M0.62 0.03 C-71.91 41.2, -461.81 151.99, -433.94 245.85 C-406.08 339.72, 67.43 509.75, 167.83 563.21" stroke="#c2255c" stroke-width="2" fill="none"></path></g><g transform="translate(447.69569963565436 2027.0750058081703) rotate(0 -134.10710780083627 282.41379083465836)"><path d="M142.89 561.58 C153.22 561.08, 160.94 564.48, 167.83 563.21 M142.89 561.58 C151.11 562.33, 160.19 561.8, 167.83 563.21" stroke="#c2255c" stroke-width="2" fill="none"></path></g><g transform="translate(447.69569963565436 2027.0750058081703) rotate(0 -134.10710780083627 282.41379083465836)"><path d="M149.78 545.92 C157.45 551.12, 162.64 560.27, 167.83 563.21 M149.78 545.92 C155.74 552.03, 162.48 556.81, 167.83 563.21" stroke="#c2255c" stroke-width="2" fill="none"></path></g></g><mask></mask><g stroke-linecap="round" transform="translate(668.5779948370318 2506.705132531162) rotate(0 1110.722398726926 504.8738176031486)"><path d="M32 0 C669.18 -2.08, 1306.59 -0.96, 2189.44 0 M32 0 C784.81 0.98, 1536.84 0.98, 2189.44 0 M2189.44 0 C2209.81 -0.74, 2219.92 10.17, 2221.44 32 M2189.44 0 C2210.44 -1.47, 2220.07 10.4, 2221.44 32 M2221.44 32 C2222.33 376.94, 2221.11 721.93, 2221.44 977.75 M2221.44 32 C2221.75 393.55, 2221.44 754.14, 2221.44 977.75 M2221.44 977.75 C2221.54 997.36, 2212.69 1011.39, 2189.44 1009.75 M2221.44 977.75 C2219.28 998.21, 2209.46 1008.1, 2189.44 1009.75 M2189.44 1009.75 C1350.91 1011.03, 513.45 1009.84, 32 1009.75 M2189.44 1009.75 C1691.9 1017.46, 1194.98 1017.39, 32 1009.75 M32 1009.75 C11.75 1010.09, 1.56 998.54, 0 977.75 M32 1009.75 C9.66 1008.43, -1.51 1000.25, 0 977.75 M0 977.75 C2.41 661.17, 1.35 345.26, 0 32 M0 977.75 C-2.05 656, -1.87 334.07, 0 32 M0 32 C-1.76 10.72, 11.26 -0.43, 32 0 M0 32 C-1.81 10.27, 8.44 -2.21, 32 0" stroke="#c2255c" stroke-width="2" fill="none"></path></g><g transform="translate(406.67470195539863 2415.196753090591) rotate(0 201.81666564941406 22.5)"><text x="0" y="31.536" font-family="Virgil, Segoe UI Emoji" font-size="36px" fill="#c2255c" text-anchor="start" style="white-space: pre;" direction="ltr" dominant-baseline="alphabetic">Tenemos que devolver </text></g><g stroke-linecap="round" transform="translate(722.2208379573665 2896.725087037968) rotate(0 1025.524942006395 88.35291808055081)"><path d="M32 0 C671.54 -0.63, 1311.59 -1.51, 2019.05 0 M32 0 C464.52 -5.07, 897.24 -5.37, 2019.05 0 M2019.05 0 C2041.63 -1.73, 2052.69 9.55, 2051.05 32 M2019.05 0 C2041.75 1.16, 2050.28 10.51, 2051.05 32 M2051.05 32 C2052.24 73.75, 2053.05 114.05, 2051.05 144.71 M2051.05 32 C2049.82 68.13, 2051.12 103.97, 2051.05 144.71 M2051.05 144.71 C2050.16 165.48, 2040.53 178.58, 2019.05 176.71 M2051.05 144.71 C2052.65 168.18, 2042.51 178.76, 2019.05 176.71 M2019.05 176.71 C1372.08 178.77, 725.96 179.58, 32 176.71 M2019.05 176.71 C1564.21 173.67, 1109.98 174.19, 32 176.71 M32 176.71 C8.93 178.32, -0.29 166.8, 0 144.71 M32 176.71 C11.84 176.48, 1.67 164.44, 0 144.71 M0 144.71 C-1.24 111.1, -0.89 74.92, 0 32 M0 144.71 C-0.05 104.34, 0.81 61.09, 0 32 M0 32 C0.76 11.49, 9.5 -1.91, 32 0 M0 32 C0.69 9.91, 10.95 -2.03, 32 0" stroke="#c2255c" stroke-width="2" fill="none"></path></g><g stroke-linecap="round" transform="translate(785.3300651577599 2950.367930158303) rotate(0 148.3066839209248 42.59872836026557)"><path d="M21.3 0 C75.61 -1.88, 128.17 -1.78, 275.31 0 M21.3 0 C116.87 1.46, 211.34 1.34, 275.31 0 M275.31 0 C290.9 1.58, 296.47 7.23, 296.61 21.3 M275.31 0 C288.35 2.22, 298.19 8, 296.61 21.3 M296.61 21.3 C294.78 35.83, 298.43 48.85, 296.61 63.9 M296.61 21.3 C297.18 32.67, 295.92 43.92, 296.61 63.9 M296.61 63.9 C295.01 79.72, 289.72 86.54, 275.31 85.2 M296.61 63.9 C297.86 79.42, 288.46 86.54, 275.31 85.2 M275.31 85.2 C194.08 85.88, 112.05 83.67, 21.3 85.2 M275.31 85.2 C195.33 85.16, 114.26 85.59, 21.3 85.2 M21.3 85.2 C5.83 84.05, -0.03 78.52, 0 63.9 M21.3 85.2 C5.3 84.96, -0.05 78.18, 0 63.9 M0 63.9 C-0.58 49.83, 1.16 33.12, 0 21.3 M0 63.9 C0.74 53.38, 0.72 41.62, 0 21.3 M0 21.3 C0.75 8.4, 8.95 -1.37, 21.3 0 M0 21.3 C-0.58 9.25, 8.98 -0.2, 21.3 0" stroke="#c2255c" stroke-width="2" fill="none"></path></g><g transform="translate(868.4367521304425 2970.466658518569) rotate(0 65.19999694824219 22.5)"><text x="65.19999694824219" y="31.536" font-family="Virgil, Segoe UI Emoji" font-size="36px" fill="#c2255c" text-anchor="middle" style="white-space: pre;" direction="ltr" dominant-baseline="alphabetic">puntero</text></g><g stroke-linecap="round" transform="translate(1132.4308147599243 2948.790199478293) rotate(0 148.3066839209248 42.59872836026557)"><path d="M21.3 0 C107.71 1.5, 191.99 -0.06, 275.31 0 M21.3 0 C98.33 -0.94, 174.36 -1.22, 275.31 0 M275.31 0 C290.81 1.85, 295.24 6.6, 296.61 21.3 M275.31 0 C291.66 1.88, 296.41 7.3, 296.61 21.3 M296.61 21.3 C297.4 34.03, 296.52 45.15, 296.61 63.9 M296.61 21.3 C296.22 36.53, 297.28 51.29, 296.61 63.9 M296.61 63.9 C294.76 77.11, 291.04 84.24, 275.31 85.2 M296.61 63.9 C297.65 80.29, 288.89 86.2, 275.31 85.2 M275.31 85.2 C215.55 87.69, 152.98 84.85, 21.3 85.2 M275.31 85.2 C222.46 83.89, 168.04 84.71, 21.3 85.2 M21.3 85.2 C7.91 84.31, -1.91 78.19, 0 63.9 M21.3 85.2 C8.25 83.63, 2.07 79.99, 0 63.9 M0 63.9 C-1.29 48.92, -0.7 32.96, 0 21.3 M0 63.9 C0.73 48.46, -0.41 34.69, 0 21.3 M0 21.3 C1.95 5.26, 8.86 1.87, 21.3 0 M0 21.3 C-0.07 6.72, 5.36 -1.81, 21.3 0" stroke="#c2255c" stroke-width="2" fill="none"></path></g><g transform="translate(1215.5375017326069 2968.888927838558) rotate(0 65.19999694824219 22.5)"><text x="65.19999694824219" y="31.536" font-family="Virgil, Segoe UI Emoji" font-size="36px" fill="#c2255c" text-anchor="middle" style="white-space: pre;" direction="ltr" dominant-baseline="alphabetic">puntero</text></g><g stroke-linecap="round" transform="translate(1492.1534098021675 2948.790199478293) rotate(0 148.3066839209248 42.59872836026557)"><path d="M21.3 0 C121.16 1.96, 217.9 2.63, 275.31 0 M21.3 0 C84.75 -1.13, 148.04 -1.29, 275.31 0 M275.31 0 C290.24 1.89, 295.97 5.55, 296.61 21.3 M275.31 0 C288.89 -1.08, 298.14 7.67, 296.61 21.3 M296.61 21.3 C296.27 28.89, 295.52 39.15, 296.61 63.9 M296.61 21.3 C296.02 34.73, 297.34 47.58, 296.61 63.9 M296.61 63.9 C297.49 78.42, 290.89 86.17, 275.31 85.2 M296.61 63.9 C298.72 78.09, 289.36 85.92, 275.31 85.2 M275.31 85.2 C212.95 86.3, 153.05 85.78, 21.3 85.2 M275.31 85.2 C204.15 84.69, 132.05 83.94, 21.3 85.2 M21.3 85.2 C8.38 84.11, -0.39 77.76, 0 63.9 M21.3 85.2 C7.94 84.46, -0.07 78.52, 0 63.9 M0 63.9 C0.96 48.36, -0.21 32.93, 0 21.3 M0 63.9 C0.84 49.94, 0.77 36.81, 0 21.3 M0 21.3 C1.09 9.06, 7.5 -0.83, 21.3 0 M0 21.3 C-0.98 6.74, 7.79 -0.36, 21.3 0" stroke="#c2255c" stroke-width="2" fill="none"></path></g><g transform="translate(1575.2600967748501 2968.888927838559) rotate(0 65.19999694824219 22.5)"><text x="65.19999694824219" y="31.536" font-family="Virgil, Segoe UI Emoji" font-size="36px" fill="#c2255c" text-anchor="middle" style="white-space: pre;" direction="ltr" dominant-baseline="alphabetic">puntero</text></g><g stroke-linecap="round" transform="translate(1845.5650821243712 2945.6347381182745) rotate(0 148.3066839209248 42.59872836026557)"><path d="M21.3 0 C81.78 -2.28, 140.3 -1.82, 275.31 0 M21.3 0 C105.75 -0.19, 190.19 -0.2, 275.31 0 M275.31 0 C287.98 -1.26, 295.71 5.23, 296.61 21.3 M275.31 0 C287.91 -0.75, 298.11 5.68, 296.61 21.3 M296.61 21.3 C298.01 36.96, 294.53 54.89, 296.61 63.9 M296.61 21.3 C297.18 31.6, 297.1 40.73, 296.61 63.9 M296.61 63.9 C296.65 76.72, 287.9 86.64, 275.31 85.2 M296.61 63.9 C294.65 76.38, 289.08 86.77, 275.31 85.2 M275.31 85.2 C220.42 81.85, 167.05 82.3, 21.3 85.2 M275.31 85.2 C215.37 86.49, 154.33 85.65, 21.3 85.2 M21.3 85.2 C7.19 87.07, 1.8 77.24, 0 63.9 M21.3 85.2 C5.19 86.79, 2.13 79.95, 0 63.9 M0 63.9 C-0.51 49.46, -1.34 34.18, 0 21.3 M0 63.9 C-0.2 53.45, -0.09 43.83, 0 21.3 M0 21.3 C1.31 9.01, 7.57 -0.84, 21.3 0 M0 21.3 C-0.1 9.23, 5.61 0.88, 21.3 0" stroke="#c2255c" stroke-width="2" fill="none"></path></g><g transform="translate(1928.6717690970538 2965.73346647854) rotate(0 65.19999694824219 22.5)"><text x="65.19999694824219" y="31.536" font-family="Virgil, Segoe UI Emoji" font-size="36px" fill="#c2255c" text-anchor="middle" style="white-space: pre;" direction="ltr" dominant-baseline="alphabetic">puntero</text></g><g transform="translate(2262.0859816469683 2988.233466478539) rotate(0 0.00004999999998744897 0.00005000000010113581)" stroke="none"><path fill="#c2255c" d="M 3.14,-3.14 Q 3.14,-3.14 3.55,-2.55 3.97,-1.97 4.18,-1.28 4.40,-0.59 4.38,0.11 4.36,0.83 4.11,1.51 3.86,2.18 3.41,2.74 2.96,3.30 2.36,3.69 1.75,4.08 1.05,4.25 0.36,4.42 -0.35,4.36 -1.07,4.31 -1.73,4.02 -2.39,3.74 -2.92,3.26 -3.46,2.78 -3.81,2.15 -4.16,1.53 -4.30,0.82 -4.43,0.11 -4.34,-0.59 -4.24,-1.30 -3.92,-1.94 -3.60,-2.59 -3.09,-3.09 -2.59,-3.60 -1.94,-3.92 -1.30,-4.24 -0.59,-4.34 0.12,-4.43 0.82,-4.30 1.53,-4.16 2.15,-3.81 2.78,-3.46 3.26,-2.92 3.74,-2.39 4.02,-1.73 4.31,-1.07 4.36,-0.35 4.42,0.36 4.25,1.05 4.07,1.75 3.69,2.36 3.30,2.96 2.74,3.41 2.18,3.86 1.51,4.11 0.83,4.36 0.11,4.38 -0.60,4.40 -1.28,4.18 -1.97,3.97 -2.55,3.55 -3.14,3.13 -3.14,3.14 -3.14,3.14 -3.47,2.71 -3.80,2.29 -4.02,1.80 -4.24,1.32 -4.33,0.79 -4.43,0.26 -4.40,-0.26 -4.36,-0.80 -4.20,-1.31 -4.04,-1.82 -3.77,-2.28 -3.49,-2.73 -3.11,-3.11 -2.73,-3.49 -2.28,-3.77 -1.82,-4.05 -1.31,-4.20 -0.80,-4.36 -0.26,-4.40 0.26,-4.43 0.79,-4.33 1.32,-4.24 1.80,-4.02 2.29,-3.80 2.71,-3.47 3.14,-3.14 3.14,-3.14 L 3.14,-3.14 Z"></path></g><g transform="translate(2378.8380519676966 2994.5443891985783) rotate(0 0.00004999999998744897 0.00005000000010113581)" stroke="none"><path fill="#c2255c" d="M 3.14,-3.14 Q 3.14,-3.14 3.55,-2.55 3.97,-1.97 4.18,-1.28 4.40,-0.59 4.38,0.11 4.36,0.83 4.11,1.51 3.86,2.18 3.41,2.74 2.96,3.30 2.36,3.69 1.75,4.08 1.05,4.25 0.36,4.42 -0.35,4.36 -1.07,4.31 -1.73,4.02 -2.39,3.74 -2.92,3.26 -3.46,2.78 -3.81,2.15 -4.16,1.53 -4.30,0.82 -4.43,0.11 -4.34,-0.59 -4.24,-1.30 -3.92,-1.94 -3.60,-2.59 -3.09,-3.09 -2.59,-3.60 -1.94,-3.92 -1.30,-4.24 -0.59,-4.34 0.12,-4.43 0.82,-4.30 1.53,-4.16 2.15,-3.81 2.78,-3.46 3.26,-2.92 3.74,-2.39 4.02,-1.73 4.31,-1.07 4.36,-0.35 4.42,0.36 4.25,1.05 4.07,1.75 3.69,2.36 3.30,2.96 2.74,3.41 2.18,3.86 1.51,4.11 0.83,4.36 0.11,4.38 -0.60,4.40 -1.28,4.18 -1.97,3.97 -2.55,3.55 -3.14,3.13 -3.14,3.14 -3.14,3.14 -3.47,2.71 -3.80,2.29 -4.02,1.80 -4.24,1.32 -4.33,0.79 -4.43,0.26 -4.40,-0.26 -4.36,-0.80 -4.20,-1.31 -4.04,-1.82 -3.77,-2.28 -3.49,-2.73 -3.11,-3.11 -2.73,-3.49 -2.28,-3.77 -1.82,-4.05 -1.31,-4.20 -0.80,-4.36 -0.26,-4.40 0.26,-4.43 0.79,-4.33 1.32,-4.24 1.80,-4.02 2.29,-3.80 2.71,-3.47 3.14,-3.14 3.14,-3.14 L 3.14,-3.14 Z"></path></g><g transform="translate(2517.678351808562 3004.0107732786378) rotate(0 0.00004999999998744897 0.00005000000010113581)" stroke="none"><path fill="#c2255c" d="M 3.14,-3.14 Q 3.14,-3.14 3.55,-2.55 3.97,-1.97 4.18,-1.28 4.40,-0.59 4.38,0.11 4.36,0.83 4.11,1.51 3.86,2.18 3.41,2.74 2.96,3.30 2.36,3.69 1.75,4.08 1.05,4.25 0.36,4.42 -0.35,4.36 -1.07,4.31 -1.73,4.02 -2.39,3.74 -2.92,3.26 -3.46,2.78 -3.81,2.15 -4.16,1.53 -4.30,0.82 -4.43,0.11 -4.34,-0.59 -4.24,-1.30 -3.92,-1.94 -3.60,-2.59 -3.09,-3.09 -2.59,-3.60 -1.94,-3.92 -1.30,-4.24 -0.59,-4.34 0.12,-4.43 0.82,-4.30 1.53,-4.16 2.15,-3.81 2.78,-3.46 3.26,-2.92 3.74,-2.39 4.02,-1.73 4.31,-1.07 4.36,-0.35 4.42,0.36 4.25,1.05 4.07,1.75 3.69,2.36 3.30,2.96 2.74,3.41 2.18,3.86 1.51,4.11 0.83,4.36 0.11,4.38 -0.60,4.40 -1.28,4.18 -1.97,3.97 -2.55,3.55 -3.14,3.13 -3.14,3.14 -3.14,3.14 -3.47,2.71 -3.80,2.29 -4.02,1.80 -4.24,1.32 -4.33,0.79 -4.43,0.26 -4.40,-0.26 -4.36,-0.80 -4.20,-1.31 -4.04,-1.82 -3.77,-2.28 -3.49,-2.73 -3.11,-3.11 -2.73,-3.49 -2.28,-3.77 -1.82,-4.05 -1.31,-4.20 -0.80,-4.36 -0.26,-4.40 0.26,-4.43 0.79,-4.33 1.32,-4.24 1.80,-4.02 2.29,-3.80 2.71,-3.47 3.14,-3.14 3.14,-3.14 L 3.14,-3.14 Z"></path></g><g transform="translate(766.3972969976419 2820.994014397496) rotate(0 200.61666870117188 22.5)"><text x="0" y="31.536" font-family="Virgil, Segoe UI Emoji" font-size="36px" fill="#c2255c" text-anchor="start" style="white-space: pre;" direction="ltr" dominant-baseline="alphabetic">ARRAY DE PUNTEROS</text></g><g transform="translate(727.3484626673983 2573.0684292590736) rotate(0 1034.63330078125 90)"><text x="0" y="31.536" font-family="Virgil, Segoe UI Emoji" font-size="36px" fill="#c2255c" text-anchor="start" style="white-space: pre;" direction="ltr" dominant-baseline="alphabetic">SI HAY UN PAGO APROBADO QUE FUE REALIZADO EN ALGUNO DE LOS COMERCIOS DE LA LISTA </text><text x="0" y="76.536" font-family="Virgil, Segoe UI Emoji" font-size="36px" fill="#c2255c" text-anchor="start" style="white-space: pre;" direction="ltr" dominant-baseline="alphabetic">ARREGLO DE COMERCIOS, QUEREMOS CAPTURARLO AL PAGO Y POR ELLO, DEVOLVEMOS ESTE ARREGLO </text><text x="0" y="121.536" font-family="Virgil, Segoe UI Emoji" font-size="36px" fill="#c2255c" text-anchor="start" style="white-space: pre;" direction="ltr" dominant-baseline="alphabetic">DE PUNTEROS, NO HAY UN ORDEN PREESTABLECIDO, SIMPLEMENTE, SI EL PAGO EN EL QUE ESTOY PARADO</text><text x="0" y="166.536" font-family="Virgil, Segoe UI Emoji" font-size="36px" fill="#c2255c" text-anchor="start" style="white-space: pre;" direction="ltr" dominant-baseline="alphabetic">ESTA APROBADO Y FUE REALIZADO EN ALGUNO DE LOS COMERCIOS DE LA LISTA =&gt; LO AGREGO A RES</text></g><g stroke-linecap="round"><g transform="translate(967.7058709501473 3024.2994037418875) rotate(0 55.22057380034437 118.32980100073792)"><path d="M-0.79 -1 C17.75 38.47, 91.85 196.53, 110.56 236.3 M0.99 1.09 C19.45 40.78, 91.29 198.53, 109.67 237.65" stroke="#c2255c" stroke-width="2" fill="none"></path></g><g transform="translate(967.7058709501473 3024.2994037418875) rotate(0 55.22057380034437 118.32980100073792)"><path d="M92.06 219.9 C94.53 224.47, 99.82 230.26, 109.67 237.65 M92.06 219.9 C98.92 227.2, 104.54 232.81, 109.67 237.65" stroke="#c2255c" stroke-width="2" fill="none"></path></g><g transform="translate(967.7058709501473 3024.2994037418875) rotate(0 55.22057380034437 118.32980100073792)"><path d="M107.59 212.73 C106.31 218.91, 107.88 226.42, 109.67 237.65 M107.59 212.73 C108.6 222.89, 108.33 231.22, 109.67 237.65" stroke="#c2255c" stroke-width="2" fill="none"></path></g></g><mask></mask><g stroke-linecap="round"><g transform="translate(1264.319238791997 3036.9212491819662) rotate(0 41.02099768025573 93.08611012058054)"><path d="M0.18 -0.74 C13.76 30.27, 67.42 155.57, 81.25 186.88 M-1.18 1.49 C12.8 32.07, 69.52 154.5, 83.55 185.14" stroke="#c2255c" stroke-width="2" fill="none"></path></g><g transform="translate(1264.319238791997 3036.9212491819662) rotate(0 41.02099768025573 93.08611012058054)"><path d="M65.95 167.38 C69.82 171.05, 77.21 179.27, 83.55 185.14 M65.95 167.38 C72.33 174.49, 80.36 181.3, 83.55 185.14" stroke="#c2255c" stroke-width="2" fill="none"></path></g><g transform="translate(1264.319238791997 3036.9212491819662) rotate(0 41.02099768025573 93.08611012058054)"><path d="M81.48 160.22 C81.01 165.94, 84.01 176.18, 83.55 185.14 M81.48 160.22 C82.02 170.16, 84.15 179.68, 83.55 185.14" stroke="#c2255c" stroke-width="2" fill="none"></path></g></g><mask></mask><g stroke-linecap="round"><g transform="translate(1661.907370154476 3049.543094622045) rotate(0 67.84241924042317 85.19745672053159)"><path d="M-1.19 0.25 C21.46 28.59, 113.19 141.16, 136.14 169.69 M0.39 -0.66 C22.9 27.85, 112.8 142.48, 135.43 170.86" stroke="#c2255c" stroke-width="2" fill="none"></path></g><g transform="translate(1661.907370154476 3049.543094622045) rotate(0 67.84241924042317 85.19745672053159)"><path d="M114.16 157.72 C121.38 162.91, 126.63 167.72, 135.43 170.86 M114.16 157.72 C123.13 162.54, 130.23 168.53, 135.43 170.86" stroke="#c2255c" stroke-width="2" fill="none"></path></g><g transform="translate(1661.907370154476 3049.543094622045) rotate(0 67.84241924042317 85.19745672053159)"><path d="M127.58 147.12 C130.45 155.59, 131.39 163.81, 135.43 170.86 M127.58 147.12 C131.47 156.03, 133.4 166.11, 135.43 170.86" stroke="#c2255c" stroke-width="2" fill="none"></path></g></g><mask></mask><g stroke-linecap="round"><g transform="translate(2021.6299651967195 3017.988481021848) rotate(0 77.30880332048196 96.24157148060021)"><path d="M-0.06 1.11 C25.49 33.28, 128.22 160.29, 154.15 192.01 M-1.55 0.65 C23.73 33.07, 126.82 161.37, 152.96 193.3" stroke="#c2255c" stroke-width="2" fill="none"></path></g><g transform="translate(2021.6299651967195 3017.988481021848) rotate(0 77.30880332048196 96.24157148060021)"><path d="M131.54 180.42 C141.18 184.41, 146.43 191.49, 152.96 193.3 M131.54 180.42 C136.16 183.29, 141.47 185.57, 152.96 193.3" stroke="#c2255c" stroke-width="2" fill="none"></path></g><g transform="translate(2021.6299651967195 3017.988481021848) rotate(0 77.30880332048196 96.24157148060021)"><path d="M144.83 169.66 C149.49 177.6, 149.84 188.65, 152.96 193.3 M144.83 169.66 C146.51 174.96, 148.98 179.55, 152.96 193.3" stroke="#c2255c" stroke-width="2" fill="none"></path></g></g><mask></mask><g stroke-linecap="round" transform="translate(750.8419968607357 3239.5477096550876) rotate(0 119.61958109210379 99.14992015655662)"><path d="M32 0 C74.67 0.2, 115.97 -1.2, 207.24 0 M32 0 C97.32 -1.51, 161.25 -1.04, 207.24 0 M207.24 0 C227.05 1.39, 238.24 10.64, 239.24 32 M207.24 0 C228.1 -1.43, 240.8 8.44, 239.24 32 M239.24 32 C239.29 67.1, 240.23 104.44, 239.24 166.3 M239.24 32 C237.98 79.45, 239.42 125.7, 239.24 166.3 M239.24 166.3 C239.27 185.67, 227.65 197.11, 207.24 198.3 M239.24 166.3 C237.63 187.97, 227.22 197.74, 207.24 198.3 M207.24 198.3 C164.27 201.32, 120.2 198.18, 32 198.3 M207.24 198.3 C171.35 198.56, 135.12 197.9, 32 198.3 M32 198.3 C11.33 199.41, -0.18 187.45, 0 166.3 M32 198.3 C10.09 196.85, -0.78 187.94, 0 166.3 M0 166.3 C1.28 119.93, 0.27 75.17, 0 32 M0 166.3 C0.58 122.08, 1.23 80.01, 0 32 M0 32 C0.38 11.83, 10.87 -1.87, 32 0 M0 32 C1.9 9.93, 8.42 -0.8, 32 0" stroke="#2f9e44" stroke-width="2" fill="none"></path></g><g transform="translate(775.1497192216981 3205.5366588107345) rotate(0 32.55692369622764 9.122425346521595)"><text x="0" y="12.785991365684758" font-family="Virgil, Segoe UI Emoji" font-size="14.595880554434654px" fill="#2f9e44" text-anchor="start" style="white-space: pre;" direction="ltr" dominant-baseline="alphabetic">PAGO_T</text></g><g transform="translate(785.3845496894716 3258.738016782163) rotate(0 61.23512769459249 9.122425346521595)"><text x="0" y="12.785991365684758" font-family="Virgil, Segoe UI Emoji" font-size="14.595880554434654px" fill="#2f9e44" text-anchor="start" style="white-space: pre;" direction="ltr" dominant-baseline="alphabetic">MONTO (UINT8)</text></g><g transform="translate(782.8258420725282 3302.236046270201) rotate(0 70.79677886598868 9.122425346521595)"><text x="0" y="12.785991365684758" font-family="Virgil, Segoe UI Emoji" font-size="14.595880554434654px" fill="#2f9e44" text-anchor="start" style="white-space: pre;" direction="ltr" dominant-baseline="alphabetic">COMERCIO (CHAR*)</text></g><g transform="translate(781.5464882640565 3347.0134295667103) rotate(0 67.94517338913481 9.122425346521595)"><text x="0" y="12.785991365684758" font-family="Virgil, Segoe UI Emoji" font-size="14.595880554434654px" fill="#2f9e44" text-anchor="start" style="white-space: pre;" direction="ltr" dominant-baseline="alphabetic">CLIENTE (UINT8)</text></g><g transform="translate(781.5464882640565 3393.0701666716914) rotate(0 75.41204953124571 9.122425346521595)"><text x="0" y="12.785991365684756" font-family="Virgil, Segoe UI Emoji" font-size="14.595880554434656px" fill="#2f9e44" text-anchor="start" style="white-space: pre;" direction="ltr" dominant-baseline="alphabetic">APROBADO (UINT8)</text></g><g stroke-linecap="round"><g transform="translate(933.7895914721884 3354.6895524175407) rotate(0 77.4009054125377 0)"><path d="M-0.91 0.83 C24.97 0.85, 128.29 0.25, 154.2 -0.02 M0.81 0.22 C27.19 0.46, 131.13 1.52, 156.6 1.51" stroke="#2f9e44" stroke-width="2" fill="none"></path></g><g transform="translate(933.7895914721884 3354.6895524175407) rotate(0 77.4009054125377 0)"><path d="M133.06 9.93 C139.3 7.38, 142.73 6.24, 156.6 1.51 M133.06 9.93 C138.33 7.93, 145.16 6.33, 156.6 1.51" stroke="#2f9e44" stroke-width="2" fill="none"></path></g><g transform="translate(933.7895914721884 3354.6895524175407) rotate(0 77.4009054125377 0)"><path d="M133.16 -7.17 C139.36 -6.2, 142.77 -3.83, 156.6 1.51 M133.16 -7.17 C138.53 -5.1, 145.32 -2.64, 156.6 1.51" stroke="#2f9e44" stroke-width="2" fill="none"></path></g></g><mask></mask><g transform="translate(1102.6642941904524 3347.0134295667103) rotate(0 50.02467683460927 9.122425346521595)"><text x="0" y="12.785991365684758" font-family="Virgil, Segoe UI Emoji" font-size="14.595880554434654px" fill="#2f9e44" text-anchor="start" style="white-space: pre;" direction="ltr" dominant-baseline="alphabetic">Nro de cliente</text></g><g stroke-linecap="round"><g transform="translate(946.5831295569055 3402.0256433309933) rotate(0 69.08510565747162 0.6396769042357846)"><path d="M-0.24 -0.75 C23.02 -0.72, 115.97 -0.17, 138.99 0.12 M1.83 1.47 C25.06 1.6, 115.95 0.93, 138.47 1.05" stroke="#2f9e44" stroke-width="2" fill="none"></path></g><g transform="translate(946.5831295569055 3402.0256433309933) rotate(0 69.08510565747162 0.6396769042357846)"><path d="M114.99 9.64 C119.62 8.9, 124.8 4.86, 138.47 1.05 M114.99 9.64 C120.62 7.86, 127.44 5.35, 138.47 1.05" stroke="#2f9e44" stroke-width="2" fill="none"></path></g><g transform="translate(946.5831295569055 3402.0256433309933) rotate(0 69.08510565747162 0.6396769042357846)"><path d="M114.96 -7.46 C119.59 -3.92, 124.79 -3.69, 138.47 1.05 M114.96 -7.46 C120.76 -4.5, 127.59 -2.26, 138.47 1.05" stroke="#2f9e44" stroke-width="2" fill="none"></path></g></g><mask></mask><g transform="translate(1101.3849403819809 3390.5114590547482) rotate(0 43.85521415329919 9.122425346521595)"><text x="0" y="12.785991365684758" font-family="Virgil, Segoe UI Emoji" font-size="14.595880554434654px" fill="#2f9e44" text-anchor="start" style="white-space: pre;" direction="ltr" dominant-baseline="alphabetic">bool (T / F)</text></g><g stroke-linecap="round" transform="translate(1227.3166622237075 3246.262597579401) rotate(0 119.61958109210377 99.14992015655662)"><path d="M32 0 C82.65 -0.95, 133.28 1.15, 207.24 0 M32 0 C73.03 -1.45, 114.35 -2.16, 207.24 0 M207.24 0 C229.76 1.12, 239.55 8.94, 239.24 32 M207.24 0 C229.33 0.03, 237.33 9.96, 239.24 32 M239.24 32 C237.05 83.43, 238.23 132.43, 239.24 166.3 M239.24 32 C239.72 80.44, 241.23 129.59, 239.24 166.3 M239.24 166.3 C239.95 186.92, 227.99 198.59, 207.24 198.3 M239.24 166.3 C240.14 185.76, 228.44 198.65, 207.24 198.3 M207.24 198.3 C136.9 197.9, 68.32 195.73, 32 198.3 M207.24 198.3 C160.54 197.96, 112.67 198.01, 32 198.3 M32 198.3 C11.03 199.32, 0.37 189.39, 0 166.3 M32 198.3 C10.93 197.38, -1.59 187.9, 0 166.3 M0 166.3 C-1.91 122.99, -3.08 79.82, 0 32 M0 166.3 C-1.66 114.59, -0.57 61.4, 0 32 M0 32 C1.69 11.85, 12.23 1.65, 32 0 M0 32 C-0.28 11.92, 12.11 -1.4, 32 0" stroke="#2f9e44" stroke-width="2" fill="none"></path></g><g transform="translate(1251.6243845846698 3212.2515467350486) rotate(0 32.55692369622764 9.122425346521595)"><text x="0" y="12.785991365684758" font-family="Virgil, Segoe UI Emoji" font-size="14.595880554434654px" fill="#2f9e44" text-anchor="start" style="white-space: pre;" direction="ltr" dominant-baseline="alphabetic">PAGO_T</text></g><g transform="translate(1261.8592150524432 3265.452904706476) rotate(0 61.23512769459251 9.122425346521595)"><text x="0" y="12.785991365684758" font-family="Virgil, Segoe UI Emoji" font-size="14.595880554434654px" fill="#2f9e44" text-anchor="start" style="white-space: pre;" direction="ltr" dominant-baseline="alphabetic">MONTO (UINT8)</text></g><g transform="translate(1259.3005074355 3308.950934194515) rotate(0 70.7967788659887 9.122425346521595)"><text x="0" y="12.785991365684758" font-family="Virgil, Segoe UI Emoji" font-size="14.595880554434654px" fill="#2f9e44" text-anchor="start" style="white-space: pre;" direction="ltr" dominant-baseline="alphabetic">COMERCIO (CHAR*)</text></g><g transform="translate(1258.0211536270283 3353.7283174910235) rotate(0 67.94517338913482 9.122425346521595)"><text x="0" y="12.785991365684758" font-family="Virgil, Segoe UI Emoji" font-size="14.595880554434654px" fill="#2f9e44" text-anchor="start" style="white-space: pre;" direction="ltr" dominant-baseline="alphabetic">CLIENTE (UINT8)</text></g><g transform="translate(1258.0211536270283 3399.7850545960055) rotate(0 75.41204953124571 9.122425346521595)"><text x="0" y="12.785991365684756" font-family="Virgil, Segoe UI Emoji" font-size="14.595880554434656px" fill="#2f9e44" text-anchor="start" style="white-space: pre;" direction="ltr" dominant-baseline="alphabetic">APROBADO (UINT8)</text></g><g stroke-linecap="round"><g transform="translate(1410.2642568351603 3361.4044403418548) rotate(0 77.40090541253772 0)"><path d="M0.71 0.67 C26.64 0.61, 129.24 -0.93, 154.99 -1.04 M-0.38 -0.02 C25.46 0.09, 128.3 -0.27, 154.14 -0.04" stroke="#2f9e44" stroke-width="2" fill="none"></path></g><g transform="translate(1410.2642568351603 3361.4044403418548) rotate(0 77.40090541253772 0)"><path d="M130.63 8.46 C137.69 6.51, 140.73 4.72, 154.14 -0.04 M130.63 8.46 C138.57 5.69, 145.24 2.5, 154.14 -0.04" stroke="#2f9e44" stroke-width="2" fill="none"></path></g><g transform="translate(1410.2642568351603 3361.4044403418548) rotate(0 77.40090541253772 0)"><path d="M130.66 -8.64 C137.62 -6.31, 140.65 -3.81, 154.14 -0.04 M130.66 -8.64 C138.45 -6.26, 145.11 -4.29, 154.14 -0.04" stroke="#2f9e44" stroke-width="2" fill="none"></path></g></g><mask></mask><g transform="translate(1579.1389595534242 3353.7283174910235) rotate(0 50.024676834609295 9.122425346521595)"><text x="0" y="12.785991365684758" font-family="Virgil, Segoe UI Emoji" font-size="14.595880554434654px" fill="#2f9e44" text-anchor="start" style="white-space: pre;" direction="ltr" dominant-baseline="alphabetic">Nro de cliente</text></g><g stroke-linecap="round"><g transform="translate(1423.0577949198773 3408.7405312553065) rotate(0 69.08510565747162 0.6396769042357846)"><path d="M0.39 0.02 C23.23 0.34, 114.06 0.76, 137.18 0.91 M-0.86 -1.02 C22.32 -0.43, 116.09 1.74, 139.37 2.26" stroke="#2f9e44" stroke-width="2" fill="none"></path></g><g transform="translate(1423.0577949198773 3408.7405312553065) rotate(0 69.08510565747162 0.6396769042357846)"><path d="M115.68 10.27 C123.26 6.01, 130.09 6.69, 139.37 2.26 M115.68 10.27 C122.45 7.99, 128.02 6.74, 139.37 2.26" stroke="#2f9e44" stroke-width="2" fill="none"></path></g><g transform="translate(1423.0577949198773 3408.7405312553065) rotate(0 69.08510565747162 0.6396769042357846)"><path d="M116.07 -6.83 C123.38 -5.69, 130.09 0.38, 139.37 2.26 M116.07 -6.83 C122.79 -4.46, 128.26 -1.06, 139.37 2.26" stroke="#2f9e44" stroke-width="2" fill="none"></path></g></g><mask></mask><g transform="translate(1577.8596057449527 3397.2263469790623) rotate(0 43.85521415329919 9.122425346521595)"><text x="0" y="12.785991365684758" font-family="Virgil, Segoe UI Emoji" font-size="14.595880554434654px" fill="#2f9e44" text-anchor="start" style="white-space: pre;" direction="ltr" dominant-baseline="alphabetic">bool (T / F)</text></g><g stroke-linecap="round" transform="translate(1697.480404866639 3265.195365739518) rotate(0 119.61958109210377 99.14992015655662)"><path d="M32 0 C75 -1.18, 118.29 -0.71, 207.24 0 M32 0 C85.46 -0.65, 136.6 0.73, 207.24 0 M207.24 0 C227.9 -1.41, 238.18 9.56, 239.24 32 M207.24 0 C230.08 1.39, 241.15 9.74, 239.24 32 M239.24 32 C238.94 74.68, 239.73 115.68, 239.24 166.3 M239.24 32 C237.4 74.93, 237.21 116.59, 239.24 166.3 M239.24 166.3 C240.65 185.64, 227.14 197.85, 207.24 198.3 M239.24 166.3 C238.73 185.95, 227.25 197.29, 207.24 198.3 M207.24 198.3 C154.97 197.97, 102.05 201.11, 32 198.3 M207.24 198.3 C136.51 200.49, 67.26 199.83, 32 198.3 M32 198.3 C10.44 199.71, -0.83 188.27, 0 166.3 M32 198.3 C11.38 200.02, 0.63 186.38, 0 166.3 M0 166.3 C-1.75 137.4, -0.62 106.44, 0 32 M0 166.3 C-0.51 130.63, 0.59 96.21, 0 32 M0 32 C1.51 12.63, 9.14 -1.36, 32 0 M0 32 C0.52 9.87, 8.93 -0.01, 32 0" stroke="#2f9e44" stroke-width="2" fill="none"></path></g><g transform="translate(1721.7881272276013 3231.1843148951657) rotate(0 32.55692369622767 9.122425346521595)"><text x="0" y="12.785991365684758" font-family="Virgil, Segoe UI Emoji" font-size="14.595880554434654px" fill="#2f9e44" text-anchor="start" style="white-space: pre;" direction="ltr" dominant-baseline="alphabetic">PAGO_T</text></g><g transform="translate(1732.0229576953748 3284.3856728665933) rotate(0 61.23512769459251 9.122425346521595)"><text x="0" y="12.785991365684758" font-family="Virgil, Segoe UI Emoji" font-size="14.595880554434654px" fill="#2f9e44" text-anchor="start" style="white-space: pre;" direction="ltr" dominant-baseline="alphabetic">MONTO (UINT8)</text></g><g transform="translate(1729.4642500784316 3327.883702354632) rotate(0 70.7967788659887 9.122425346521595)"><text x="0" y="12.785991365684758" font-family="Virgil, Segoe UI Emoji" font-size="14.595880554434654px" fill="#2f9e44" text-anchor="start" style="white-space: pre;" direction="ltr" dominant-baseline="alphabetic">COMERCIO (CHAR*)</text></g><g transform="translate(1728.1848962699598 3372.6610856511406) rotate(0 67.94517338913482 9.122425346521595)"><text x="0" y="12.785991365684758" font-family="Virgil, Segoe UI Emoji" font-size="14.595880554434654px" fill="#2f9e44" text-anchor="start" style="white-space: pre;" direction="ltr" dominant-baseline="alphabetic">CLIENTE (UINT8)</text></g><g transform="translate(1728.1848962699598 3418.7178227561226) rotate(0 75.41204953124571 9.122425346521595)"><text x="0" y="12.785991365684756" font-family="Virgil, Segoe UI Emoji" font-size="14.595880554434656px" fill="#2f9e44" text-anchor="start" style="white-space: pre;" direction="ltr" dominant-baseline="alphabetic">APROBADO (UINT8)</text></g><g stroke-linecap="round"><g transform="translate(1880.4279994780918 3380.337208501972) rotate(0 77.40090541253772 0)"><path d="M-0.4 -0.84 C25.48 -1.15, 128.17 -0.92, 154.16 -0.66 M1.59 1.33 C27.97 1.67, 130.93 0.96, 156.54 0.53" stroke="#2f9e44" stroke-width="2" fill="none"></path></g><g transform="translate(1880.4279994780918 3380.337208501972) rotate(0 77.40090541253772 0)"><path d="M133.14 9.33 C136.41 6.56, 141.47 7.14, 156.54 0.53 M133.14 9.33 C141.61 5.61, 149.12 3.36, 156.54 0.53" stroke="#2f9e44" stroke-width="2" fill="none"></path></g><g transform="translate(1880.4279994780918 3380.337208501972) rotate(0 77.40090541253772 0)"><path d="M132.96 -7.77 C136.43 -7.07, 141.53 -3.01, 156.54 0.53 M132.96 -7.77 C141.63 -5.33, 149.21 -1.41, 156.54 0.53" stroke="#2f9e44" stroke-width="2" fill="none"></path></g></g><mask></mask><g transform="translate(2049.3027021963558 3372.6610856511406) rotate(0 50.024676834609295 9.122425346521595)"><text x="0" y="12.785991365684758" font-family="Virgil, Segoe UI Emoji" font-size="14.595880554434654px" fill="#2f9e44" text-anchor="start" style="white-space: pre;" direction="ltr" dominant-baseline="alphabetic">Nro de cliente</text></g><g stroke-linecap="round"><g transform="translate(1893.2215375628089 3427.6732994154236) rotate(0 69.08510565747156 0.6396769042357846)"><path d="M0.78 0.72 C24.09 0.97, 116.25 0.83, 139.17 0.8 M-0.26 0.06 C23.02 0.52, 115.77 1.86, 138.74 2.08" stroke="#2f9e44" stroke-width="2" fill="none"></path></g><g transform="translate(1893.2215375628089 3427.6732994154236) rotate(0 69.08510565747156 0.6396769042357846)"><path d="M115.15 10.34 C122.22 9.81, 126.04 6.33, 138.74 2.08 M115.15 10.34 C121.23 9.01, 126.4 6.53, 138.74 2.08" stroke="#2f9e44" stroke-width="2" fill="none"></path></g><g transform="translate(1893.2215375628089 3427.6732994154236) rotate(0 69.08510565747156 0.6396769042357846)"><path d="M115.36 -6.76 C122.29 -3.07, 126.05 -2.33, 138.74 2.08 M115.36 -6.76 C121.25 -4.07, 126.37 -2.51, 138.74 2.08" stroke="#2f9e44" stroke-width="2" fill="none"></path></g></g><mask></mask><g transform="translate(2048.023348387884 3416.1591151391794) rotate(0 43.855214153299244 9.122425346521595)"><text x="0" y="12.785991365684758" font-family="Virgil, Segoe UI Emoji" font-size="14.595880554434654px" fill="#2f9e44" text-anchor="start" style="white-space: pre;" direction="ltr" dominant-baseline="alphabetic">bool (T / F)</text></g><g stroke-linecap="round" transform="translate(2192.887838389729 3255.728981659462) rotate(0 119.61958109210377 99.14992015655662)"><path d="M32 0 C76.67 -1.26, 118.13 -2.46, 207.24 0 M32 0 C85.45 -0.12, 139.86 1.08, 207.24 0 M207.24 0 C229.2 -1.08, 241.02 10, 239.24 32 M207.24 0 C228.16 -0.48, 241.32 10.78, 239.24 32 M239.24 32 C240.86 77.05, 240.86 122.75, 239.24 166.3 M239.24 32 C238.25 76.07, 237.96 122.43, 239.24 166.3 M239.24 166.3 C238.39 187.11, 227.58 199.7, 207.24 198.3 M239.24 166.3 C238.21 185.93, 228.04 198.84, 207.24 198.3 M207.24 198.3 C145.11 197.42, 79.82 197.17, 32 198.3 M207.24 198.3 C156.45 197.6, 106.1 198.36, 32 198.3 M32 198.3 C10.94 198.32, -0.65 185.83, 0 166.3 M32 198.3 C11.94 200.5, 0.95 185.73, 0 166.3 M0 166.3 C-0.98 120.38, -0.41 76.3, 0 32 M0 166.3 C1.3 113.58, 0.4 61.1, 0 32 M0 32 C1.4 9.44, 8.75 0.02, 32 0 M0 32 C-1.87 12.5, 12.3 -1.71, 32 0" stroke="#2f9e44" stroke-width="2" fill="none"></path></g><g transform="translate(2217.1955607506916 3221.717930815108) rotate(0 32.556923696227614 9.122425346521595)"><text x="0" y="12.785991365684758" font-family="Virgil, Segoe UI Emoji" font-size="14.595880554434654px" fill="#2f9e44" text-anchor="start" style="white-space: pre;" direction="ltr" dominant-baseline="alphabetic">PAGO_T</text></g><g transform="translate(2227.430391218465 3274.9192887865374) rotate(0 61.23512769459251 9.122425346521595)"><text x="0" y="12.785991365684758" font-family="Virgil, Segoe UI Emoji" font-size="14.595880554434654px" fill="#2f9e44" text-anchor="start" style="white-space: pre;" direction="ltr" dominant-baseline="alphabetic">MONTO (UINT8)</text></g><g transform="translate(2224.871683601521 3318.4173182745744) rotate(0 70.7967788659887 9.122425346521595)"><text x="0" y="12.785991365684758" font-family="Virgil, Segoe UI Emoji" font-size="14.595880554434654px" fill="#2f9e44" text-anchor="start" style="white-space: pre;" direction="ltr" dominant-baseline="alphabetic">COMERCIO (CHAR*)</text></g><g transform="translate(2223.5923297930494 3363.194701571085) rotate(0 67.94517338913477 9.122425346521595)"><text x="0" y="12.785991365684758" font-family="Virgil, Segoe UI Emoji" font-size="14.595880554434654px" fill="#2f9e44" text-anchor="start" style="white-space: pre;" direction="ltr" dominant-baseline="alphabetic">CLIENTE (UINT8)</text></g><g transform="translate(2223.5923297930494 3409.251438676065) rotate(0 75.41204953124577 9.122425346521595)"><text x="0" y="12.785991365684756" font-family="Virgil, Segoe UI Emoji" font-size="14.595880554434656px" fill="#2f9e44" text-anchor="start" style="white-space: pre;" direction="ltr" dominant-baseline="alphabetic">APROBADO (UINT8)</text></g><g stroke-linecap="round"><g transform="translate(2375.8354330011816 3370.870824421914) rotate(0 77.40090541253767 0)"><path d="M0.38 -0.65 C26.44 -0.87, 130.17 -0.47, 155.87 -0.4 M-0.88 1.62 C25.16 1.49, 129.72 1.04, 155.48 0.93" stroke="#2f9e44" stroke-width="2" fill="none"></path></g><g transform="translate(2375.8354330011816 3370.870824421914) rotate(0 77.40090541253767 0)"><path d="M132.03 9.58 C136.9 9.07, 143.32 4.71, 155.48 0.93 M132.03 9.58 C138.82 8.01, 145.75 4.97, 155.48 0.93" stroke="#2f9e44" stroke-width="2" fill="none"></path></g><g transform="translate(2375.8354330011816 3370.870824421914) rotate(0 77.40090541253767 0)"><path d="M131.95 -7.52 C136.97 -3.65, 143.42 -3.62, 155.48 0.93 M131.95 -7.52 C138.92 -4.32, 145.87 -2.58, 155.48 0.93" stroke="#2f9e44" stroke-width="2" fill="none"></path></g></g><mask></mask><g transform="translate(2544.710135719446 3363.194701571085) rotate(0 50.024676834609295 9.122425346521595)"><text x="0" y="12.785991365684758" font-family="Virgil, Segoe UI Emoji" font-size="14.595880554434654px" fill="#2f9e44" text-anchor="start" style="white-space: pre;" direction="ltr" dominant-baseline="alphabetic">Nro de cliente</text></g><g stroke-linecap="round"><g transform="translate(2388.6289710858987 3418.2069153353677) rotate(0 69.08510565747156 0.6396769042357846)"><path d="M-0.22 -0.25 C22.81 0.04, 116.13 0.91, 139.25 1.34 M-1.79 -1.43 C21.09 -0.89, 115.58 2.59, 138.88 2.91" stroke="#2f9e44" stroke-width="2" fill="none"></path></g><g transform="translate(2388.6289710858987 3418.2069153353677) rotate(0 69.08510565747156 0.6396769042357846)"><path d="M115.16 10.82 C124 9.59, 133.74 5.34, 138.88 2.91 M115.16 10.82 C124.5 7.96, 134.22 5, 138.88 2.91" stroke="#2f9e44" stroke-width="2" fill="none"></path></g><g transform="translate(2388.6289710858987 3418.2069153353677) rotate(0 69.08510565747156 0.6396769042357846)"><path d="M115.62 -6.27 C124.22 -0.85, 133.79 1.55, 138.88 2.91 M115.62 -6.27 C124.9 -2.55, 134.44 1.09, 138.88 2.91" stroke="#2f9e44" stroke-width="2" fill="none"></path></g></g><mask></mask><g transform="translate(2543.4307819109745 3406.692731059122) rotate(0 43.855214153299244 9.122425346521595)"><text x="0" y="12.785991365684758" font-family="Virgil, Segoe UI Emoji" font-size="14.595880554434654px" fill="#2f9e44" text-anchor="start" style="white-space: pre;" direction="ltr" dominant-baseline="alphabetic">bool (T / F)</text></g></svg>